<!-- Generated by IcoMoon.io -->
<svg version="1.1" xmlns="http://www.w3.org/2000/svg" width="64" height="64" viewBox="0 0 64 64">
<path fill="#231f20" d="M7.826 0.897h48.299c3.826 0 6.928 3.102 6.928 6.928v48.299c0 3.826-3.102 6.928-6.928 6.928h-48.299c-3.826 0-6.928-3.102-6.928-6.928v-48.299c0-3.826 3.102-6.928 6.928-6.928z"></path>
<path fill="#fff" d="M56.125 0h-48.249c-4.349 0-7.875 3.526-7.875 7.875v0 48.249c0 4.349 3.526 7.875 7.875 7.875v0h48.249c4.349 0 7.875-3.526 7.875-7.875v0-48.249c0-4.349-3.526-7.875-7.875-7.875v0zM56.125 1.844c3.331 0 6.031 2.7 6.031 6.031v0 48.249c0 3.331-2.7 6.031-6.031 6.031v0h-48.249c-3.331 0-6.031-2.7-6.031-6.031v0-48.249c0-3.331 2.7-6.031 6.031-6.031v0h48.249z"></path>
<path fill="#fff" d="M23.726 42.069h-3.439v-19.938h3.439zM12.361 30.455h19.29v3.439h-19.29z"></path>
<path fill="#fff" d="M40.972 46.704v-26.517l4.984-2.991v29.508zM35.24 47.153v-1.944l2.891-0.349 3.439-0.548-0.598 2.293v-4.486h4.984v4.237l-0.548-2.093 6.081 0.897v1.994zM41.869 21.782l-6.978-0.498v-1.346c2.881-1.262 6.233-2.252 9.73-2.81l0.239-0.031h1.495v4.436z"></path>
</svg>
