<!-- Generated by IcoMoon.io -->
<svg version="1.1" xmlns="http://www.w3.org/2000/svg" width="64" height="64" viewBox="0 0 64 64">
<path fill="#fff" d="M48.369 0l-14.62 10.343-12.053-8.71 0.622 14.464-19.83 0.855 16.642 12.909 2.722-1.633-4.977-6.221 10.187-1.089 0.467-9.176 5.988 3.733 9.487-4.588 1.244 10.576 7.077 1.789-5.91 3.499 4.277 7.543-8.243-0.233-0.7 10.265-6.454-4.977-1.477 2.8 11.198 16.797 1.711-20.374 16.642 5.832-10.265-16.253 12.287-5.599-15.086-5.055-0.933-17.497z"></path>
<path fill="#fff" d="M32.972 21.463l-22.94 25.507-3.888-3.499-1.866 1.322 15.086 13.609 1.089-1.944-3.888-3.577 23.252-25.196 1.089-8.087-7.932 1.866z"></path>
<path fill="#fff" d="M12.52 54.357l-6.532 7.154c-0.851-0.030-1.614-0.38-2.178-0.934l0.001 0.001c-0.738-0.554-1.25-1.373-1.397-2.313l-0.003-0.020 6.532-7.154z"></path>
<path fill="#fff" d="M6.066 64v0c-2.371-1.584-4.379-3.493-6.020-5.691l-0.045-0.063 1.789-1.4c2.044 1.521 3.849 3.128 5.503 4.879l0.019 0.020z"></path>
</svg>
