<!-- Generated by IcoMoon.io -->
<svg version="1.1" xmlns="http://www.w3.org/2000/svg" width="64" height="64" viewBox="0 0 64 64">
<path fill="#252528" d="M32.002 63.449c-0.001 0-0.003 0-0.004 0-0.447 0-0.852-0.182-1.145-0.476l-29.822-29.823c-0.294-0.294-0.476-0.7-0.476-1.149s0.182-0.855 0.476-1.149v0l29.827-29.827c0.294-0.293 0.7-0.475 1.149-0.475s0.854 0.181 1.149 0.475l29.819 29.831c0.294 0.294 0.476 0.7 0.476 1.149s-0.182 0.855-0.476 1.149l-29.823 29.819c-0.292 0.294-0.696 0.476-1.143 0.476-0.002 0-0.004 0-0.005 0h0z"></path>
<path fill="#fff" d="M32.002 1.106c0.002 0 0.004 0 0.006 0 0.293 0 0.559 0.119 0.751 0.312l29.823 29.828c0.194 0.194 0.313 0.461 0.313 0.757s-0.12 0.563-0.313 0.757l-29.823 29.823c-0.193 0.195-0.461 0.315-0.757 0.315s-0.563-0.121-0.756-0.315l-29.823-29.823c-0.194-0.194-0.313-0.461-0.313-0.757s0.12-0.563 0.313-0.756l29.823-29.827c0.192-0.193 0.458-0.313 0.752-0.313 0.002 0 0.003 0 0.005 0h-0zM32.002 0c-0.602 0-1.147 0.244-1.541 0.639l-29.822 29.822c-0.395 0.393-0.64 0.937-0.64 1.538s0.244 1.145 0.64 1.538l29.822 29.827c0.395 0.392 0.939 0.635 1.54 0.635s1.145-0.242 1.54-0.635l29.823-29.827c0.395-0.393 0.639-0.937 0.639-1.538s-0.244-1.145-0.639-1.538l-29.823-29.822c-0.394-0.395-0.938-0.639-1.539-0.639 0 0-0 0-0 0v0z"></path>
<path fill="#fff" d="M37.185 26.97c-0.003 0-0.007 0-0.010 0-2.028 0-3.865 0.813-5.204 2.131l0.001-0.001c-1.343-1.317-3.184-2.13-5.215-2.13-4.114 0-7.449 3.335-7.449 7.449 0 0 0 0.001 0 0.001v-0c0 1.327 0.346 3.264 1.936 5.324 2.654 3.429 6.435 6.329 10.497 8.93 0.066 0.043 0.146 0.068 0.232 0.068s0.166-0.025 0.233-0.069l-0.002 0.001c4.061-2.601 7.846-5.496 10.496-8.93 1.59-2.060 1.935-3.997 1.935-5.324 0-4.115-3.336-7.45-7.45-7.45v0z"></path>
<path fill="#fff" d="M35.514 7.033c-1.075-0.194-2.312-0.305-3.575-0.305-1.24 0-2.455 0.107-3.636 0.312l0.126-0.018 0.351 1.954c0.373 0.039 0.741 0.069 1.106 0.092v7.271h4.169v-7.263c0.365-0.023 0.734-0.050 1.106-0.087z"></path>
<path fill="#fff" d="M40.754 18.232l-0.479 1.912h-4.529v4.594c-1.426 0.18-2.707 0.689-3.801 1.448l0.028-0.018c-1.068-0.741-2.351-1.25-3.738-1.426l-0.042-0.004v-4.594h-4.525l-0.479-1.912z"></path>
<path fill="#fff" d="M28.196 35.724v17.501l3.434 4.424c0.080 0.103 0.203 0.168 0.342 0.168s0.262-0.065 0.341-0.167l0.001-0.001 3.434-4.424v-17.501z"></path>
<path fill="#282828" d="M26.835 38.006s0.452 3.791 1.361 5.641v-5.252z"></path>
<path fill="#282828" d="M37.109 38.006s-0.453 3.791-1.361 5.641v-5.252z"></path>
<path fill="#282828" d="M31.971 38.543c-2.909 0-6.008-1.035-6.008-1.035 2.232 2.313 6.008 3.777 6.008 3.777s3.777-1.469 6.009-3.777c0 0-3.097 1.035-6.009 1.035z"></path>
<path fill="#282828" d="M27.515 38.71c0.601 0.296 0.483 0.916 2.084 1.616 1.106 0.483 2.674 1.533 2.362 4.875-0.073 0.734-0.943 2.001-0.806 3.378 0.122 1.285 0.885 1.741 1.6 1.631 0.75-0.118 1.422-0.875 1.438-1.697 0.038-1.798-0.856-2.202-0.995-3.358-0.091-0.78 0.073-3.67 0.608-4.358 0.468-0.602 1.388-0.928 2.001-1.53 0.795-0.774-0.647-0.342-0.647-0.342s-4.144 0.403-7.644-0.221z"></path>
</svg>
