<!-- Generated by IcoMoon.io -->
<svg version="1.1" xmlns="http://www.w3.org/2000/svg" width="64" height="64" viewBox="0 0 64 64">
<path fill="#2595a0" d="M32.002 63.449c-0.002 0-0.004 0-0.006 0-0.447 0-0.851-0.182-1.143-0.475l-29.822-29.822c-0.294-0.294-0.476-0.7-0.476-1.149s0.182-0.855 0.476-1.149l29.827-29.827c0.294-0.294 0.7-0.476 1.149-0.476s0.855 0.182 1.149 0.476l29.819 29.83c0.294 0.294 0.476 0.7 0.476 1.149s-0.182 0.855-0.476 1.149l-29.823 29.819c-0.291 0.294-0.695 0.476-1.141 0.476-0.002 0-0.005 0-0.007 0h0z"></path>
<path fill="#fff" d="M32.002 1.106c0.001 0 0.002 0 0.004 0 0.294 0 0.56 0.119 0.753 0.312l29.823 29.828c0.194 0.194 0.313 0.461 0.313 0.756s-0.12 0.563-0.313 0.757l-29.823 29.823c-0.193 0.195-0.461 0.315-0.757 0.315s-0.563-0.121-0.756-0.315l-29.823-29.823c-0.194-0.194-0.313-0.461-0.313-0.757s0.12-0.563 0.313-0.756l29.823-29.827c0.193-0.193 0.459-0.313 0.754-0.313 0.001 0 0.002 0 0.003 0h-0zM32.002 0c-0.602 0-1.147 0.244-1.541 0.639l-29.822 29.823c-0.395 0.393-0.64 0.937-0.64 1.538s0.244 1.145 0.639 1.538l29.822 29.827c0.395 0.393 0.939 0.636 1.54 0.636s1.145-0.243 1.54-0.636l29.823-29.827c0.395-0.393 0.639-0.937 0.639-1.538s-0.244-1.145-0.639-1.538l-29.823-29.823c-0.394-0.395-0.938-0.639-1.539-0.639 0 0-0 0-0 0v0z"></path>
<path fill="#fff" d="M32.105 21.030l-1.137 0.806-2.715-1.707-1.513-6.105 3.049 0.774 1.913 2.091zM42.185 39.477h3.202l0.332-4.462-5.192-1.41-1.65 2.212 0.386 2.672zM31.325 49.152l2.495-1.536-0.578-2.396-2.068-2.921-1.865 1.183-1.965 4.662zM33.24 6.49l1.187 5.676-0.457 3.628 2.396 2.942 5.442-2.442 2.22-4.029-7.161-7.162zM22.266 9.977l6.588 1.503 2.751 2.243-0.457-6.956 2.607-4.777-0.267-0.268c-0.38-0.38-0.905-0.615-1.485-0.615s-1.105 0.235-1.485 0.615v0zM55.483 23.717l-3.142-3.146-2.517 1.593 0.73 1.308zM26.284 51.069l-1.595 5.381 5.829 5.829c0.38 0.38 0.905 0.615 1.485 0.615s1.105-0.235 1.485-0.615l4.264-4.264c-1.327-2.041-3.957-6.166-3.957-6.166zM43.427 19.437l0.175 3.955-2.973 2.825 0.553 0.703 5.392-3.377 3.744-4.998-3.56-3.56zM41.183 18.731l-4.941 4.46 0.179 2.168 1.783 0.963 3.301-3.791zM46.525 42.67l-7.937-1.057-1.991-1.639-1.939 3.78 1.586 2.218-0.806 4.712 4.313 5.339 9.339-9.348zM23.035 48.369l3.453-7.381-3.982-5.621h-4.233l-1.057 5.872-4.365 3.374 9.856 9.855zM20.365 19.77l2.898 3.097 3.453 1.106 1.709-1.834-2.141-1.77-1.639-7.735-4.224-0.82-3.097 3.097zM58.387 26.62l-8.39-1.404-4.108 1.235-5.267 3.83 0.278 1.586 5.594 1.738 4.493-2.145 6.651 0.404 5.12-0.618c-0.111-0.285-0.271-0.529-0.472-0.732l0 0zM53.651 35.015l-6.093-0.125 0.251 5.495 3.089 4.488 10.286-10.286zM14.796 39.348l0.605-3.247-4.46 1.558-3.807-2.091-2.71 0.622 6.337 6.334zM19.936 22.995l-4.23 2.947-4.891 0.985v4.483l2.145 2.597 3.149-0.783 6.775-0.929 2.27-3.793-1.816-3.111-2.75-0.582zM11.669 23.979l3.224-0.553 3.76-2.898-3.113-3.828-5.734 5.733zM5.498 32.627l3.225 0.098-0.834-3.072s-0.347-2.876-0.564-4.734l-5.544 5.54z"></path>
<path fill="#fff" d="M33.565 29.243c-0.733-1.019-1.357-2.188-1.815-3.438l-0.033-0.102c-0.018-0.038-0.056-0.065-0.101-0.065s-0.083 0.026-0.1 0.064l-0 0.001c-0.496 1.351-1.121 2.52-1.883 3.584l0.031-0.045c-1.354 1.88-2.042 2.788-2.042 4.366 0.037 2.177 1.811 3.927 3.993 3.927s3.956-1.75 3.993-3.924l0-0.004c0-1.578-0.685-2.492-2.043-4.367z"></path>
</svg>
