<!-- Generated by IcoMoon.io -->
<svg version="1.1" xmlns="http://www.w3.org/2000/svg" width="58" height="64" viewBox="0 0 58 64">
<path d="M45.952 13.696q0.96-0.768 2.080-0.864t1.984 0.288 1.728 1.12 1.376 1.376 0.96 1.28l-1.984 1.984q-1.28 1.28-3.584 3.648t-5.664 5.824-5.792 5.952q12.352 15.808 13.184 16.96-1.344 1.28-4.096 2.592t-5.472 1.792-4.064-0.864q-0.064-0.128-8.64-11.136-12.48 12.672-14.080 13.952-1.024 0.768-2.112 0.864t-1.984-0.288-1.728-1.12-1.376-1.408-0.928-1.312q0.192-0.128 1.92-1.92 1.536-1.6 6.848-7.040t8.192-8.448q-12.864-16.576-13.184-16.896 1.408-1.28 4.128-2.592t5.44-1.824 4.064 0.896q0.192 0.256 8.704 11.072 12.48-12.672 14.080-13.888z"></path>
</svg>
