<!-- Generated by IcoMoon.io -->
<svg version="1.1" xmlns="http://www.w3.org/2000/svg" width="64" height="64" viewBox="0 0 64 64">
<path fill="#7d58a4" d="M32 63.446c-0.002 0-0.003 0-0.005 0-0.447 0-0.852-0.182-1.144-0.475l-29.821-29.822c-0.294-0.294-0.476-0.7-0.476-1.148s0.182-0.855 0.476-1.148l29.826-29.822c0.294-0.294 0.7-0.476 1.148-0.476s0.855 0.182 1.148 0.476l29.818 29.827c0.294 0.294 0.476 0.7 0.476 1.148s-0.182 0.855-0.476 1.148l-29.822 29.818c-0.292 0.294-0.696 0.476-1.143 0.476-0.002 0-0.004 0-0.005 0h0z"></path>
<path fill="#fff" d="M32 1.106c0 0 0.001 0 0.001 0 0.295 0 0.562 0.119 0.755 0.312l29.821 29.824c0.195 0.194 0.315 0.462 0.315 0.759s-0.12 0.565-0.315 0.759l-29.821 29.821c-0.194 0.193-0.461 0.313-0.756 0.313s-0.563-0.12-0.756-0.313v0l-29.822-29.821c-0.195-0.194-0.315-0.462-0.315-0.759s0.121-0.565 0.315-0.759l29.822-29.822c0.193-0.193 0.46-0.313 0.755-0.313 0 0 0.001 0 0.002 0h-0zM32 0c-0.602 0-1.146 0.244-1.541 0.639l-29.822 29.823c-0.394 0.394-0.637 0.938-0.637 1.538s0.243 1.145 0.637 1.538v0l29.822 29.821c0.394 0.396 0.939 0.64 1.541 0.64s1.147-0.245 1.54-0.64l29.821-29.821c0.394-0.394 0.638-0.938 0.638-1.538s-0.244-1.145-0.638-1.538v0l-29.821-29.822c-0.394-0.395-0.939-0.639-1.541-0.639h-0z"></path>
<path fill="#fff" d="M18.386 13.473l4.645 19.343c0.067 0.384 0.462 0.617 0.831 0.491l5.897-2.032c0.398-0.135 0.815 0.146 0.839 0.565l1.216 22.147c0.038 0.705 1.022 0.826 1.232 0.158l10.439-32.846c0.151-0.469-0.267-0.923-0.746-0.813l-7.852 1.845c-0.487 0.111-0.906-0.355-0.743-0.827l5.176-14.647c0.070-0.208-3.34-2.679-3.34-2.679-0.12-0.158-2.706-3.625-3.98-3.624-1.717-0.148-5.607 5.056-7.598 6.776 0 0-3.775 3.704-3.75 3.837z"></path>
</svg>
