<!-- Generated by IcoMoon.io -->
<svg version="1.1" xmlns="http://www.w3.org/2000/svg" width="64" height="64" viewBox="0 0 64 64">
<path fill="#1f2c35" d="M32 63.086c-17.168-0-31.085-13.918-31.085-31.086 0-8.584 3.479-16.355 9.104-21.981v0c5.637-5.699 13.459-9.229 22.104-9.229 17.168 0 31.086 13.918 31.086 31.086 0 8.646-3.529 16.467-9.226 22.102l-0.003 0.003c-5.594 5.624-13.338 9.105-21.895 9.105-0.030 0-0.060-0-0.090-0h0.005z"></path>
<path fill="#fff" d="M32 1.829c16.663 0 30.171 13.509 30.171 30.171s-13.509 30.171-30.171 30.171-30.171-13.509-30.171-30.171 13.509-30.171 30.171-30.171zM32 0c-17.671 0.009-31.992 14.336-31.992 32.008 0 13.173 7.957 24.487 19.327 29.398l0.208 0.080c3.676 1.595 7.958 2.523 12.457 2.523 17.678 0 32.009-14.331 32.009-32.009 0-13.179-7.965-24.499-19.344-29.406l-0.208-0.080c-3.658-1.59-7.919-2.514-12.395-2.514-0.022 0-0.044 0-0.065 0h0.003z"></path>
<path fill="#fff" d="M37.238 13.968c-0.006 0-0.014 0-0.022 0-1.861 0-3.655 0.283-5.343 0.809l0.127-0.034c-1.562-0.492-3.358-0.776-5.22-0.776-0.006 0-0.013 0-0.019 0h0.001c-9.943 0-18.033 8.089-18.033 18.033s8.089 18.032 18.033 18.032c0.006 0 0.014 0 0.022 0 1.861 0 3.655-0.283 5.343-0.809l-0.127 0.034c1.562 0.492 3.358 0.776 5.22 0.776 0.006 0 0.012 0 0.018 0h-0.001c9.943 0 18.032-8.089 18.032-18.032s-8.088-18.033-18.031-18.033zM32 47.818c-0.622 0.217-1.384 0.417-2.165 0.563l-0.102 0.016c-0.892 0.169-1.919 0.265-2.968 0.265-0.001 0-0.003 0-0.004 0h0c-9.187 0-16.662-7.474-16.662-16.661s7.474-16.662 16.662-16.662c0.004 0 0.009 0 0.013 0 1.046 0 2.069 0.097 3.061 0.281l-0.103-0.016c1.604 0.296 3.035 0.778 4.365 1.434l-0.097-0.043c5.614 2.761 9.41 8.44 9.41 15.005 0 7.325-4.725 13.547-11.294 15.783l-0.117 0.035zM37.238 48.662c-0.001 0-0.002 0-0.002 0-1.049 0-2.076-0.096-3.072-0.281l0.103 0.016c0.791-0.367 1.448-0.728 2.079-1.126l-0.075 0.044c0.205-0.127 0.405-0.259 0.603-0.394 8.353-0.137 15.086-6.765 15.086-14.921s-6.729-14.786-15.086-14.923c-0.199-0.135-0.399-0.267-0.603-0.395-0.556-0.354-1.213-0.713-1.893-1.031l-0.11-0.046c0.89-0.169 1.913-0.265 2.959-0.265 0.004 0 0.008 0 0.013 0h-0.001c9.186 0 16.661 7.474 16.661 16.662s-7.474 16.661-16.661 16.661z"></path>
</svg>
