<!-- Generated by IcoMoon.io -->
<svg version="1.1" xmlns="http://www.w3.org/2000/svg" width="65" height="64" viewBox="0 0 65 64">
<path fill="#69797d" d="M32.753 63.448c-0.446-0.002-0.85-0.183-1.144-0.474l-29.829-29.827c-0.293-0.294-0.474-0.7-0.474-1.147s0.181-0.853 0.474-1.147l29.829-29.823c0.295-0.293 0.701-0.474 1.15-0.474s0.855 0.181 1.15 0.474l29.817 29.826c0.293 0.294 0.474 0.7 0.474 1.147s-0.181 0.853-0.474 1.147l-29.823 29.824c-0.295 0.293-0.701 0.474-1.15 0.474-0 0-0 0-0.001 0v0z"></path>
<path fill="#fff" d="M32.753 1.106c0.003 0 0.006-0 0.009-0 0.292 0 0.557 0.121 0.746 0.315l29.829 29.823c0.193 0.194 0.313 0.461 0.313 0.756s-0.12 0.562-0.313 0.756l-29.829 29.827c-0.194 0.191-0.461 0.31-0.755 0.31s-0.561-0.118-0.755-0.31l-29.827-29.827c-0.193-0.194-0.313-0.461-0.313-0.756s0.12-0.562 0.313-0.756v0l29.827-29.822c0.19-0.195 0.455-0.316 0.749-0.316 0.002 0 0.005 0 0.007 0h-0zM32.753 0c-0.001 0-0.003 0-0.004 0-0.6 0-1.142 0.244-1.534 0.638l-29.823 29.823c-0.394 0.394-0.637 0.938-0.637 1.539s0.243 1.145 0.637 1.539v0l29.823 29.823c0.394 0.394 0.938 0.638 1.539 0.638s1.145-0.244 1.539-0.638l29.823-29.823c0.394-0.394 0.637-0.938 0.637-1.539s-0.243-1.145-0.637-1.539v0l-29.823-29.823c-0.392-0.394-0.935-0.638-1.535-0.638-0.002 0-0.003 0-0.005 0h0z"></path>
<path fill="#fff" d="M48.703 43.771c-0.052-0.221 0.258-2.534 0.168-4.27s-1.341-4.852-1.205-5.517c0.136-0.666 1.205-6.466 1.15-6.809s-1.361-1.299-2.671-0.553c-1.309 0.747-1.745 3.392-1.89 4.054-0.169 0.764-0.483 1.595-1.216 2.003-1.136 0.648-1.797-0.385-2.506-1.609-0.337-0.577-3.293-7.32-3.852-8.314s-1.275-3.571-3.105-2.849c-1.938 0.755 0.755 5.851 1.019 6.484s1.623 3.885 1.75 4.351c0.126 0.466 0.111 0.854-0.187 0.99s-0.644 0.305-1.727-1.042c-1.084-1.347-3.659-4.335-4.037-4.772s-2.534-2.909-3.207-3.13c-0.674-0.221-2.366 0.596-1.845 2.027s3.157 3.674 4.36 5.156c1.202 1.482 3.847 3.824 3.513 4.617-0.304 0.731-1.975-0.596-3.523-1.573s-4.509-3.199-5.147-3.406c-0.553-0.178-1.722 0.207-1.638 1.609s2.975 2.979 3.753 3.506c0.779 0.526 4.81 3.139 4.547 4.030-0.165 0.553-2.299-0.314-3.567-0.885s-4.368-1.787-4.922-0.699c-0.647 1.282 0.010 2.322 3.421 3.707s4.106 1.929 4.828 2.487c0.722 0.559 2.956 3.65 5.626 4.818 1.671 0.737 3.904 1.45 5.044 1.305 0.99 0.442 2.564 3.202 2.564 3.202 2.33-2.304 4.169-4.153 6.413-6.295 0 0-1.854-2.407-1.91-2.622zM43.174 44.988c-0.115 0.099-0.262 0.154-0.414 0.155-0.192 0-0.373-0.088-0.492-0.239-2.286-2.875-1.971-5.725-1.455-7.264 0.788-2.347 1.872-3.069 1.914-3.121 0.165-0.187 0.404-0.197 0.508-0.093 0.356 0.356-0.948 0.797-1.563 3.191-0.479 1.848-0.404 3.693 1.581 6.438 0.22 0.285 0.185 0.69-0.080 0.933z"></path>
<path fill="#fff" d="M40.905 20.74c-0.192 0.764-0.624 0.708-0.619-0.075l0.075-13.429c1.502 1.601 1.924 2.049 3.083 3.361z"></path>
<path fill="#fff" d="M1.798 30.108l15.655 3.881c0.916 0.221 0.854 0.689-0.088 0.664l-14.505-0.174c-1.553-2.051-1.734-2.294-1.062-4.37z"></path>
<path fill="#fff" d="M16.589 47.665l7.973-3.186c0.469-0.187 0.67 0.142 0.291 0.474l-6.119 5.418c-0.901-1.104-1.337-1.502-2.144-2.706z"></path>
<path fill="#fff" d="M27.728 5.428l2.443 11.824c0.142 0.689-0.276 0.839-0.601 0.211l-4.898-9.328c1.056-1.017 2.549-2.255 3.056-2.71z"></path>
<path fill="#fff" d="M21.138 25.299c0.465 0.417 0.239 0.755-0.324 0.483l-9.665-4.608c0.855-0.95 1.463-1.655 2.612-2.501z"></path>
</svg>
