<!-- Generated by IcoMoon.io -->
<svg version="1.1" xmlns="http://www.w3.org/2000/svg" width="64" height="64" viewBox="0 0 64 64">
<path fill="#d6802b" d="M32 62.437c-0.418 0-0.811-0.162-1.106-0.458l-28.767-28.767c-0.609-0.609-0.609-1.603 0-2.212l28.767-28.767c0.295-0.295 0.688-0.458 1.106-0.458s0.811 0.162 1.106 0.458l28.767 28.767c0.609 0.609 0.609 1.603 0 2.212l-28.767 28.767c-0.295 0.295-0.688 0.458-1.106 0.458z"></path>
<path fill="#fff" d="M32 2.203c0.277 0 0.537 0.108 0.732 0.303l28.764 28.764c0.194 0.194 0.303 0.458 0.303 0.732s-0.108 0.537-0.303 0.732l-28.764 28.764c-0.194 0.194-0.454 0.303-0.732 0.303s-0.537-0.108-0.732-0.303l-28.764-28.765c-0.194-0.194-0.303-0.454-0.303-0.732s0.108-0.537 0.303-0.732l28.764-28.764c0.194-0.194 0.454-0.303 0.732-0.303zM32 1.135c-0.537 0-1.073 0.206-1.484 0.615l-28.764 28.766c-0.821 0.821-0.821 2.15 0 2.969l28.764 28.764c0.411 0.411 0.947 0.615 1.484 0.615s1.073-0.205 1.484-0.615l28.764-28.764c0.821-0.818 0.821-2.147 0-2.969l-28.764-28.764c-0.411-0.411-0.947-0.615-1.484-0.615z"></path>
<path fill="#fff" d="M37.251 19.182c0 2.062-1.249 3.831-3.033 4.594 0.603 0.258 1.266 0.401 1.963 0.401 2.758 0 4.995-2.237 4.995-4.995s-2.237-4.995-4.995-4.995c-0.697 0-1.36 0.143-1.963 0.401 1.782 0.763 3.033 2.532 3.033 4.594z"></path>
<path fill="#fff" d="M38.439 26.34s-1.355 0.37-2.469 0.37c-0.46 0-0.961-0.063-1.391-0.137l4.923 17.594s-0.762 3.618-5.491 4.422c0.591 0.1 1.243 0.157 1.963 0.157 6.492 0 7.454-4.579 7.454-4.579l-4.988-17.827z"></path>
<path fill="#fff" d="M28.535 14.199c-0.119-0.009-0.24-0.014-0.362-0.014-0.071 0-0.142 0.001-0.212 0.004-0.351 0.015-0.693 0.065-1.022 0.149h2.47c-0.283-0.073-0.574-0.119-0.874-0.141zM23.521 21.004c0.075 0.188 0.159 0.37 0.253 0.545h8.799c0.095-0.175 0.179-0.357 0.253-0.545h-9.306zM25.313 23.277c0.417 0.291 0.879 0.521 1.376 0.674h2.97c0.496-0.155 0.959-0.383 1.376-0.674h-5.722zM33.149 18.732h-9.95c-0.013 0.137-0.019 0.275-0.020 0.414h9.99c-0.001-0.14-0.007-0.278-0.020-0.414zM32.363 16.46h-8.379c-0.061 0.093-0.118 0.186-0.171 0.283h8.72c-0.053-0.097-0.11-0.19-0.171-0.283zM31.107 28.757l-0.049-0.176h-6.192l-0.049 0.176-0.212 0.759h6.717l-0.212-0.759zM32.451 33.563l-0.122-0.435h-8.736l-0.334 1.195h9.405l-0.212-0.759zM33.795 38.368l-0.195-0.697h-11.277l-0.195 0.697-0.214 0.761h12.095l-0.214-0.761zM20.602 44.489c0.090 0.258 0.252 0.646 0.528 1.088 0.085 0.138 0.182 0.279 0.291 0.425 0.083 0.11 0.174 0.223 0.272 0.336h12.54c0.099-0.113 0.189-0.225 0.272-0.336 0.109-0.145 0.206-0.287 0.291-0.425 0.276-0.442 0.436-0.83 0.526-1.088h-14.719zM27.964 48.747c2.96 0 4.77-0.951 5.863-1.986h-11.726c1.094 1.035 2.905 1.986 5.863 1.986zM35.296 43.728l-0.156-0.554-0.268-0.958h-13.819l-0.268 0.958-0.156 0.554-0.058 0.206h14.782l-0.058-0.206zM34.66 41.456l-0.191-0.686-0.231-0.828h-12.549l-0.23 0.828-0.192 0.686-0.020 0.075h13.437l-0.020-0.075zM33.123 35.966l-0.158-0.566h-10.007l-0.158 0.566-0.212 0.761h10.748l-0.212-0.761zM31.779 31.161l-0.085-0.306h-7.465l-0.085 0.306-0.212 0.759h8.061l-0.212-0.759zM30.435 26.355l-0.004-0.016s-0.021 0.005-0.061 0.016c-0.273 0.070-1.434 0.354-2.409 0.354s-2.171-0.289-2.421-0.354c-0.032-0.007-0.048-0.013-0.048-0.013l-0.003 0.013-0.212 0.759h5.373l-0.212-0.759z"></path>
</svg>
