<!-- Generated by IcoMoon.io -->
<svg version="1.1" xmlns="http://www.w3.org/2000/svg" width="66" height="64" viewBox="0 0 66 64">
<path fill="#fff" d="M17.354 43.059c-0.034 0.39-0.359 0.693-0.755 0.693-0.039 0-0.078-0.003-0.115-0.009l0.004 0.001h-0.324c-3.607-2.272-12.372-11.65-1.695-23.481s24.491-5.591 38.341-13.959c0.102-0.059 0.226-0.094 0.357-0.094 0.26 0 0.488 0.138 0.615 0.344l0.002 0.003v0.216c1.876 8.512 3.030 27.124-5.663 35.672-10.496 10.46-19.152 5.843-23.841 4.184-0 0.058-0.001 0.127-0.001 0.196 0 2.939 0.502 5.761 1.426 8.385l-0.054-0.177c0.721 2.381-3.895 3.066-4.473 2.633-0.566-1.955-0.891-4.201-0.891-6.522 0-4.684 1.325-9.059 3.62-12.77l-0.060 0.104c6.853-9.089 23.517-17.024 24.022-23.445-5.413 4.897-11.524 9.189-18.125 12.678l-0.486 0.234c-9.847 5.482-11.614 12.335-11.903 15.113z"></path>
</svg>
