<!-- Generated by IcoMoon.io -->
<svg version="1.1" xmlns="http://www.w3.org/2000/svg" width="64" height="64" viewBox="0 0 64 64">
<path fill="#89a53d" d="M32 63.086c-17.168-0-31.085-13.918-31.085-31.086 0-8.584 3.479-16.355 9.104-21.981v0c5.637-5.699 13.459-9.229 22.104-9.229 17.168 0 31.086 13.918 31.086 31.086 0 8.646-3.529 16.467-9.226 22.102l-0.003 0.003c-5.594 5.624-13.338 9.105-21.895 9.105-0.030 0-0.060-0-0.090-0h0.005z"></path>
<path fill="#fff" d="M32 1.829c16.663 0 30.171 13.509 30.171 30.171s-13.509 30.171-30.171 30.171-30.171-13.509-30.171-30.171 13.509-30.171 30.171-30.171zM32 0c-17.671 0.009-31.992 14.336-31.992 32.008 0 13.173 7.957 24.487 19.327 29.398l0.208 0.080c3.676 1.595 7.958 2.523 12.457 2.523 17.678 0 32.009-14.331 32.009-32.009 0-13.179-7.965-24.499-19.344-29.406l-0.208-0.080c-3.658-1.59-7.919-2.514-12.395-2.514-0.022 0-0.044 0-0.065 0h0.003z"></path>
<path fill="#fff" d="M19.64 42.84c-0.031 0.313-0.293 0.555-0.612 0.555-0.124 0-0.239-0.037-0.336-0.1l0.002 0.001c-2.775-1.805-9.781-9.222-1.323-18.611 8.399-9.321 19.379-4.327 30.367-10.957 0.084-0.052 0.185-0.083 0.294-0.083 0.269 0 0.493 0.188 0.551 0.439l0.001 0.004c1.501 6.762 2.4 21.486-4.47 28.254-8.4 8.286-15.257 4.629-18.971 3.314-0.171 2.057 0.514 4.791 1.086 6.677s-3.086 2.409-3.543 2.066-2.126-9.568 2.114-15.2c5.429-7.2 18.629-13.486 19.029-18.571-2.571 2.286-5.921 5.317-14.743 10.229-7.822 4.355-9.215 9.783-9.447 11.979z"></path>
</svg>
