<!-- Generated by IcoMoon.io -->
<svg version="1.1" xmlns="http://www.w3.org/2000/svg" width="64" height="64" viewBox="0 0 64 64">
<path fill="#fa0" d="M31.998 63.447c-0.446-0.001-0.85-0.182-1.142-0.475l-29.829-29.824c-0.292-0.294-0.473-0.699-0.473-1.146s0.181-0.852 0.473-1.146l29.829-29.827c0.294-0.294 0.7-0.476 1.148-0.476s0.854 0.182 1.148 0.476l29.818 29.827c0.294 0.294 0.475 0.7 0.475 1.148s-0.182 0.854-0.475 1.148l-29.824 29.82c-0.293 0.294-0.697 0.476-1.145 0.476-0.001 0-0.002 0-0.003 0h0z"></path>
<path fill="#fff" d="M31.999 25.991l3.913 3.869h20.617l-24.529-24.256-24.529 24.256h20.618l3.912-3.869z"></path>
<path fill="#fff" d="M27.177 47.555l-2.787 3.052c-0.363-0.012-0.689-0.162-0.929-0.398l0 0c-0.318-0.234-0.538-0.584-0.596-0.987l-0.001-0.008 2.787-3.052z"></path>
<path fill="#fff" d="M24.423 51.63v0c-1.014-0.673-1.871-1.488-2.569-2.428l-0.019-0.027 0.763-0.597c0.868 0.659 1.637 1.344 2.35 2.084l0.006 0.006z"></path>
<path fill="#fff" d="M35.181 40.082l3.642-3.946 0.465-3.45-3.384 0.796-3.329 3.702 2.607 2.899z"></path>
<path fill="#fff" d="M31.276 44.315l-2.591-2.807-2.569 2.857-1.659-1.493-0.796 0.564 6.436 5.806 0.465-0.829-1.659-1.526 2.373-2.571z"></path>
<path fill="#fff" d="M38.347 46.156l2.787 3.052c-0.060 0.411-0.28 0.762-0.593 0.992l-0.004 0.003c-0.24 0.236-0.566 0.386-0.927 0.398l-0.002 0-2.787-3.047z"></path>
<path fill="#fff" d="M39.039 50.668c0.719-0.746 1.488-1.431 2.307-2.054l0.049-0.036 0.763 0.597c-0.717 0.968-1.574 1.783-2.551 2.432l-0.037 0.023z"></path>
<path fill="#fff" d="M24.711 32.686l0.465 3.45 9.92 10.75-1.659 1.526 0.465 0.829 6.437-5.806-0.796-0.564-1.659 1.493-9.787-10.882-3.384-0.796z"></path>
<path fill="#fff" d="M31.999 62.894c-0.001 0-0.002 0-0.003 0-0.295 0-0.562-0.12-0.755-0.314l-29.822-29.824c-0.194-0.194-0.314-0.461-0.314-0.757s0.12-0.563 0.314-0.757l29.822-29.822c0.193-0.193 0.46-0.313 0.755-0.313s0.562 0.12 0.755 0.313l29.827 29.822c0.194 0.194 0.314 0.461 0.314 0.757s-0.12 0.563-0.314 0.757l-29.824 29.824c-0.192 0.194-0.459 0.314-0.754 0.314-0.001 0-0.002 0-0.003 0h0zM31.999 64c0 0 0.001 0 0.001 0 0.601 0 1.145-0.244 1.538-0.638l29.822-29.824c0.394-0.394 0.637-0.938 0.637-1.538s-0.243-1.145-0.637-1.538l-29.822-29.825c-0.394-0.394-0.938-0.637-1.539-0.637s-1.145 0.243-1.54 0.637v0l-29.822 29.824c-0.394 0.394-0.637 0.938-0.637 1.538s0.243 1.145 0.637 1.538l29.822 29.825c0.393 0.394 0.937 0.638 1.538 0.638 0 0 0.001 0 0.001 0h-0z"></path>
</svg>
