<!-- Generated by IcoMoon.io -->
<svg version="1.1" xmlns="http://www.w3.org/2000/svg" width="64" height="64" viewBox="0 0 64 64">
<path fill="#fff" d="M32.179 0.192c-17.363 0.009-31.435 14.325-31.442 31.986v0.001c0.007 17.662 14.080 31.978 31.441 31.987h0.001c17.363-0.009 31.435-14.325 31.442-31.986v-0.001c-0.007-17.662-14.080-31.978-31.441-31.987h-0.001zM32.179 7.083c0.599 0.001 1.192 0.024 1.779 0.069l-0.080-0.005c12.648 0.951 22.561 11.79 22.561 25.022 0 0.624-0.022 1.242-0.065 1.854l0.005-0.082c-0.914 13.078-11.405 23.33-24.212 23.33-0.593 0-1.181-0.022-1.764-0.065l0.078 0.005c-12.648-0.952-22.561-11.791-22.561-25.022 0-0.624 0.022-1.242 0.065-1.854l-0.005 0.082c0.912-13.075 11.396-23.326 24.198-23.333h0.001z"></path>
<path fill="#fff" opacity="0.75" d="M56.391 33.939c-0.94 13.82-12.542 24.235-25.914 23.264s-23.449-12.963-22.509-26.782c0.94-13.82 12.542-24.235 25.914-23.264s23.449 12.963 22.509 26.782z"></path>
</svg>
