<!-- Generated by IcoMoon.io -->
<svg version="1.1" xmlns="http://www.w3.org/2000/svg" width="66" height="64" viewBox="0 0 66 64">
<path fill="#fff" d="M46.558 0.004c-2.697-0.179-3.954 5.394-13.662 5.394s-10.965-5.573-13.662-5.394c-2.697 0.181-19.235 13.123-19.235 13.123 2.876 10.067 10.605 15.46 10.605 15.46l2.229 30.561s2.626 4.853 20.062 4.853 20.062-4.853 20.062-4.853l2.229-30.561s7.729-5.392 10.605-15.46c0 0-16.538-12.942-19.235-13.123zM16.83 31.192c-1.016-0.231-1.168-0.813-1.168-1.14 0-0.614 0.597-0.924 1.078-1.173 0.401-0.208 0.96-0.464 1.708-0.783 1.347-0.573 3.041-1.232 4.534-1.815 1.053-0.411 1.986-0.775 2.569-1.019 0.088-0.229 0.196-0.513 0.323-0.842 0.509-1.327 1.277-3.335 1.972-4.999 0.393-0.94 0.708-1.645 0.966-2.159 0.384-0.763 0.701-1.302 1.302-1.302 0.189 0 0.647 0.067 0.863 0.691 0.295 0.852 0.344 3.453 0.112 5.798-0.228 2.293-0.809 5.27-2.284 6.428-2.011 1.58-7.393 2.454-10.346 2.454-0.679 0-1.227-0.046-1.63-0.138zM41.797 55.957c-0.289 0.059-0.675 0.090-1.147 0.090-1.124 0-5.164-1.083-5.998-1.313-1.138-0.312-2.113-0.331-3.245 0-0.834 0.244-4.875 1.313-5.998 1.313-0.473 0-0.858-0.030-1.147-0.090-0.909-0.188-1.008-0.764-1.008-1.003 0-0.598 0.563-0.891 1.016-1.128 0.382-0.199 0.89-0.434 1.476-0.704 1.141-0.529 2.564-1.185 3.473-1.793 0.328-0.218 0.902-0.596 1.524-0.974 1.375-0.837 3.101-0.842 4.483-0.016 0.643 0.385 1.276 0.77 1.607 0.99 0.912 0.606 2.332 1.263 3.474 1.789 0.588 0.273 1.097 0.507 1.481 0.708 0.452 0.236 1.016 0.53 1.016 1.128 0 0.239-0.098 0.815-1.007 1.003zM41.797 45.667c-0.289 0.059-0.675 0.090-1.147 0.090-1.124 0-5.164-1.083-5.998-1.313-1.138-0.312-2.113-0.331-3.245 0-0.834 0.244-4.875 1.313-5.998 1.313-0.473 0-0.858-0.030-1.147-0.090-0.909-0.188-1.008-0.764-1.008-1.003 0-0.598 0.563-0.891 1.016-1.128 0.382-0.199 0.89-0.434 1.476-0.704 1.141-0.529 2.564-1.185 3.473-1.793 0.328-0.218 0.902-0.596 1.524-0.974 1.375-0.837 3.101-0.842 4.483-0.016 0.643 0.385 1.276 0.77 1.607 0.99 0.912 0.606 2.332 1.263 3.474 1.789 0.588 0.273 1.097 0.507 1.481 0.708 0.452 0.236 1.016 0.53 1.016 1.128 0 0.239-0.098 0.815-1.007 1.003zM49.227 31.192c-0.402 0.092-0.95 0.138-1.629 0.138-2.952 0-8.334-0.874-10.346-2.454-1.475-1.159-2.056-4.135-2.284-6.428-0.233-2.345-0.183-4.947 0.112-5.798 0.215-0.623 0.675-0.691 0.863-0.691 0.601 0 0.919 0.539 1.302 1.302 0.257 0.514 0.573 1.219 0.965 2.159 0.696 1.665 1.464 3.672 1.973 4.999 0.127 0.329 0.235 0.613 0.323 0.842 0.581 0.244 1.514 0.608 2.569 1.019 1.493 0.583 3.187 1.242 4.534 1.815 0.749 0.319 1.307 0.575 1.708 0.783 0.48 0.249 1.078 0.559 1.078 1.173 0 0.327-0.152 0.909-1.169 1.14z"></path>
</svg>
