<!-- Generated by IcoMoon.io -->
<svg version="1.1" xmlns="http://www.w3.org/2000/svg" width="62" height="64" viewBox="0 0 62 64">
<path fill="#fff" d="M61.291 32.449c-0.489 0.654-2.187 4.776-4.146 5.755-1.961 0.98-12.736 8.981-14.695 9.796-1.959 0.816-8.326 0.982-9.142 1.961s-15.021 14.039-15.021 14.039c0 0-4.231-2.402-8.823-7.121l6.332-8.191c0.159-0.204-0.044-0.487-0.289-0.405l-0.427 0.146-9.874 3.399c-2.033-2.811-3.892-6.105-5.206-9.87 0 0 16.49-9.796 17.144-11.755s0.815-7.017 0.815-7.017c0 0-1.141-5.718 0.654-8.656s6.858-6.039 6.858-6.039l2.21 0.69 4.708 1.84s-5.45 3.306-5.695 3.551c-0.245 0.245 0.552 2.554 1.549 2.591 0.49 0.018 5.17-2.7 6.402-3.453 5.788 7.646 6.132 12.74 6.132 13.72s-2.244 2.237-6.613 3.183c-3.337 0.723-8.104-8.438-8.104-8.438s-3.030 0.983-2.356 2.333c3.536 7.079 6.848 9.143 8.379 9.818 1.53 0.673 12.29-2.336 12.328-5.647 0.084-7.2-7.524-18.25-8.748-19.23-0.877-0.701-3.771-1.922-5.278-2.436 0.831-0.833 0.849-0.858 2.119-2.082 0.636-0.613 1.286-1.23 1.912-1.81 1.605-1.49 3.043-2.724 3.626-2.957 1.634-0.654 6.533 0.816 7.676 1.633 1.141 0.816 1.469 7.020 1.469 7.020s3.1-1.144 3.918-0.654c0.816 0.49 4.692 3.471 4.857 4.45 0.162 0.98-0.613 5.675-0.613 5.675s1.623 0.202 2.284 0.715c0.89 0.688 2.246 3.693 2.41 4.509 0.165 0.818-1.59 4.572-1.59 4.572s2.218 1.155 2.612 1.592c0.775 0.856 0.718 2.12 0.226 2.774z"></path>
</svg>
