<!-- Generated by IcoMoon.io -->
<svg version="1.1" xmlns="http://www.w3.org/2000/svg" width="59" height="64" viewBox="0 0 59 64">
<path fill="#fff" d="M50.758 22.442c1.973-2.698 4.791-6.682 3.969-11.006-0.192-1.011-0.985-1.816-2.001-1.988-2.55-0.436-5.88 1.636-8.399 0.024 1.75-4.471-0.392-11.202-4.67-9.062-4.278 2.138-9.722 9.138-11.472 9.333-0.875 0.097-4.547-0.438-8.166-2.333-3.624-1.898-7.193-5.154-9.528-2.528-3.049 3.43-2.234 9.604 3.989 16.799-4.666-0.39-12.229-0.247-14.011 3.062-1.181 2.193-0.057 7.392 2.437 9.305 4.179-4.159 7.82-6.416 11.903-5.443-0.853 3.943-3.086 6.172-4.694 9.23-2.436 4.638-7.107 17.494 5.624 24.213 7.357 3.883 14.194 0.778 20.61 0.778s13.151 3.994 19.055-2.916c6.168-7.219 3.204-23.312-4.644-33.877-0.791-1.064-0.788-2.519-0.005-3.589zM46.751 26.325c-5.746 0.509-10.255 3.084-16.232 3.055-3.932-0.019-12.873-1.1-12.873-1.1s-0.829-2.847 0.282-5.468c1.453-0.074 5.814 0.565 8.703 1.123 7.094 1.371 13.541-1.626 19.665-0.495 0.626 1.395 0.626 2.224 0.455 2.884z"></path>
</svg>
