<!-- Generated by IcoMoon.io -->
<svg version="1.1" xmlns="http://www.w3.org/2000/svg" width="101" height="64" viewBox="0 0 101 64">
<path d="M2.479 23.662l-2.479-15.099c0.458-0.565 1.152-0.923 1.929-0.923 0.114 0 0.227 0.008 0.337 0.023l-0.013-0.001 90.141-7.662h1.803v15.775c0 2.704-2.93 3.831-4.282 4.056l-40.338 11.493-42.366-4.282s-4.282 0-4.732-3.38z"></path>
<path d="M98.028 22.535l2.479 30.873c0.005 0.075 0.008 0.163 0.008 0.251 0 1.96-1.472 3.576-3.37 3.804l-0.018 0.002-90.141 7.662c-0.075 0.005-0.163 0.008-0.251 0.008-1.96 0-3.576-1.472-3.804-3.37l-0.002-0.018-2.93-31.775c1.742 1.321 3.92 2.152 6.287 2.253l0.023 0.001 43.268 4.507 42.141-11.718c2.408-0.215 4.572-1.114 6.336-2.498l-0.026 0.020z"></path>
</svg>
