<!-- Generated by IcoMoon.io -->
<svg version="1.1" xmlns="http://www.w3.org/2000/svg" width="85" height="64" viewBox="0 0 85 64">
<path fill="#000" d="M53.989 10.279l24.358 9.341-14.659 38.19-24.358-9.363 14.659-38.168zM52.536 4.067c-1.246 0.010-2.309 0.786-2.742 1.879l-0.007 0.020-16.469 42.883c-0.121 0.311-0.192 0.67-0.192 1.046 0 1.248 0.775 2.315 1.87 2.746l0.020 0.007 29.050 11.173c0.318 0.126 0.686 0.199 1.072 0.201h0.001c0.002 0 0.005 0 0.008 0 1.247 0 2.313-0.78 2.734-1.879l0.007-0.020 16.469-42.883c0.124-0.315 0.196-0.679 0.196-1.060 0-1.245-0.766-2.311-1.852-2.754l-0.020-0.007-29.050-11.173c-0.318-0.126-0.687-0.199-1.072-0.201h-0.001z"></path>
<path fill="#000" d="M37.989 51.642l-30.905 2.637c-0.077 0.007-0.167 0.011-0.257 0.011-1.539 0-2.802-1.178-2.938-2.681l-0.001-0.011-3.888-45.765c-0.007-0.076-0.011-0.165-0.011-0.255 0-1.546 1.19-2.815 2.704-2.94l0.011-0.001 30.994-2.637c0.076-0.007 0.165-0.011 0.255-0.011 1.546 0 2.815 1.19 2.94 2.704l0.001 0.011 3.888 45.743c0.007 0.075 0.011 0.162 0.011 0.249 0 1.578-1.239 2.866-2.797 2.946l-0.007 0z"></path>
<path fill="#e26969" d="M62.57 26.369l-4.76 1.877c-2.61-5.708-6.199-10.541-10.597-14.489l-0.040-0.036c-3.903-3.586-8.926-6.010-14.488-6.691l-0.127-0.013c-0.677-0.104-1.457-0.163-2.251-0.163-5.277 0-9.944 2.613-12.777 6.617l-0.033 0.049c-1.156 1.872-1.841 4.142-1.841 6.571 0 1.389 0.224 2.726 0.638 3.976l-0.026-0.089c-0.682 0.854-1.095 1.949-1.095 3.14 0 0.012 0 0.023 0 0.035v-0.002c0 0.006-0 0.013-0 0.019 0 2.888 2.341 5.229 5.229 5.229s5.229-2.341 5.229-5.229c0-2.707-2.057-4.933-4.693-5.202l-0.022-0.002c-0.151-0.565-0.238-1.214-0.238-1.883 0-1.443 0.405-2.791 1.106-3.938l-0.019 0.033c1.983-2.59 5.077-4.243 8.556-4.243 0.64 0 1.267 0.056 1.877 0.163l-0.065-0.009c8.179 0.76 15.844 7.397 21.028 17.989l-5.006 1.966c-0.092 0.056-0.152 0.155-0.152 0.268s0.060 0.212 0.15 0.267l0.001 0.001 12.179 9.698c0.053 0.036 0.118 0.057 0.188 0.057 0.158 0 0.29-0.109 0.326-0.256l0-0.002 2.235-15.374c0.003-0.017 0.005-0.035 0.005-0.055 0-0.173-0.14-0.313-0.313-0.313-0.051 0-0.098 0.012-0.141 0.033l0.002-0.001z"></path>
</svg>
