<!-- Generated by IcoMoon.io -->
<svg version="1.1" xmlns="http://www.w3.org/2000/svg" width="85" height="64" viewBox="0 0 85 64">
<path fill="#000" d="M64.066 63.802l-29.046-10.991c-1.123-0.452-1.9-1.532-1.9-2.794 0-0.372 0.068-0.727 0.191-1.056l-0.007 0.021 16.503-42.909c0.447-1.111 1.515-1.881 2.764-1.881 0.383 0 0.749 0.072 1.085 0.205l-0.020-0.007 28.881 11.024c1.13 0.426 1.919 1.499 1.919 2.756 0 0.386-0.075 0.755-0.21 1.093l0.007-0.020-16.503 42.909c-0.442 1.12-1.515 1.899-2.771 1.899-0.368 0-0.72-0.067-1.046-0.189l0.020 0.007z"></path>
<path fill="#000" d="M31.653 5.677l3.466 40.73-26.009 2.211-3.301-40.73 25.976-2.211zM33.964 0h-0.264l-30.993 2.641c-1.532 0.13-2.726 1.406-2.726 2.961 0 0.12 0.007 0.238 0.021 0.354l-0.001-0.014 3.895 45.648c0.139 1.516 1.399 2.695 2.936 2.707h0.265l30.993-2.641c1.516-0.128 2.697-1.39 2.697-2.928 0-0.132-0.009-0.261-0.025-0.388l0.002 0.015-3.862-45.648c-0.123-1.52-1.387-2.707-2.928-2.707-0.003 0-0.006 0-0.010 0h0.001z"></path>
<path fill="#e26969" d="M62.713 26.405l-4.753 1.848c-2.625-5.688-6.207-10.506-10.589-14.455l-0.039-0.035c-3.921-3.539-8.944-5.926-14.497-6.589l-0.125-0.012c-0.732-0.12-1.576-0.189-2.436-0.189-5.238 0-9.88 2.553-12.749 6.482l-0.031 0.045c-1.16 1.886-1.847 4.171-1.847 6.617 0 1.374 0.217 2.697 0.618 3.937l-0.025-0.090c-0.66 0.872-1.058 1.975-1.058 3.171 0 0.046 0.001 0.091 0.002 0.137l-0-0.007c0.070 2.825 2.378 5.089 5.214 5.089 2.88 0 5.215-2.335 5.215-5.215 0-2.694-2.042-4.91-4.663-5.186l-0.023-0.002c-0.154-0.571-0.243-1.226-0.243-1.902 0-1.43 0.397-2.768 1.087-3.908l-0.019 0.034c1.998-2.591 5.104-4.244 8.595-4.244 0.637 0 1.26 0.055 1.866 0.16l-0.065-0.009c8.153 0.759 15.81 7.393 20.992 17.989l-4.984 1.98c-0.096 0.050-0.161 0.15-0.161 0.264s0.065 0.214 0.159 0.263l0.002 0.001 12.146 9.671c0.056 0.044 0.127 0.070 0.204 0.070 0.16 0 0.294-0.115 0.324-0.266l0-0.002 2.31-15.348c0.001-0.010 0.002-0.021 0.002-0.032 0-0.164-0.133-0.297-0.297-0.297-0.049 0-0.095 0.012-0.135 0.033l0.002-0.001z"></path>
</svg>
