<!-- Generated by IcoMoon.io -->
<svg version="1.1" xmlns="http://www.w3.org/2000/svg" width="52" height="64" viewBox="0 0 52 64">
<path fill="#fff" d="M51.482 64c0.456-2.477 0.716-5.327 0.716-8.238 0-4.932-0.748-9.689-2.137-14.164l0.090 0.338c-8.215-19.012-43.892-24.020-47.491-41.936-1.775 2.951-2.825 6.514-2.825 10.321 0 3.528 0.902 6.846 2.487 9.735l-0.053-0.105c3.597 5.016 9.169 8.418 15.556 9.068l0.092 0.008c-1.25 0.277-2.687 0.435-4.16 0.435-5.327 0-10.17-2.071-13.767-5.452l0.011 0.010c0 6.024 6.259 19.012 28.088 20.421-2.245 0.82-4.836 1.294-7.538 1.294-4.041 0-7.834-1.060-11.117-2.917l0.113 0.059c2.946 5.527 8.44 9.357 14.872 9.931l0.072 0.005c6.796 0.324 13.179 1.674 19.135 3.898l-0.436-0.143c3.349 2.002 6.123 4.625 8.236 7.734l0.058 0.090z"></path>
</svg>
