<!-- Generated by IcoMoon.io -->
<svg version="1.1" xmlns="http://www.w3.org/2000/svg" width="56" height="64" viewBox="0 0 56 64">
<path fill="#f2f2f2" d="M0.911 16.456v31.089l26.932 15.544 26.932-15.544v-31.089l-26.932-15.544z"></path>
<path fill="#231f20" d="M27.843 64c-0.067 0.027-0.146 0.043-0.228 0.043s-0.16-0.016-0.232-0.044l0.004 0.002-26.932-15.715c-0.272-0.131-0.456-0.404-0.456-0.72 0-0.007 0-0.014 0-0.021v0.001-31.089c0-0.002-0-0.005-0-0.008 0-0.335 0.181-0.629 0.451-0.787l0.004-0.002 26.932-15.715c0.146-0.12 0.335-0.193 0.541-0.193s0.395 0.073 0.542 0.194l-0.002-0.001 26.762 15.715c0.274 0.16 0.456 0.454 0.456 0.789 0 0.003 0 0.006-0 0.009v-0 31.089c0 0.006 0 0.013 0 0.020 0 0.316-0.184 0.589-0.451 0.718l-0.005 0.002-26.762 15.544h-0.456zM1.936 46.747l26.078 15.032 25.851-14.747v-30.007l-26.021-15.089-26.078 15.089z"></path>
<path fill="#009cd4" d="M6.434 19.644l21.409-12.356 21.352 12.356v24.712l-21.352 12.356-21.409-12.356z"></path>
<path fill="#fff" opacity="0.5" d="M27.847 14.702l-15.002 8.641v17.304l15.002 8.652 15.002-8.652v-17.304zM27.847 16.737l13.234 7.629v15.269l-13.234 7.629-13.245-7.629v-15.269z"></path>
</svg>
