<!-- Generated by IcoMoon.io -->
<svg version="1.1" xmlns="http://www.w3.org/2000/svg" width="56" height="64" viewBox="0 0 56 64">
<path fill="#f2f2f3" d="M54.769 43.391v4.193l-3.629 2.096-1.443-2.367c-0.052-0.096-0.083-0.209-0.083-0.33 0-0.25 0.131-0.469 0.328-0.592l0.003-0.002 1.33-0.766v-1.533c-0-0.007-0-0.015-0-0.023 0-0.373 0.303-0.676 0.676-0.676 0 0 0 0 0 0v0z"></path>
<path fill="#f2f2f3" d="M37.771 53.445l-5.005 2.886c-0.208 0.112-0.347 0.329-0.347 0.578 0 0.129 0.037 0.248 0.101 0.349l-0.002-0.003 1.398 2.412 6.177-3.562-1.375-2.412c-0.125-0.2-0.344-0.331-0.594-0.331-0.121 0-0.235 0.031-0.334 0.085l0.004-0.002zM46.405 48.463l-5.005 2.908c-0.203 0.114-0.337 0.327-0.337 0.572 0 0.121 0.033 0.235 0.091 0.333l-0.002-0.003 1.353 2.39 6.177-3.562-1.375-2.412c-0.125-0.2-0.344-0.331-0.594-0.331-0.121 0-0.235 0.031-0.334 0.085l0.004-0.002z"></path>
<path fill="#f2f2f3" d="M31.459 61.065l-3.629 2.096-3.629-2.096 1.375-2.412c0.125-0.2 0.344-0.331 0.594-0.331 0.121 0 0.235 0.031 0.334 0.085l-0.004-0.002 1.33 0.789 1.33-0.789c0.096-0.052 0.209-0.083 0.33-0.083 0.25 0 0.469 0.131 0.592 0.328l0.002 0.003z"></path>
<path fill="#f2f2f3" d="M16.964 53.693l-1.375 2.412 6.177 3.562 1.375-2.412c0.057-0.097 0.091-0.214 0.091-0.338 0-0.249-0.135-0.467-0.335-0.584l-0.003-0.002-5.005-2.886c-0.096-0.052-0.209-0.083-0.33-0.083-0.25 0-0.469 0.131-0.592 0.328l-0.002 0.003zM8.352 48.711l-1.375 2.412 6.177 3.539 1.375-2.412c0.056-0.094 0.089-0.208 0.089-0.33 0-0.245-0.135-0.458-0.334-0.57l-0.003-0.002-5.005-2.886c-0.095-0.052-0.209-0.083-0.33-0.083-0.25 0-0.469 0.131-0.592 0.328l-0.002 0.003z"></path>
<path fill="#f2f2f3" d="M5.918 47.314l-1.308 2.39-3.629-2.096v-4.216h2.705c0.364 0.013 0.654 0.31 0.654 0.676 0 0 0 0 0 0v0 1.578l1.33 0.766c0.2 0.125 0.331 0.344 0.331 0.594 0 0.121-0.031 0.235-0.085 0.334l0.002-0.004z"></path>
<path fill="#f2f2f3" d="M0.89 33.472v7.124h2.773c0.007 0 0.015 0 0.023 0 0.361 0 0.654-0.293 0.654-0.654 0-0 0-0 0-0v0-5.794c0-0.007 0-0.015 0-0.023 0-0.361-0.293-0.654-0.654-0.654-0.008 0-0.016 0-0.024 0l0.001-0zM0.89 23.531v7.124h2.773c0.007 0 0.015 0 0.023 0 0.361 0 0.654-0.293 0.654-0.654 0-0.008-0-0.016-0-0.024l0 0.001v-5.771c0-0.007 0-0.015 0-0.023 0-0.361-0.293-0.654-0.654-0.654-0.008 0-0.016 0-0.024 0l0.001-0z"></path>
<path fill="#f2f2f3" d="M5.67 17.737l-1.33 0.857v1.533c0 0.007 0 0.015 0 0.023 0 0.361-0.293 0.654-0.654 0.654-0 0-0 0-0 0h-2.795v-4.283l3.72-2.096 1.398 2.39c0.057 0.097 0.091 0.214 0.091 0.338 0 0.249-0.135 0.467-0.335 0.584l-0.003 0.002z"></path>
<path fill="#f2f2f3" d="M13.154 9.441l-6.177 3.562 1.375 2.412c0.125 0.2 0.344 0.331 0.594 0.331 0.121 0 0.235-0.031 0.334-0.085l-0.004 0.002 5.005-2.908c0.208-0.112 0.348-0.329 0.348-0.578 0-0.129-0.037-0.248-0.101-0.349l0.002 0.003zM21.765 4.482l-6.177 3.562 1.375 2.39c0.112 0.208 0.329 0.348 0.578 0.348 0.128 0 0.248-0.037 0.349-0.101l-0.003 0.002 5.005-2.886c0.204-0.119 0.339-0.337 0.339-0.586 0-0.125-0.034-0.241-0.092-0.341l0.002 0.003z"></path>
<path fill="#f2f2f3" d="M31.459 3.061l-1.375 2.412c-0.125 0.2-0.344 0.331-0.594 0.331-0.121 0-0.235-0.031-0.334-0.085l-1.326-0.652-1.33 0.766c-0.096 0.052-0.209 0.083-0.33 0.083-0.25 0-0.469-0.131-0.592-0.328l-0.002-0.003-1.375-2.412 3.629-2.096z"></path>
<path fill="#f2f2f3" d="M42.505 9.441l-1.375 2.39c-0.056 0.094-0.089 0.208-0.089 0.33 0 0.245 0.135 0.458 0.334 0.57l0.003 0.002 5.005 2.931c0.096 0.052 0.209 0.083 0.33 0.083 0.25 0 0.469-0.131 0.592-0.328l0.002-0.003 1.375-2.412zM33.916 4.482l-1.398 2.39c-0.057 0.097-0.091 0.214-0.091 0.338 0 0.249 0.135 0.467 0.335 0.584l0.003 0.002 5.005 2.885c0.098 0.062 0.218 0.1 0.347 0.1 0.249 0 0.465-0.139 0.576-0.344l0.002-0.004 1.375-2.39z"></path>
<path fill="#f2f2f3" d="M54.769 16.52v4.193h-2.818c-0 0-0 0-0 0-0.361 0-0.654-0.293-0.654-0.654 0-0.008 0-0.016 0-0.024l-0 0.001v-1.443l-1.33-0.766c-0.237-0.108-0.4-0.344-0.4-0.617 0-0.149 0.048-0.287 0.13-0.399l-0.001 0.002 1.398-2.39z"></path>
<path fill="#f2f2f3" d="M51.319 34.148v5.794c0 0.373 0.303 0.676 0.676 0.676v0h2.773v-7.146h-2.818c-0.007-0-0.015-0-0.023-0-0.361 0-0.654 0.293-0.654 0.654 0 0.008 0 0.016 0 0.024l-0-0.001zM51.274 24.207v5.771c-0 0.007-0 0.015-0 0.023 0 0.361 0.293 0.654 0.654 0.654 0.008 0 0.016-0 0.024-0l-0.001 0h2.773v-7.124h-2.773c-0.007-0-0.015-0-0.023-0-0.361 0-0.654 0.293-0.654 0.654 0 0.008 0 0.016 0 0.024l-0-0.001z"></path>
<path fill="#000" d="M27.384 0.195l-26.915 15.529c-0.268 0.157-0.445 0.443-0.445 0.771v0 31.111c0 0.328 0.177 0.614 0.441 0.768l0.004 0.002 26.915 15.556c0.128 0.075 0.281 0.119 0.445 0.119s0.317-0.044 0.449-0.121l-0.004 0.002 26.942-15.556c0.268-0.157 0.445-0.443 0.445-0.77v0-31.111c-0.001-0.328-0.18-0.615-0.445-0.768l-0.004-0.002-26.937-15.529c-0.128-0.075-0.281-0.119-0.445-0.119s-0.317 0.044-0.449 0.121l0.004-0.002zM27.829 1.992l26.048 15.019v30.081l-26.048 15.045-26.026-15.045v-30.081z"></path>
</svg>
