<!-- Generated by IcoMoon.io -->
<svg version="1.1" xmlns="http://www.w3.org/2000/svg" width="56" height="64" viewBox="0 0 56 64">
<path fill="#f2f2f2" d="M27.846 63.083l26.929-15.527v-31.112l-26.929-15.585-26.929 15.585v31.112z"></path>
<path fill="#231f20" d="M27.775 0.034c-0.137 0.011-0.263 0.051-0.374 0.114l0.004-0.002-26.936 15.533c-0.262 0.157-0.435 0.438-0.436 0.761v31.121c0.001 0.322 0.174 0.604 0.432 0.759l0.004 0.002 26.936 15.533c0.127 0.074 0.279 0.118 0.442 0.118s0.315-0.044 0.446-0.12l-0.004 0.002 26.925-15.533c0.266-0.154 0.444-0.437 0.448-0.76v-31.122c-0.004-0.325-0.181-0.607-0.443-0.759l-0.004-0.002-26.925-15.533c-0.126-0.072-0.277-0.115-0.438-0.115-0.027 0-0.054 0.001-0.081 0.004l0.003-0zM27.842 1.947l26.041 15.007v30.092l-26.041 15.018-26.041-15.018v-30.092z"></path>
<path fill="#5c5c5c" d="M6.417 44.347v-24.695l21.429-12.376 21.372 12.376v24.695l-21.372 12.319z"></path>
</svg>
