<!-- Generated by IcoMoon.io -->
<svg version="1.1" xmlns="http://www.w3.org/2000/svg" width="66" height="64" viewBox="0 0 66 64">
<path fill="#fff" d="M58.66 38.565l-5.483 4.040-4.256-2.669 7.214-5.014c0.264-0.185 0.434-0.487 0.434-0.83 0-0.558-0.453-1.011-1.011-1.011-0.216 0-0.416 0.068-0.581 0.183l0.003-0.002-7.863 5.519-6.853-4.004v-5.735l6.601-4.040 7.863 5.518c0.149 0.113 0.337 0.181 0.542 0.181 0.012 0 0.024-0 0.036-0.001l-0.002 0c0.006 0 0.013 0 0.020 0 0.336 0 0.633-0.17 0.808-0.43l0.002-0.003c0.113-0.161 0.181-0.361 0.181-0.577 0-0.342-0.17-0.644-0.43-0.827l-0.003-0.002-6.961-5.086 4.437-2.669 5.302 4.148c0.175 0.109 0.386 0.175 0.612 0.18h0.001c0.429-0.123 0.738-0.512 0.738-0.973 0-0.265-0.102-0.507-0.27-0.687l0.001 0.001-4.689-3.607 4.22-2.561c0.363-0.158 0.612-0.514 0.612-0.928 0-0.558-0.452-1.010-1.010-1.010-0.231 0-0.445 0.078-0.615 0.209l0.002-0.002-4.328 2.381-0.649-5.951c-0.056-0.512-0.487-0.908-1.010-0.908-0.561 0-1.016 0.455-1.016 1.016 0 0.038 0.002 0.076 0.006 0.113l-0-0.005 0.758 6.781-4.545 2.453-0.758-8.801c0-0.558-0.452-1.010-1.010-1.010s-1.010 0.452-1.010 1.010v0l0.866 9.558-6.817 3.607-4.941-2.344-0.18-7.935 8.729-4.076c0.411-0.134 0.703-0.514 0.703-0.962 0-0.558-0.452-1.010-1.010-1.010-0.208 0-0.402 0.063-0.562 0.171l0.004-0.002-7.899 3.607v-5.158l6.132-2.669c0.353-0.163 0.593-0.513 0.593-0.92 0-0.15-0.033-0.293-0.092-0.421l0.003 0.006c-0.156-0.37-0.515-0.624-0.933-0.624-0.145 0-0.283 0.031-0.408 0.086l0.006-0.003-5.446 2.417v-4.941c0-0.558-0.452-1.010-1.010-1.010-0 0-0 0-0 0v0c-0.011-0-0.024-0.001-0.037-0.001-0.538 0-0.974 0.436-0.974 0.974 0 0.013 0 0.026 0.001 0.039l-0-0.002v4.941l-5.482-2.417c-0.122-0.055-0.265-0.088-0.415-0.088-0.566 0-1.026 0.459-1.026 1.026 0 0.416 0.248 0.774 0.604 0.935l0.006 0.003 6.24 2.741v5.158l-7.899-3.607c-0.129-0.068-0.283-0.108-0.445-0.108-0.394 0-0.733 0.234-0.887 0.571l-0.003 0.006c-0.056 0.122-0.089 0.264-0.089 0.415 0 0.407 0.241 0.757 0.587 0.917l0.006 0.003 8.26 4.004v7.935l-4.941 2.849-6.781-3.607 0.902-9.847c0-0.558-0.452-1.010-1.010-1.010s-1.010 0.452-1.010 1.010v0l-0.758 8.656-4.509-2.453 0.721-6.781c0.007-0.045 0.011-0.096 0.011-0.149 0-0.504-0.383-0.918-0.873-0.969l-0.004-0c-0.044-0.007-0.094-0.011-0.146-0.011-0.516 0-0.939 0.402-0.972 0.91l-0 0.003-0.649 5.951-4.509-2.561c-0.117-0.052-0.254-0.082-0.398-0.082-0.558 0-1.010 0.452-1.010 1.010 0 0.326 0.155 0.616 0.395 0.801l0.002 0.002 4.256 2.669-4.833 3.607c-0.252 0.193-0.413 0.494-0.413 0.833 0 0.229 0.074 0.441 0.198 0.613l-0.002-0.003c0.185 0.24 0.471 0.394 0.793 0.397h0c0.228-0.005 0.439-0.072 0.619-0.183l-0.005 0.003 5.519-4.040 4.4 2.381-7.214 4.977c-0.263 0.185-0.434 0.487-0.434 0.829 0 0.216 0.068 0.416 0.183 0.581l-0.002-0.003c0.177 0.263 0.474 0.433 0.81 0.433 0.007 0 0.014-0 0.021-0h-0.001c0.010 0 0.023 0.001 0.035 0.001 0.204 0 0.393-0.068 0.544-0.183l-0.002 0.002 7.863-5.518 6.601 4.004v5.699l-6.637 4.040-7.827-5.519c-0.161-0.113-0.361-0.181-0.577-0.181-0.558 0-1.011 0.453-1.011 1.011 0 0.342 0.17 0.644 0.43 0.827l0.003 0.002 7.214 4.977-4.4 2.705-5.519-3.895c-0.164-0.121-0.371-0.193-0.594-0.193-0.332 0-0.626 0.16-0.81 0.407l-0.002 0.003c-0.121 0.164-0.193 0.371-0.193 0.594 0 0.332 0.16 0.627 0.407 0.811l0.003 0.002 4.797 3.607-4.22 2.561c-0.3 0.187-0.497 0.516-0.497 0.891 0 0.19 0.051 0.368 0.139 0.521l-0.003-0.005c0.176 0.301 0.497 0.502 0.865 0.505h0c0.076 0.017 0.163 0.027 0.252 0.027s0.176-0.010 0.26-0.029l-0.008 0.002 4.364-2.381 0.649 5.951c0.039 0.506 0.459 0.902 0.971 0.902 0.001 0 0.002 0 0.002 0h-0c0.495-0.070 0.873-0.491 0.873-1.001 0-0.041-0.002-0.082-0.007-0.122l0.001 0.005-0.721-6.781 4.509-2.489 0.758 8.693c0.056 0.509 0.484 0.902 1.004 0.902 0.002 0 0.004 0 0.006 0h-0c0.527-0.037 0.941-0.474 0.941-1.008 0-0.026-0.001-0.052-0.003-0.078l0 0.003-0.83-9.594 6.745-3.607 4.978 2.849 0.289 7.43-8.693 4.076c-0.353 0.163-0.593 0.513-0.593 0.92 0 0.15 0.033 0.293 0.092 0.421l-0.003-0.006c0.176 0.345 0.528 0.577 0.935 0.577 0.001 0 0.002 0 0.003 0h0.396l7.899-3.607v5.122l-6.24 2.741c-0.348 0.175-0.583 0.529-0.583 0.938 0 0.143 0.029 0.279 0.081 0.404l-0.003-0.007c0.147 0.363 0.497 0.614 0.905 0.614 0.012 0 0.023-0 0.035-0.001l-0.002 0h0.397l5.482-2.417v4.941c-0 0.011-0.001 0.024-0.001 0.037 0 0.538 0.436 0.974 0.974 0.974 0.013 0 0.026-0 0.039-0.001l-0.002 0c0 0 0 0 0 0 0.558 0 1.010-0.452 1.010-1.010v0-4.942l5.446 2.417h0.434c0.007 0 0.015 0 0.023 0 0.401 0 0.744-0.252 0.878-0.607l0.002-0.006c0.056-0.122 0.089-0.264 0.089-0.415 0-0.407-0.241-0.757-0.587-0.917l-0.006-0.003-6.24-2.741v-5.158l7.899 3.607c0.065 0.015 0.139 0.024 0.216 0.024s0.151-0.009 0.223-0.026l-0.007 0.001c0.397-0.004 0.738-0.236 0.9-0.571l0.003-0.006c0.068-0.129 0.108-0.283 0.108-0.445 0-0.394-0.234-0.733-0.571-0.887l-0.006-0.002-8.188-4.040 0.18-7.719 4.941-2.849 6.817 3.607-0.866 9.558c-0.002 0.022-0.003 0.048-0.003 0.074 0 0.533 0.413 0.97 0.937 1.007l0.003 0c0.012 0.001 0.025 0.001 0.039 0.001 0.513 0 0.933-0.396 0.971-0.899l0-0.003 0.758-8.693 4.545 2.489-0.758 6.781c-0.004 0.034-0.006 0.073-0.006 0.113 0 0.522 0.396 0.951 0.903 1.004l0.004 0c0.516-0.013 0.938-0.398 1.010-0.896l0.001-0.006 0.649-5.951 4.328 2.381c0.076 0.017 0.163 0.027 0.253 0.027s0.177-0.010 0.261-0.029l-0.008 0.002c0.004 0 0.008 0 0.012 0 0.366 0 0.685-0.202 0.851-0.5l0.003-0.005c0.086-0.148 0.136-0.326 0.136-0.516 0-0.375-0.197-0.703-0.493-0.888l-0.004-0.003-4.22-2.561 4.797-3.607c0.258-0.178 0.425-0.472 0.425-0.805 0-0.228-0.078-0.438-0.21-0.604l0.002 0.002c-0.186-0.25-0.48-0.41-0.812-0.41-0.223 0-0.43 0.073-0.597 0.195l0.003-0.002zM32.331 38.204l-5.446-3.174v-6.276l5.446-3.138 5.446 3.138v6.276z"></path>
</svg>
