<!-- Generated by IcoMoon.io -->
<svg version="1.1" xmlns="http://www.w3.org/2000/svg" width="64" height="64" viewBox="0 0 64 64">
<path fill="#1ac2ec" d="M32 63.086c-17.168-0-31.085-13.918-31.085-31.086 0-8.584 3.479-16.355 9.104-21.981v0c5.637-5.699 13.459-9.229 22.104-9.229 17.168 0 31.086 13.918 31.086 31.086 0 8.646-3.529 16.467-9.226 22.102l-0.003 0.003c-5.594 5.624-13.338 9.105-21.895 9.105-0.030 0-0.060-0-0.090-0h0.005z"></path>
<path fill="#fff" d="M32 1.829c16.663 0 30.171 13.509 30.171 30.171s-13.509 30.171-30.171 30.171-30.171-13.509-30.171-30.171 13.509-30.171 30.171-30.171zM32 0c-17.671 0.009-31.992 14.336-31.992 32.008 0 13.173 7.957 24.487 19.327 29.398l0.208 0.080c3.676 1.595 7.958 2.523 12.457 2.523 17.678 0 32.009-14.331 32.009-32.009 0-13.179-7.965-24.499-19.344-29.406l-0.208-0.080c-3.658-1.59-7.919-2.514-12.395-2.514-0.022 0-0.044 0-0.065 0h0.003z"></path>
<path fill="#fff" d="M52.875 37.285l-4.359 3.2-3.488-2.118 5.651-3.967c0.23-0.143 0.381-0.395 0.381-0.682 0-0.442-0.358-0.8-0.8-0.8-0.188 0-0.361 0.065-0.497 0.173l0.002-0.001-6.235 4.367-5.618-3.4v-4.098l5.615-3.402 6.235 4.368c0.134 0.104 0.304 0.166 0.488 0.166 0.442 0 0.8-0.358 0.8-0.8 0-0.284-0.148-0.533-0.371-0.675l-0.003-0.002-5.648-3.962 3.494-2.118 4.359 3.2c0.131 0.097 0.295 0.155 0.474 0.155 0.442 0 0.801-0.359 0.801-0.801 0-0.264-0.128-0.498-0.325-0.644l-0.002-0.002-3.824-2.806 3.352-2.031c0.241-0.141 0.4-0.398 0.4-0.693 0-0.442-0.358-0.8-0.8-0.8-0.147 0-0.285 0.040-0.404 0.109l0.004-0.002-3.435 1.882-0.518-4.709c-0.046-0.404-0.386-0.714-0.798-0.714-0.444 0-0.803 0.36-0.803 0.803 0 0.031 0.002 0.062 0.005 0.093l-0-0.004 0.591 5.365-3.582 1.961-0.602-6.869c-0.026-0.421-0.373-0.753-0.799-0.753-0.442 0-0.8 0.358-0.8 0.8 0 0.033 0.002 0.065 0.006 0.097l-0-0.004 0.663 7.565-5.779 3.165-3.506-2.024-0.145-6.597 6.889-3.211c0.281-0.128 0.472-0.407 0.472-0.73 0-0.442-0.358-0.8-0.8-0.8-0.126 0-0.246 0.029-0.352 0.082l0.005-0.002-6.251 2.914-0.090-4.083 4.944-2.171c0.284-0.127 0.478-0.407 0.478-0.733 0-0.442-0.358-0.8-0.8-0.8-0.116 0-0.227 0.025-0.327 0.070l0.005-0.002-4.343 1.907-0.082-3.919c0-0.442-0.358-0.8-0.8-0.8s-0.8 0.358-0.8 0.8v0l-0.086 3.918-4.343-1.907c-0.095-0.043-0.205-0.068-0.322-0.068-0.442 0-0.8 0.358-0.8 0.8 0 0.325 0.194 0.606 0.473 0.731l0.005 0.002 4.945 2.171-0.088 4.083-6.255-2.915c-0.102-0.050-0.221-0.079-0.348-0.079-0.442 0-0.8 0.358-0.8 0.8 0 0.323 0.191 0.601 0.467 0.728l0.005 0.002 6.891 3.213-0.143 6.592-3.506 2.029-5.781-3.165 0.663-7.563c0.003-0.028 0.005-0.060 0.005-0.093 0-0.442-0.358-0.8-0.8-0.8-0.425 0-0.773 0.332-0.799 0.75l-0 0.002-0.602 6.865-3.581-1.961 0.589-5.361c0.005-0.033 0.008-0.072 0.008-0.111 0-0.442-0.358-0.8-0.8-0.8-0.419 0-0.763 0.323-0.797 0.733l-0 0.003-0.518 4.707-3.435-1.881c-0.115-0.067-0.253-0.107-0.4-0.107-0.442 0-0.8 0.358-0.8 0.8 0 0.295 0.159 0.552 0.396 0.691l0.004 0.002 3.352 2.031-3.824 2.802c-0.199 0.147-0.327 0.381-0.327 0.645 0 0.442 0.358 0.8 0.8 0.8 0.178 0 0.343-0.058 0.476-0.157l-0.002 0.002 4.359-3.2 3.494 2.118-5.657 3.962c-0.19 0.148-0.312 0.377-0.312 0.634 0 0.442 0.358 0.8 0.8 0.8 0.158 0 0.305-0.046 0.429-0.125l-0.003 0.002 6.235-4.368 5.615 3.402v4.057l-5.635 3.429-6.215-4.352c-0.135-0.107-0.308-0.172-0.495-0.172-0.442 0-0.8 0.358-0.8 0.8 0 0.287 0.151 0.538 0.378 0.68l0.003 0.002 5.64 3.953-3.487 2.122-4.343-3.192c-0.131-0.097-0.296-0.155-0.474-0.155-0.442 0-0.8 0.358-0.8 0.8 0 0.264 0.128 0.498 0.325 0.644l0.002 0.002 3.811 2.797-3.345 2.041c-0.25 0.139-0.416 0.401-0.416 0.702 0 0.442 0.358 0.8 0.8 0.8 0.154 0 0.298-0.043 0.419-0.119l-0.003 0.002 3.429-1.89 0.519 4.717c0.045 0.403 0.383 0.713 0.794 0.713h0c0.013 0.001 0.029 0.001 0.044 0.001s0.031-0 0.046-0.001l-0.002 0c0.402-0.046 0.712-0.384 0.712-0.795 0-0.031-0.002-0.061-0.005-0.091l0 0.004-0.591-5.377 3.581-1.97 0.605 6.886c0.037 0.411 0.38 0.73 0.797 0.73 0.001 0 0.002 0 0.003 0h-0c0.024 0 0.047 0 0.071 0 0.411-0.037 0.73-0.38 0.73-0.797 0-0.024-0.001-0.049-0.003-0.072l0 0.003-0.665-7.589 5.746-3.161 3.533 2.039 0.149 6.587-6.883 3.208c-0.27 0.132-0.453 0.405-0.453 0.721 0 0.442 0.358 0.8 0.8 0.8 0.119 0 0.232-0.026 0.333-0.072l-0.005 0.002 6.247-2.912 0.093 4.082-4.942 2.171c-0.284 0.127-0.478 0.407-0.478 0.733 0 0.442 0.358 0.8 0.8 0.8 0.116 0 0.227-0.025 0.327-0.070l-0.005 0.002 4.343-1.906 0.088 3.917c0 0.442 0.358 0.8 0.8 0.8s0.8-0.358 0.8-0.8v0l0.083-3.919 4.343 1.909c0.095 0.043 0.205 0.068 0.322 0.068 0.442 0 0.8-0.358 0.8-0.8 0-0.325-0.194-0.606-0.473-0.731l-0.005-0.002-4.949-2.171 0.087-4.085 6.259 2.918c0.096 0.044 0.209 0.070 0.328 0.070 0.442 0 0.8-0.358 0.8-0.8 0-0.315-0.183-0.588-0.448-0.718l-0.005-0.002-6.898-3.215 0.139-6.567 3.52-2.032 5.781 3.165-0.663 7.565c-0.002 0.021-0.003 0.045-0.003 0.069 0 0.417 0.319 0.76 0.727 0.797l0.003 0c0.024 0 0.047 0 0.071 0 0.001 0 0.002 0 0.003 0 0.417 0 0.76-0.319 0.797-0.727l0-0.003 0.602-6.864 3.581 1.96-0.59 5.366c-0.003 0.026-0.005 0.056-0.005 0.087 0 0.411 0.31 0.75 0.71 0.795l0.004 0c0.013 0.001 0.029 0.001 0.044 0.001s0.031-0 0.046-0.001l-0.002 0c0.001 0 0.003 0 0.005 0 0.411 0 0.75-0.31 0.795-0.709l0-0.004 0.518-4.707 3.419 1.88c0.118 0.073 0.262 0.117 0.416 0.117 0.442 0 0.8-0.358 0.8-0.8 0-0.301-0.166-0.563-0.412-0.7l-0.004-0.002-3.352-2.032 3.83-2.808c0.199-0.147 0.327-0.381 0.327-0.645 0-0.442-0.358-0.8-0.8-0.8-0.178 0-0.343 0.058-0.476 0.157l0.002-0.002zM32 36.987l-4.312-2.489v-4.979l4.312-2.489 4.312 2.489v4.979z"></path>
</svg>
