<!-- Generated by IcoMoon.io -->
<svg version="1.1" xmlns="http://www.w3.org/2000/svg" width="64" height="64" viewBox="0 0 64 64">
<path fill="#9b342f" d="M32 63.447c-0.001 0-0.002 0-0.003 0-0.446 0-0.85-0.181-1.141-0.474l-29.828-29.826c-0.293-0.294-0.474-0.699-0.474-1.147s0.181-0.853 0.474-1.147v0l29.828-29.826c0.294-0.293 0.699-0.474 1.147-0.474s0.853 0.181 1.147 0.474v0l29.824 29.828c0.293 0.294 0.474 0.699 0.474 1.147s-0.181 0.853-0.474 1.147v0l-29.826 29.824c-0.292 0.293-0.695 0.474-1.141 0.474-0.002 0-0.004 0-0.006 0h0z"></path>
<path fill="#fff" d="M32 1.106c0.001 0 0.002 0 0.004 0 0.294 0 0.561 0.12 0.754 0.313v0l29.822 29.822c0.194 0.194 0.314 0.462 0.314 0.758s-0.12 0.564-0.314 0.758v0l-29.822 29.822c-0.194 0.194-0.462 0.314-0.758 0.314s-0.564-0.12-0.758-0.314v0l-29.822-29.822c-0.194-0.194-0.313-0.462-0.313-0.758s0.12-0.564 0.313-0.758v0l29.822-29.822c0.193-0.193 0.46-0.313 0.756-0.313 0.001 0 0.002 0 0.003 0h-0zM32 0c-0 0-0 0-0 0-0.601 0-1.145 0.244-1.539 0.638v0l-29.822 29.822c-0.394 0.394-0.638 0.938-0.638 1.539s0.244 1.145 0.638 1.539v0l29.822 29.822c0.393 0.395 0.938 0.639 1.539 0.639s1.146-0.244 1.539-0.639l29.822-29.822c0.395-0.394 0.639-0.938 0.639-1.539s-0.244-1.145-0.639-1.539l-29.822-29.822c-0.393-0.394-0.937-0.638-1.538-0.638 0 0-0 0-0 0v0z"></path>
<path fill="#fff" d="M27.57 41.693c-0.288-0.044-0.527-0.221-0.655-0.466l-0.002-0.005-9.804-19.149c-0.221-0.433 0.090-0.706 0.526-0.93s0.826-0.31 1.049 0.124l9.801 19.145c0.062 0.118 0.099 0.258 0.099 0.407 0 0.489-0.396 0.885-0.885 0.885-0.046 0-0.091-0.004-0.135-0.010l0.005 0.001z"></path>
<path fill="#fff" d="M24.773 27.632c-0.165 1.236-0.198 2.607-0.198 2.607s-3.601-7.133-4.052-8.041c0.922-0.654 1.124-2.101 1.374-3.286 0.864 0.485 1.035 2.816 1.632 3.794 0.168 0.272 0.46 0.313 0.695-0.221 0.822 1.162 0.755 3.598 0.553 5.147z"></path>
<path fill="#fff" d="M18.741 30.788c1.106 0.583 2.241 1.353 2.241 1.353s-3.727-7.070-4.209-7.963c-1.064 0.369-2.363-0.303-3.473-0.788-0.111 0.99 1.695 2.476 2.143 3.533 0.127 0.295-0.008 0.553-0.578 0.437 0.47 1.345 2.495 2.696 3.876 3.428z"></path>
<path fill="#fff" d="M32.581 47.208c1.893-1.079 3.447-1.327 4.743-1.251 0.568 0.033 1.505 0.388 2.17 0.963 1.494-0.415 4.429-0.679 5.166-1.12 0.102-0.061 0.174-0.165 0.19-0.285l0-0.002c0.052-0.41 0.321-2.976 0.221-4-0.138-1.327-1.887-7.742-1.917-8.126-0.111-1.494 1.068-8.429 1.155-8.743 0.071-0.261 1.445-2.677 1.901-3.477 0.025-0.043 0.039-0.094 0.039-0.148 0-0.11-0.060-0.206-0.148-0.258l-0.001-0.001c-1.602-0.916-3.806-1.404-3.806-1.404s0.276-0.687 0.429-1.191c0.006-0.021 0.009-0.045 0.009-0.070 0-0.134-0.1-0.245-0.229-0.262l-0.001-0c-4.448-0.774-8.47-0.344-11.533 1.116-0.125 0.062-0.209 0.189-0.209 0.335 0 0.049 0.009 0.096 0.027 0.139l-0.001-0.003c0.306 0.765 0.65 2.113 0.946 3.615l3.742-0.325c0.017-0.001 0.036-0.001 0.055-0.001 0.59 0 1.068 0.478 1.068 1.068 0 0.57-0.447 1.036-1.010 1.066l-0.003 0-3.492 0.314c0.173 1.045 0.292 2.279 0.331 3.534l0.001 0.044 3.089-0.291c0.016-0.001 0.035-0.001 0.054-0.001 0.57 0 1.035 0.448 1.063 1.011l0 0.003c0.001 0.015 0.001 0.033 0.001 0.052 0 0.57-0.445 1.036-1.007 1.069l-0.003 0-3.328 0.306c0 2.902-1.584 4.549-2.346 6.48-0.765 0.47-4.026 1.079-6.475 2.072l-3.272-0.351c-1.251 0.952-1.92 3.455-1.083 5.015 1.449 0.941 6.916 3.224 13.464 3.111z"></path>
</svg>
