<!-- Generated by IcoMoon.io -->
<svg version="1.1" xmlns="http://www.w3.org/2000/svg" width="64" height="64" viewBox="0 0 64 64">
<path fill="#e26969" d="M32 61.321c-16.44 0-29.767-13.327-29.767-29.767s13.327-29.767 29.767-29.767c16.44 0 29.767 13.327 29.767 29.767v0c0 16.44-13.327 29.767-29.767 29.767v0z"></path>
<path fill="#fff" d="M32 5.507c14.632 0 26.493 11.861 26.493 26.493s-11.861 26.493-26.493 26.493c-14.632 0-26.493-11.861-26.493-26.493v0c0-14.632 11.861-26.493 26.493-26.493v0zM32 0c-17.673 0-32 14.327-32 32s14.327 32 32 32c17.673 0 32-14.327 32-32v0c0-17.673-14.327-32-32-32v0z"></path>
<path fill="#fff" d="M50.785 7.326l-43.459 43.459 5.901 5.901 43.459-43.459z"></path>
</svg>
