<!-- Generated by IcoMoon.io -->
<svg version="1.1" xmlns="http://www.w3.org/2000/svg" width="64" height="64" viewBox="0 0 64 64">
<path fill="#77066b" d="M1.169 30.172l29.001-29.001c1-1 2.621-1 3.62 0l29.001 29.001c1 1 1 2.621 0 3.62l-29.001 29.001c-1 1-2.621 1-3.62 0l-29.001-29.001c-1-1-1-2.621 0-3.62z"></path>
<path fill="#fff" d="M32 42.667c-5.43 0-9.831-4.402-9.831-9.831s4.402-9.831 9.831-9.831c5.43 0 9.831 4.402 9.831 9.831 0 0.006 0 0.013 0 0.019v-0.001c-0.030 5.414-4.416 9.793-9.829 9.813h-0.002zM32 20.853c-0.005 0-0.012 0-0.018 0-6.637 0-12.018 5.381-12.018 12.018s5.381 12.018 12.018 12.018c6.637 0 12.018-5.381 12.018-12.018 0-0.006 0-0.013 0-0.019v0.001c0-0.037 0.001-0.081 0.001-0.124 0-6.608-5.357-11.964-11.964-11.964-0.013 0-0.025 0-0.038 0h0.002zM43.342 47.964c-4.568-0.010-8.267-3.715-8.267-8.284 0-0.013 0-0.025 0-0.038v0.002c0-0.006 0-0.013 0-0.019 0-2.298 0.946-4.375 2.47-5.863l0.002-0.002c0-0.107 0.142-0.16 0.196-0.213 0.112-0.050 0.199-0.137 0.248-0.246l0.001-0.003c0.107 0 0.142-0.142 0.249-0.196s0.107 0 0.107-0.107 0.107 0 0.142-0.089c1.179-0.821 2.615-1.356 4.167-1.474l0.029-0.002h0.551c0.003 0 0.007 0 0.010 0 3.356 0 6.243 2.009 7.525 4.89l0.021 0.052s0 0 0.107 0.107c0-0.356 0-0.711-0.107-1.067-0.48-3.753-2.665-6.912-5.74-8.717l-0.056-0.030c-0.601-0.256-1.015-0.842-1.015-1.525 0-0.089 0.007-0.177 0.021-0.262l-0.001 0.009c0.003-0.104 0.005-0.226 0.005-0.348 0-2.797-1.018-5.357-2.703-7.33l0.013 0.016c-0.77-0.925-1.668-1.709-2.673-2.337l-0.047-0.027c1.075 1.365 1.724 3.109 1.724 5.004 0 1.517-0.416 2.938-1.14 4.153l0.021-0.037c-0.077 0.118-0.143 0.253-0.192 0.396l-0.004 0.013s0 0 0 0c-0.68 1.075-1.575 1.953-2.631 2.593l-0.035 0.020c-1.083 0.7-2.4 1.127-3.815 1.155l-0.008 0h-0.711c-4.453-0.119-8.018-3.757-8.018-8.228 0-0.007 0-0.014 0-0.022v0.001c-0-0.022-0-0.047-0-0.073 0-1.844 0.629-3.54 1.684-4.887l-0.013 0.017c-0.016-0.005-0.034-0.008-0.053-0.008s-0.037 0.003-0.055 0.009l0.001-0c-3.243 2.155-5.351 5.793-5.351 9.923 0 0.23 0.007 0.459 0.020 0.686l-0.001-0.031c0 0.302 0 0.498-0.249 0.658-3.064 1.487-5.333 4.205-6.187 7.493l-0.018 0.080c-0.267 0.871-0.356 1.778-0.569 2.578 0 0 0 0 0.107 0 1.283-2.992 4.203-5.049 7.603-5.049 0.002 0 0.004 0 0.006 0h0.622c1.253 0.112 2.401 0.474 3.423 1.036l-0.045-0.023c2.551 1.397 4.257 4.051 4.284 7.107v0.004c0 0.003 0 0.006 0 0.010 0 1.237-0.262 2.414-0.733 3.476l0.022-0.055-0.142 0.249c-1.369 2.768-4.173 4.638-7.413 4.64h-0c-0.346-0.010-0.677-0.048-0.998-0.113l0.038 0.006c1.587 0.831 3.466 1.318 5.46 1.318 2.531 0 4.878-0.786 6.811-2.127l-0.040 0.026c1.91 1.373 4.296 2.195 6.873 2.195 1.962 0 3.812-0.476 5.442-1.32l-0.066 0.031c-0.265 0.055-0.577 0.093-0.895 0.106l-0.012 0z"></path>
<path fill="#fff" d="M0.604 30.542l29.938-29.938c0.373-0.373 0.889-0.604 1.458-0.604s1.085 0.231 1.458 0.604l29.938 29.938c0.373 0.373 0.604 0.889 0.604 1.458s-0.231 1.085-0.604 1.458l-29.938 29.938c-0.373 0.373-0.889 0.604-1.458 0.604s-1.085-0.231-1.458-0.604l-29.938-29.938c-0.373-0.373-0.604-0.889-0.604-1.458s0.231-1.085 0.604-1.458v0zM31.591 1.671l-29.92 29.92c-0.099 0.107-0.159 0.251-0.159 0.409s0.061 0.302 0.16 0.409l-0-0 29.92 29.92c0.107 0.099 0.251 0.159 0.409 0.159s0.302-0.061 0.409-0.16l-0 0 29.92-29.92c0.099-0.107 0.159-0.251 0.159-0.409s-0.061-0.302-0.16-0.409l0 0-29.92-29.92c-0.107-0.099-0.251-0.159-0.409-0.159s-0.302 0.061-0.409 0.16l0-0z"></path>
</svg>
