<!-- Generated by IcoMoon.io -->
<svg version="1.1" xmlns="http://www.w3.org/2000/svg" width="68" height="64" viewBox="0 0 68 64">
<path fill="#fff" d="M32 53.99l6.4-3.2h14.031l6.4 3.2-4.841 5.497h-17.067zM36.185 48l-13.21 6.318 8.205 9.682h28.554l8.205-9.764-13.21-6.236z"></path>
<path fill="#fff" d="M35.036 38.072l23.467 4.185-14.441 13.292-9.026-17.477z"></path>
<path fill="#fff" d="M29.785 11.487c8.834 4.445 14.788 13.439 14.788 23.824 0 2.68-0.397 5.268-1.135 7.708l0.049-0.188h5.744c3.774-13.046 3.364-33.477-16.41-41.026-3.102-1.193-6.69-1.884-10.44-1.884-8.895 0-16.882 3.889-22.353 10.058l-0.027 0.031c3.885-1.363 8.363-2.15 13.026-2.15 6.075 0 11.837 1.336 17.010 3.731l-0.251-0.104z"></path>
</svg>
