<!-- Generated by IcoMoon.io -->
<svg version="1.1" xmlns="http://www.w3.org/2000/svg" width="91" height="64" viewBox="0 0 91 64">
<path d="M74.636 27.988s-11.102-3.825-29.201-27.988c-18.099 24.163-28.828 27.988-28.828 27.988s-5.411 0-16.606-11.289c2.581 11.594 4.291 25.095 4.748 38.912l0.010 0.365c11.995 5.238 25.966 8.319 40.647 8.396l0.029 0c14.709-0.061 28.682-3.144 41.353-8.659l-0.676 0.262c0.492-14.066 2.2-27.435 5.029-40.384l-0.271 1.48c-11.102 10.915-16.233 10.915-16.233 10.915zM5.691 32.653l-1.213-7.65 9.329 6.811c-0.826-0.167-1.777-0.262-2.749-0.262-2.004 0-3.913 0.405-5.65 1.137l0.096-0.036zM77.061 31.254l9.329-6.904-1.12 7.65c-1.62-0.642-3.497-1.014-5.461-1.014-1.005 0-1.988 0.098-2.939 0.284l0.096-0.016zM45.154 12.595l-14.367 9.796 14.647-16.233 14.74 16.233z"></path>
</svg>
