<!-- Generated by IcoMoon.io -->
<svg version="1.1" xmlns="http://www.w3.org/2000/svg" width="64" height="64" viewBox="0 0 64 64">
<path fill="#eeac1f" d="M32 63.086c-17.168-0-31.085-13.918-31.085-31.086 0-8.584 3.479-16.355 9.104-21.981v0c5.637-5.699 13.459-9.229 22.104-9.229 17.168 0 31.086 13.918 31.086 31.086 0 8.646-3.529 16.467-9.226 22.102l-0.003 0.003c-5.594 5.624-13.338 9.105-21.895 9.105-0.030 0-0.060-0-0.090-0h0.005z"></path>
<path fill="#fff" d="M32 1.829c16.663 0 30.171 13.509 30.171 30.171s-13.509 30.171-30.171 30.171-30.171-13.509-30.171-30.171 13.509-30.171 30.171-30.171zM32 0c-17.671 0.009-31.992 14.336-31.992 32.008 0 13.173 7.957 24.487 19.327 29.398l0.208 0.080c3.676 1.595 7.958 2.523 12.457 2.523 17.678 0 32.009-14.331 32.009-32.009 0-13.179-7.965-24.499-19.344-29.406l-0.208-0.080c-3.658-1.59-7.919-2.514-12.395-2.514-0.022 0-0.044 0-0.065 0h0.003z"></path>
<path fill="#fff" d="M57.029 31.387l-10.649-5.344 3.752-11.307c0.022-0.065 0.035-0.139 0.035-0.217 0-0.379-0.307-0.686-0.686-0.686-0.078 0-0.152 0.013-0.222 0.037l0.005-0.001-11.307 3.752-5.344-10.649c-0.115-0.226-0.346-0.378-0.613-0.378s-0.497 0.152-0.611 0.374l-0.002 0.004-5.344 10.649-11.307-3.752c-0.065-0.022-0.139-0.035-0.217-0.035-0.379 0-0.686 0.307-0.686 0.686 0 0.078 0.013 0.152 0.037 0.222l-0.001-0.005 3.752 11.309-10.649 5.343c-0.226 0.115-0.378 0.346-0.378 0.613s0.152 0.497 0.374 0.611l0.004 0.002 10.649 5.343-3.752 11.309c-0.022 0.065-0.035 0.139-0.035 0.217 0 0.379 0.307 0.686 0.686 0.686 0.078 0 0.152-0.013 0.222-0.037l-0.005 0.001 11.307-3.752 5.344 10.649c0.115 0.226 0.346 0.378 0.613 0.378s0.497-0.152 0.611-0.374l0.002-0.004 5.343-10.649 11.309 3.752c0.065 0.022 0.139 0.034 0.216 0.034h0c0 0 0 0 0.001 0 0.379 0 0.686-0.307 0.686-0.686 0-0.077-0.013-0.152-0.036-0.221l0.001 0.005-3.753-11.309 10.65-5.343c0.226-0.115 0.378-0.346 0.378-0.613s-0.152-0.497-0.374-0.611l-0.004-0.002zM46.766 17.241l-2.048 7.969-2.934-1.472 1.143-2.661-2.661 1.143-1.471-2.93zM35.146 24.406l-1.521-3.797 3.463-0.887 1.818 3.074zM28.854 24.406l-3.759-1.609 1.822-3.074 3.458 0.887zM24.406 28.854l-3.797 1.521-0.886-3.461 3.073-1.819zM24.406 35.146l-1.609 3.759-3.073-1.819 0.886-3.461zM28.854 39.594l1.521 3.797-3.458 0.888-1.822-3.075zM35.146 39.594l3.76 1.609-1.818 3.075-3.463-0.888zM39.594 35.146l3.797-1.521 0.889 3.461-3.077 1.821zM39.594 28.854l1.609-3.76 3.077 1.821-0.889 3.461zM32.006 11.128l4.186 7.079-3.115 1.029-1.077-2.681-1.077 2.686-3.111-1.029zM17.247 17.241l7.963 2.043-1.472 2.931-2.661-1.143 1.143 2.661-2.929 1.47zM11.134 32l7.074-4.189 1.029 3.112-2.682 1.077 2.686 1.077-1.029 3.112zM17.247 46.76l2.040-7.968 2.929 1.47-1.143 2.661 2.661-1.143 1.472 2.933zM32.006 52.873l-4.193-7.086 3.111-1.029 1.077 2.686 1.077-2.686 3.115 1.029zM46.766 46.76l-7.975-2.045 1.471-2.931 2.661 1.143-1.143-2.661 2.934-1.472zM45.793 36.191l-1.029-3.114 2.686-1.077-2.686-1.077 1.029-3.114 7.086 4.191z"></path>
</svg>
