<!-- Generated by IcoMoon.io -->
<svg version="1.1" xmlns="http://www.w3.org/2000/svg" width="52" height="64" viewBox="0 0 52 64">
<path fill="#fff" d="M52.040 51.556v0.566c0 6.545-11.636 11.879-26.020 11.879s-26.020-5.333-26.020-11.879v-0.566c1.834 1.989 4.070 3.577 6.582 4.64l0.125 0.047c5.399 2.357 11.691 3.728 18.302 3.728 0.356 0 0.71-0.004 1.064-0.012l-0.053 0.001c0.324 0.008 0.705 0.013 1.088 0.013 6.613 0 12.905-1.372 18.608-3.847l-0.303 0.117c2.637-1.11 4.873-2.698 6.695-4.674l0.012-0.013z"></path>
<path fill="#fff" d="M37.818 34.667l-0.485 10.748c-2.97 1.043-6.394 1.646-9.958 1.646-0.477 0-0.951-0.011-1.422-0.032l0.067 0.002c-0.383 0.017-0.832 0.027-1.283 0.027-3.561 0-6.982-0.602-10.166-1.709l0.217 0.066-0.485-10.748c-8.485 1.939-14.303 5.899-14.303 10.748 0 6.545 11.636 11.879 26.020 11.879s26.020-5.495 26.020-11.879c0-4.687-5.818-8.646-14.222-10.586z"></path>
<path fill="#fff" d="M43.475 26.101h-9.778l-0.808 15.515c-1.789 0.473-3.843 0.744-5.961 0.744-0.319 0-0.637-0.006-0.953-0.018l0.046 0.001c-0.253 0.009-0.55 0.014-0.848 0.014-2.138 0-4.213-0.271-6.193-0.779l0.172 0.038-0.808-15.515h-9.697l17.374-26.101z"></path>
</svg>
