<!-- Generated by IcoMoon.io -->
<svg version="1.1" xmlns="http://www.w3.org/2000/svg" width="65" height="64" viewBox="0 0 65 64">
<path fill="#fff" d="M59.932 55.237c1.801 2.17 3.115 4.809 3.734 7.705l0.021 0.119c0.017 0.047 0.027 0.101 0.027 0.157 0 0.259-0.21 0.469-0.469 0.469-0.010 0-0.019-0-0.028-0.001l0.001 0h-22.533l-9.31-8.45c-1.721-3.443-0.782-6.885-3.912-9.154-0.718-0.421-1.58-0.669-2.501-0.669-0.389 0-0.768 0.044-1.131 0.128l0.034-0.007c-1.827-2.607-3.549-5.584-5.009-8.708l-0.154-0.368c-0.037-0.093-0.059-0.2-0.059-0.313s0.022-0.22 0.061-0.319l-0.002 0.006c0.683-1.371 1.438-2.552 2.301-3.641l-0.032 0.042c1.487-1.8 10.328-9.545 10.719-10.093 2.231-3.795 4.511-8.346 6.505-13.048l0.301-0.8c0-0.469 0.548-5.32 0.626-6.963 0-0.002-0-0.004-0-0.007 0-0.259 0.21-0.469 0.469-0.469 0.028 0 0.055 0.002 0.081 0.007l-0.003-0c2.564 0.235 4.926 0.817 7.133 1.703l-0.17-0.060c0.153-0.854 0.343-1.591 0.581-2.306l-0.033 0.115c0.083-0.074 0.193-0.12 0.313-0.12s0.23 0.045 0.313 0.12l-0-0c6.849 2.709 12.511 7.187 16.59 12.877l0.075 0.111c0.092 0.118 0.147 0.268 0.147 0.43s-0.055 0.313-0.148 0.432l0.001-0.002c-1.96 1.346-3.674 2.787-5.237 4.377l-0.005 0.005-6.103-4.538c-0.164-0.054-0.352-0.085-0.548-0.085s-0.384 0.031-0.56 0.089l0.013-0.004c-0.597 0.005-1.129 0.277-1.484 0.701l-0.002 0.003c-0.083 0.205-0.132 0.442-0.132 0.691 0 0.713 0.397 1.333 0.983 1.651l0.010 0.005 5.712 4.225c-1.348 1.466-2.656 3.047-3.879 4.694l-0.111 0.157-5.164-3.756c-0.164-0.052-0.352-0.082-0.548-0.082s-0.384 0.030-0.561 0.085l0.013-0.004c-0.605 0.037-1.135 0.333-1.483 0.778l-0.003 0.004c-0.337 0.327-0.546 0.785-0.546 1.291s0.209 0.964 0.545 1.291l0 0 6.024 3.912c-0.263 1.88-0.414 4.052-0.414 6.259s0.15 4.379 0.441 6.506l-0.028-0.247c-0.22 3.078-0.609 5.891-1.168 8.642l0.072-0.426c3.051 1.8 7.12 1.956 10.015 4.851z"></path>
<path fill="#fff" d="M35.755 3.912c0 1.878 0 3.051 0 3.521v0.469l-31.296-2.738cl-0.548-0.626z"></path>
<path fill="#fff" d="M32 14.787c-0.626 1.174-1.174 2.425-1.721 3.364l-19.482-2.034cv-0.704z"></path>
<path fill="#fff" d="M23.941 25.271l-3.834 3.521-19.795-2.738cv-0.704z"></path>
</svg>
