<!-- Generated by IcoMoon.io -->
<svg version="1.1" xmlns="http://www.w3.org/2000/svg" width="64" height="64" viewBox="0 0 64 64">
<path fill="#705844" d="M32 63.447c-0.001 0-0.001 0-0.002 0-0.449 0-0.855-0.184-1.146-0.481l-29.818-29.818c-0.294-0.294-0.476-0.7-0.476-1.148s0.182-0.854 0.476-1.148v0l29.818-29.818c0.293-0.295 0.699-0.477 1.148-0.477s0.855 0.182 1.148 0.477l29.818 29.818c0.294 0.294 0.476 0.7 0.476 1.148s-0.182 0.854-0.476 1.148v0l-29.818 29.818c-0.292 0.297-0.697 0.481-1.146 0.481-0.001 0-0.001 0-0.002 0h0z"></path>
<path fill="#fff" d="M32 1.107c0.001 0 0.001 0 0.002 0 0.294 0 0.561 0.119 0.754 0.312v0l29.821 29.822c0.196 0.193 0.318 0.462 0.318 0.759s-0.121 0.565-0.317 0.759l-29.821 29.823c-0.194 0.193-0.461 0.312-0.756 0.312s-0.562-0.119-0.756-0.312l-29.821-29.822c-0.196-0.193-0.318-0.462-0.318-0.759s0.121-0.565 0.317-0.759l29.821-29.823c0.193-0.193 0.46-0.312 0.754-0.312 0.001 0 0.001 0 0.002 0h-0zM32 0.001c-0.602 0-1.147 0.245-1.541 0.64l-29.822 29.82c-0.394 0.394-0.637 0.938-0.637 1.538s0.243 1.145 0.637 1.538l29.822 29.822c0.394 0.395 0.939 0.639 1.541 0.639s1.147-0.244 1.541-0.639l29.822-29.822c0.394-0.394 0.637-0.938 0.637-1.538s-0.243-1.145-0.637-1.538v0l-29.822-29.821c-0.394-0.395-0.939-0.64-1.541-0.64h-0z"></path>
<path fill="#fff" d="M30.243 18.215l0.374 3.539c0.065 0.664 0 1.139-0.206 1.419-0.226 0.307-0.507 0.56-0.831 0.747l-0.013 0.007-4.271 2.628-0.664-0.542q1.037-1.42 0.885-2.889l-0.513-4.93q-0.029-0.259 4.336-2.591t5.168-2.419c0.532-0.055 1.327 0.514 2.386 1.7s1.62 2.125 1.69 2.815l0.78 7.479c0.080 0.752-0.518 1.83-1.783 3.245-1.181 1.329-2.434 2.532-3.775 3.632l-0.058 0.046-1.941 1.558 0.126 1.209c0.094 0.897 0.317 1.578 0.672 2.049s0.696 0.724 1.017 0.748l0.442 0.042 0.098 0.952q-3.935 2.898-4.239 2.932c-0.2 0.019-0.691-0.248-1.461-0.813s-1.191-1.139-1.252-1.746l-0.606-5.835c-0.033-0.317 0.831-1.144 2.6-2.48s3.048-2.413 3.838-3.239 1.158-1.498 1.106-2.017l-0.523-5.013q-0.196-1.907-0.644-2.62c-0.219-0.388-0.628-0.645-1.098-0.645-0.067 0-0.134 0.005-0.198 0.015l0.007-0.001c-0.561 0.056-1.046 0.397-1.448 1.023zM28.129 48.195l-0.275-2.638c-0.010-0.084 0.56-0.416 1.713-0.985s1.816-0.868 2.003-0.885 0.486 0.197 0.896 0.649c0.374 0.383 0.628 0.885 0.699 1.444l0.001 0.013 0.332 3.156c0.009 0.089-0.538 0.41-1.643 0.98s-1.788 0.864-2.049 0.891-0.584-0.196-0.967-0.664-0.626-1.126-0.709-1.962z"></path>
</svg>
