<!-- Generated by IcoMoon.io -->
<svg version="1.1" xmlns="http://www.w3.org/2000/svg" width="64" height="64" viewBox="0 0 64 64">
<path fill="#fff" d="M36.561 0.3c-0.094-0.014-0.203-0.022-0.313-0.022-1.136 0-2.076 0.839-2.234 1.932l-0.001 0.012c-0.014 0.094-0.022 0.203-0.022 0.313 0 1.136 0.84 2.076 1.932 2.234l0.012 0.001 0.269 0.040 0.679 0.11 0.675 0.132 0.666 0.146 0.661 0.159 0.657 0.176 0.648 0.194 0.639 0.207 0.635 0.225 0.52 0.198c0.239 0.094 0.515 0.148 0.803 0.148 0.959 0 1.779-0.598 2.106-1.442l0.005-0.015c0.093-0.237 0.146-0.512 0.146-0.8 0-0.959-0.598-1.778-1.441-2.105l-0.015-0.005-0.573-0.216-0.736-0.265-0.75-0.242-0.758-0.225-0.763-0.207-0.772-0.185-0.776-0.172-0.785-0.15-0.794-0.132zM24.506 0.864l-0.494 0.119-0.763 0.207-0.758 0.225-0.745 0.242-0.741 0.265-0.732 0.278-0.723 0.295-0.714 0.309-0.705 0.331-0.441 0.22c-0.749 0.378-1.253 1.141-1.253 2.022 0 0.365 0.087 0.71 0.241 1.016l-0.006-0.013c0.378 0.75 1.141 1.255 2.023 1.255 0.367 0 0.713-0.087 1.019-0.243l-0.013 0.006 0.392-0.194 0.604-0.282 0.613-0.269 0.622-0.256 0.626-0.238 0.635-0.225 0.644-0.207 0.648-0.194 0.653-0.176 0.441-0.106c0.996-0.249 1.722-1.136 1.722-2.193 0-0.19-0.024-0.375-0.068-0.552l0.003 0.016c-0.249-0.996-1.136-1.722-2.193-1.722-0.19 0-0.375 0.024-0.552 0.068l0.016-0.003zM52.205 7.959c-0.621 0.024-1.175 0.295-1.568 0.717l-0.001 0.001c-0.375 0.402-0.606 0.944-0.606 1.539 0 0.652 0.277 1.24 0.719 1.652l0.001 0.001 0.234 0.216 0.472 0.459 0.459 0.476 0.45 0.481 0.441 0.494 0.423 0.503 0.414 0.516 0.406 0.525 0.388 0.534 0.392 0.564c0.413 0.59 1.089 0.97 1.854 0.97 0.481 0 0.926-0.15 1.292-0.406l-0.007 0.005c0.59-0.413 0.97-1.089 0.97-1.854 0-0.481-0.15-0.926-0.406-1.292l0.005 0.007-0.419-0.608-0.454-0.622-0.467-0.613-0.485-0.595-0.494-0.586-0.511-0.578-0.52-0.56-0.538-0.551-0.551-0.534-0.269-0.256c-0.402-0.375-0.943-0.606-1.539-0.606-0.029 0-0.059 0.001-0.088 0.002l0.004-0zM9.656 9.951c-0.621 0.037-1.169 0.32-1.555 0.752l-0.002 0.002-0.291 0.335-0.498 0.586-0.481 0.595-0.467 0.613-0.454 0.622-0.441 0.63-0.423 0.644-0.41 0.657-0.392 0.666-0.317 0.569c-0.181 0.317-0.288 0.698-0.288 1.103 0 0.842 0.461 1.577 1.145 1.965l0.011 0.006c0.317 0.181 0.698 0.288 1.103 0.288 0.842 0 1.577-0.461 1.965-1.145l0.006-0.011 0.291-0.525 0.339-0.569 0.348-0.564 0.366-0.551 0.375-0.547 0.392-0.534 0.401-0.525 0.414-0.516 0.428-0.503 0.256-0.291c0.354-0.397 0.57-0.923 0.57-1.499 0-0.671-0.293-1.273-0.757-1.687l-0.002-0.002c-0.396-0.353-0.922-0.568-1.498-0.568-0.047 0-0.094 0.001-0.14 0.004l0.006-0zM60.608 23.461c-1.023 0.229-1.776 1.129-1.776 2.205 0 0.17 0.019 0.336 0.054 0.495l-0.003-0.015 0.066 0.3 0.128 0.675 0.11 0.679 0.097 0.683 0.079 0.692 0.062 0.697 0.044 0.701 0.026 0.705 0.009 0.683v0.057l-0.009 0.679-0.026 0.705-0.044 0.701-0.062 0.697-0.079 0.692-0.097 0.683-0.11 0.683-0.128 0.67-0.154 0.692c-0.033 0.144-0.051 0.309-0.051 0.479 0 1.078 0.755 1.979 1.765 2.204l0.015 0.003c0.144 0.033 0.31 0.052 0.48 0.052 1.076 0 1.976-0.753 2.203-1.761l0.003-0.015 0.163-0.745 0.15-0.785 0.132-0.794 0.11-0.798 0.093-0.802 0.071-0.811 0.053-0.816 0.031-0.82 0.009-0.794c-0.003-0.023-0.004-0.033-0.006-0.044l0.002 0.013c-0 0.005 0.001-0.004 0.003-0.013l0.002-0.013-0.009-0.798-0.031-0.82-0.053-0.816-0.071-0.811-0.093-0.802-0.11-0.798-0.132-0.794-0.15-0.785-0.079-0.353c-0.229-1.023-1.129-1.776-2.205-1.776-0.17 0-0.336 0.019-0.495 0.054l0.015-0.003zM2.729 26.168c-0.077-0.009-0.167-0.015-0.257-0.015-1.156 0-2.108 0.868-2.242 1.988l-0.001 0.011-0.066 0.564-0.071 0.811-0.053 0.816-0.031 0.82-0.009 0.825 0.009 0.824 0.031 0.82 0.053 0.816 0.071 0.811 0.022 0.163c0.132 1.133 1.086 2.003 2.243 2.003 0.091 0 0.18-0.005 0.268-0.016l-0.011 0.001c1.131-0.134 1.999-1.087 1.999-2.243 0-0.091-0.005-0.18-0.016-0.268l0.001 0.011-0.013-0.11-0.062-0.697-0.044-0.701-0.026-0.705-0.009-0.71 0.009-0.71 0.026-0.705 0.044-0.701 0.062-0.697 0.057-0.507c0.009-0.077 0.015-0.167 0.015-0.257 0-1.156-0.868-2.108-1.988-2.242l-0.011-0.001zM6.371 43.739c-0.198-0.063-0.426-0.099-0.663-0.099-0.387 0-0.751 0.097-1.069 0.269l0.012-0.006c-0.721 0.387-1.203 1.135-1.203 1.996 0 0.384 0.096 0.746 0.265 1.063l-0.006-0.012 0.159 0.3 0.375 0.675 0.392 0.666 0.41 0.657 0.423 0.644 0.441 0.63 0.454 0.622 0.467 0.613 0.481 0.595 0.498 0.586 0.026 0.035c0.415 0.467 1.018 0.759 1.689 0.759 0.576 0 1.102-0.216 1.501-0.572l-0.002 0.002c0.467-0.415 0.759-1.018 0.759-1.689 0-0.576-0.216-1.102-0.572-1.501l0.002 0.002-0.419-0.494-0.414-0.516-0.401-0.525-0.392-0.533-0.375-0.547-0.366-0.551-0.348-0.564-0.339-0.569-0.326-0.582-0.128-0.247c-0.281-0.527-0.75-0.923-1.316-1.102l-0.016-0.004zM56.049 46.737c-0.604 0.113-1.114 0.453-1.446 0.928l-0.005 0.007-0.163 0.234-0.388 0.533-0.406 0.525-0.414 0.516-0.423 0.503-0.441 0.494-0.45 0.485-0.459 0.472-0.472 0.459-0.489 0.454c-0.467 0.415-0.759 1.018-0.759 1.689 0 0.576 0.216 1.102 0.572 1.501l-0.002-0.002c0.415 0.467 1.018 0.759 1.689 0.759 0.576 0 1.102-0.216 1.501-0.572l-0.002 0.002 0.044-0.040 0.56-0.525 0.551-0.533 0.538-0.551 0.52-0.56 0.511-0.578 0.494-0.586 0.485-0.595 0.467-0.613 0.454-0.622 0.19-0.278c0.251-0.359 0.401-0.804 0.401-1.285 0-0.765-0.381-1.441-0.963-1.85l-0.007-0.005c-0.359-0.252-0.805-0.402-1.286-0.402-0.142 0-0.282 0.013-0.417 0.038l0.014-0.002zM19.387 56.42c-0.305-0.163-0.666-0.259-1.051-0.259-0.861 0-1.609 0.482-1.99 1.191l-0.006 0.012c-0.165 0.306-0.261 0.669-0.261 1.054 0 0.862 0.483 1.611 1.193 1.991l0.012 0.006 0.154 0.084 0.692 0.344 0.705 0.331 0.714 0.309 0.723 0.295 0.732 0.282 0.741 0.26 0.745 0.242 0.758 0.225 0.763 0.207 0.101 0.022c0.161 0.041 0.346 0.065 0.536 0.065 1.057 0 1.944-0.726 2.19-1.707l0.003-0.016c0.041-0.161 0.065-0.346 0.065-0.536 0-1.057-0.726-1.944-1.707-2.19l-0.016-0.003-0.049-0.009-0.653-0.176-0.648-0.194-0.644-0.207-0.635-0.225-0.626-0.238-0.622-0.256-0.613-0.265-0.604-0.287-0.6-0.295zM41.609 57.765l-0.145 0.053-0.635 0.225-0.639 0.207-0.648 0.194-0.657 0.176-0.661 0.159-0.666 0.145-0.675 0.132-0.679 0.11-0.666 0.093c-1.105 0.159-1.944 1.099-1.944 2.236 0 0.11 0.008 0.219 0.023 0.325l-0.001-0.012c0.159 1.105 1.099 1.944 2.236 1.944 0.11 0 0.219-0.008 0.325-0.023l-0.012 0.001 0.719-0.097 0.794-0.132 0.785-0.15 0.776-0.172 0.772-0.185 0.763-0.207 0.758-0.225 0.75-0.242 0.736-0.26 0.198-0.075c0.857-0.333 1.453-1.152 1.453-2.109 0-0.289-0.054-0.566-0.154-0.82l0.005 0.015c-0.334-0.856-1.152-1.452-2.109-1.452-0.288 0-0.563 0.054-0.816 0.152l0.015-0.005z"></path>
</svg>
