<!-- Generated by IcoMoon.io -->
<svg version="1.1" xmlns="http://www.w3.org/2000/svg" width="72" height="64" viewBox="0 0 72 64">
<path fill="#fff" d="M30.594 25.503c-1.924 2.118-4.688 3.442-7.762 3.442-5.784 0-10.473-4.689-10.473-10.473s4.689-10.473 10.473-10.473c0.002 0 0.003 0 0.005 0h-0c0.018-0 0.039-0 0.060-0 3.054 0 5.798 1.326 7.689 3.433l0.009 0.010h15.127v-8.291c0-1.741-1.411-3.151-3.151-3.151h-39.467c-1.698 0.054-3.055 1.444-3.055 3.15 0 0.001 0 0.001 0 0.002v-0 57.745c0 1.714 1.389 3.103 3.103 3.103v0h39.418c0 0 0 0 0 0 1.724 0 3.124-1.383 3.151-3.1l0-0.003v-35.394z"></path>
<path fill="#e26969" d="M54.691 28.218v-5.818h-25.552c-1.285 2.062-3.54 3.414-6.11 3.414-0.187 0-0.373-0.007-0.556-0.021l0.024 0.002c-3.849-0.24-6.88-3.42-6.88-7.308 0-4.043 3.278-7.321 7.321-7.321 2.601 0 4.884 1.356 6.183 3.399l0.018 0.030h25.6v-5.867l16.824 9.697z"></path>
<path fill="#231f20" d="M31.855 54.303c-0.318 0.039-0.686 0.061-1.059 0.061-2.355 0-4.502-0.888-6.125-2.348l0.008 0.007 2.424-3.733c0.855 0.769 1.991 1.24 3.238 1.24 2.678 0 4.849-2.171 4.849-4.849 0-2.52-1.923-4.592-4.382-4.826l-0.020-0.002c-2.812 0-5.236 4.412-6.158 5.964-3.636 6.449-6.4 8.194-10.036 8.194-4.926-0.215-8.886-4.074-9.259-8.937l-0.002-0.033c-0.004-0.102-0.006-0.221-0.006-0.34 0-4.855 3.679-8.852 8.401-9.353l0.041-0.004c0.32-0.040 0.69-0.063 1.065-0.063 2.338 0 4.468 0.889 6.070 2.348l-0.007-0.007-2.424 3.733c-0.855-0.769-1.991-1.24-3.238-1.24-2.678 0-4.848 2.171-4.848 4.849 0 2.52 1.923 4.592 4.382 4.826l0.020 0.002c2.861 0 5.285-4.412 6.206-5.964 3.636-6.449 6.4-8.049 9.697-8.194 4.537 0.869 7.92 4.806 7.92 9.533 0 4.412-2.946 8.135-6.979 9.311l-0.069 0.017z"></path>
</svg>
