<!-- Generated by IcoMoon.io -->
<svg version="1.1" xmlns="http://www.w3.org/2000/svg" width="29" height="64" viewBox="0 0 29 64">
<path fill="#e26969" d="M3.699 19.682c0.403 2.91 0.679 6.363 0.765 9.864l0.002 0.117 13.4 16.262 3.839-4.537z"></path>
<path fill="#e26969" d="M14.447 49.972l-10.12-12.214c0 2.582-0.419 5.165-0.768 7.677l7.328 8.794z"></path>
<path fill="#e26969" d="M2.443 52.205c-0.698 3.141-1.396 6.281-2.373 9.282-0.039 0.145-0.061 0.312-0.061 0.484 0 1.079 0.875 1.954 1.954 1.954 0.414 0 0.798-0.129 1.114-0.349l-0.006 0.004 4.397-5.234z"></path>
<path fill="#e26969" d="M25.125 37.269l3.141-3.699c0.482-0.36 0.791-0.929 0.791-1.57s-0.309-1.21-0.786-1.567l-0.005-0.004-25.195-30.081c-0.332-0.269-0.759-0.431-1.225-0.431-1.079 0-1.954 0.875-1.954 1.954 0 0.23 0.040 0.45 0.112 0.654l-0.004-0.014c0.698 2.233 1.326 4.467 1.884 6.979z"></path>
</svg>
