<!-- Generated by IcoMoon.io -->
<svg version="1.1" xmlns="http://www.w3.org/2000/svg" width="82" height="64" viewBox="0 0 82 64">
<path fill="#000" d="M40.104 8.866c0 0.021 0 0.045 0 0.069 0 4.935-4 8.935-8.935 8.935s-8.935-4-8.935-8.935c0-4.935 4-8.935 8.935-8.935v0c0.021-0 0.045-0 0.069-0 4.896 0 8.866 3.969 8.866 8.866 0 0 0 0 0 0v0z"></path>
<path fill="#000" d="M42.32 23.411l-0.9 31.862c-0.537 4.933-4.68 8.739-9.712 8.739-0.165 0-0.329-0.004-0.493-0.012l0.023 0.001c-0.023 0-0.051 0-0.079 0-4.903 0-8.905-3.86-9.133-8.707l-0.001-0.020-1.939-31.861c-0.002-0.041-0.004-0.090-0.004-0.139 0-1.415 1.147-2.563 2.563-2.563 0.001 0 0.003 0 0.004 0h1.247c1.951 1.681 4.509 2.706 7.307 2.706s5.357-1.024 7.322-2.718l-0.015 0.012h1.247c0.001 0 0.002 0 0.004 0 1.415 0 2.563 1.147 2.563 2.563 0 0.049-0.001 0.097-0.004 0.145l0-0.007z"></path>
<path fill="#000" d="M20.017 11.29c0.002 0.062 0.002 0.135 0.002 0.208 0 4.896-3.969 8.866-8.866 8.866s-8.866-3.969-8.866-8.866c0-4.896 3.968-8.864 8.863-8.866h0c0.001 0 0.002 0 0.002 0 4.823 0 8.747 3.852 8.863 8.647l0 0.011z"></path>
<path fill="#000" d="M22.234 25.628v26.805c-0.262 4.87-4.241 8.728-9.136 8.796l-0.007 0c-4.918 0-8.104-2.147-9.143-8.797s-3.948-26.805-3.948-26.805c-0.002-0.041-0.004-0.090-0.004-0.139 0-1.415 1.147-2.563 2.563-2.563 0.001 0 0.003 0 0.004 0h-0l2.493-0.346c1.701 1.129 3.79 1.801 6.035 1.801 0.021 0 0.042-0 0.063-0h-0.003c0.009 0 0.020 0 0.030 0 3.21 0 6.103-1.356 8.137-3.526l0.006-0.006c0.486-0.027 1.055-0.043 1.628-0.043s1.141 0.016 1.706 0.047l-0.079-0.003c0 1.524 0 3.602-0.346 5.126z"></path>
<path fill="#000" d="M59.983 8.866c0 4.896-3.969 8.866-8.866 8.866s-8.866-3.969-8.866-8.866c0-4.896 3.969-8.866 8.866-8.866v0c4.896 0 8.866 3.969 8.866 8.866v0z"></path>
<path fill="#000" d="M62.199 23.411l-1.939 31.862c-0.228 4.867-4.23 8.727-9.133 8.727-0.003 0-0.007 0-0.010 0h0.001c-0.274 0.029-0.592 0.045-0.914 0.045-4.947 0-8.99-3.87-9.266-8.748l-0.001-0.024-0.97-31.861c-0.016-0.106-0.024-0.228-0.024-0.353 0-1.351 1.045-2.458 2.371-2.556l0.008-0h1.247c1.999 1.785 4.644 2.884 7.545 2.909l0.005 0c2.785-0.008 5.33-1.029 7.287-2.714l-0.015 0.012h1.247c0.001 0 0.002 0 0.004 0 1.415 0 2.563 1.147 2.563 2.563 0 0.049-0.001 0.097-0.004 0.145l0-0.007z"></path>
<path fill="#000" d="M62.268 11.29c-0.002 0.062-0.002 0.135-0.002 0.208 0 4.896 3.969 8.866 8.866 8.866s8.866-3.969 8.866-8.866c0-4.896-3.968-8.864-8.863-8.866h-0c-0.001 0-0.002 0-0.002 0-4.823 0-8.747 3.852-8.863 8.647l-0 0.011z"></path>
<path fill="#000" d="M82.286 25.628s-2.84 20.225-3.879 26.805-4.294 8.797-9.212 8.797c-4.916-0.033-8.916-3.912-9.142-8.776l-0.001-0.020v-26.805c0-1.524 0-3.74-0.346-5.126 0.486-0.027 1.055-0.043 1.628-0.043s1.141 0.016 1.706 0.047l-0.079-0.003c2.080 2.174 5.003 3.527 8.241 3.532h0.001c0.018 0 0.039 0 0.060 0 2.246 0 4.335-0.672 6.076-1.826l-0.041 0.025 2.424 0.346c0.001 0 0.002 0 0.004 0 1.415 0 2.563 1.147 2.563 2.563 0 0.049-0.001 0.097-0.004 0.145l0-0.007z"></path>
<path fill="#000" d="M38.511 20.502h5.264l-0.346 6.026h-4.779l-0.139-6.026z"></path>
<path fill="#fff" d="M32.208 45.991v-2.147h17.385v2.355zM34.909 44.606l-2.493-0.416 9.212-13.853h2.701zM39.134 51.117v-1.732c0.92-0.52 1.991-0.907 3.128-1.1l0.058-0.008-0.831 2.009v-3.255h4.779v3.255l-0.693-1.87 2.978 0.554v1.801zM41.281 51.117v-18.494l0.346-2.286h4.433v20.779z"></path>
</svg>
