<!-- Generated by IcoMoon.io -->
<svg version="1.1" xmlns="http://www.w3.org/2000/svg" width="64" height="64" viewBox="0 0 64 64">
<path fill="#4f504f" d="M32.012 63.455c-0.006 0-0.013 0-0.020 0-0.446 0-0.85-0.181-1.142-0.474l-0-0-29.83-29.783c-0.308-0.301-0.498-0.721-0.498-1.186s0.191-0.884 0.498-1.185l29.807-29.807c0.299-0.314 0.719-0.509 1.186-0.509s0.887 0.195 1.185 0.508l0.001 0.001 29.783 29.807c0.32 0.296 0.52 0.717 0.52 1.186s-0.2 0.89-0.519 1.185l-0.001 0.001-29.783 29.783c-0.288 0.293-0.689 0.474-1.132 0.474-0.002 0-0.004 0-0.006 0h0z"></path>
<path fill="#fff" d="M32.012 0c-0.002 0-0.005 0-0.007 0-0.6 0-1.143 0.245-1.534 0.64l-29.831 29.831c-0.394 0.395-0.638 0.939-0.638 1.541s0.244 1.147 0.638 1.541v0l29.83 29.83c0.399 0.382 0.942 0.617 1.539 0.617 0.001 0 0.002 0 0.002 0h-0c0.596-0.014 1.135-0.246 1.543-0.618l-0.002 0.002 29.83-29.83c0.383-0.4 0.619-0.943 0.619-1.541s-0.236-1.142-0.62-1.542l0.001 0.001-29.83-29.83c-0.394-0.395-0.939-0.639-1.541-0.64h-0zM32.012 1.115c0.005-0 0.012-0 0.018-0 0.289 0 0.551 0.118 0.74 0.308l29.83 29.83c0.19 0.196 0.308 0.464 0.308 0.759v0c-0.005 0.294-0.122 0.56-0.309 0.759l-29.83 29.83c-0.198 0.187-0.464 0.303-0.758 0.308h-0.001c-0.295-0-0.563-0.118-0.759-0.309l-29.83-29.83c-0.191-0.189-0.308-0.451-0.308-0.741 0-0.006 0-0.013 0-0.019v0.001c-0-0.011-0.001-0.024-0.001-0.038 0-0.284 0.118-0.539 0.309-0.721l29.831-29.831c0.182-0.191 0.438-0.309 0.721-0.309 0.013 0 0.026 0 0.040 0.001l-0.002-0z"></path>
<path fill="#fff" d="M27.080 19.089l-0.996 10.86h-6.948c-0.451 0-0.782 0.427-0.593 0.735l12.781 14.227c0.166 0.188 0.407 0.305 0.676 0.305s0.51-0.118 0.675-0.304l0.001-0.001 12.781-14.227c0.213-0.308-0.142-0.735-0.593-0.735h-6.924l-1.020-10.86c0-0.285-0.474-0.451-0.806-0.285-1.188 0.613-2.594 0.972-4.083 0.972-0.007 0-0.014 0-0.021 0h0.001c-1.504-0.001-2.924-0.36-4.179-0.997l0.053 0.024c-0.308-0.166-0.782 0-0.806 0.285z"></path>
<path fill="#fff" d="M27.72 12.354l-0.308 3.201c-0 0.008-0 0.017-0 0.027 0 0.293 0.161 0.549 0.4 0.683l0.004 0.002c1.090 0.662 2.408 1.053 3.817 1.053 0.134 0 0.266-0.003 0.398-0.010l-0.018 0.001c0.11 0.006 0.238 0.009 0.368 0.009 1.413 0 2.735-0.391 3.863-1.071l-0.034 0.019c0.229-0.133 0.381-0.378 0.381-0.658 0-0.019-0.001-0.037-0.002-0.056l0 0.002-0.285-3.201c0-0.213-0.427-0.332-0.688-0.213-1.050 0.452-2.273 0.715-3.557 0.715s-2.507-0.263-3.617-0.738l0.060 0.023c-0.285 0-0.688 0-0.688 0.213z"></path>
<path fill="#fff" d="M32.012 9.2c-0.006 0-0.013 0-0.020 0-1.189 0-2.323-0.235-3.358-0.662l0.059 0.021c-0.261 0-0.64 0-0.64 0.19v0.545c0.026 0.24 0.172 0.441 0.375 0.544l0.004 0.002c0.948 0.5 2.072 0.793 3.264 0.793 0.136 0 0.272-0.004 0.406-0.011l-0.019 0.001c0.056 0.002 0.121 0.002 0.186 0.002 1.203 0 2.339-0.29 3.341-0.804l-0.041 0.019c0.237-0.166 0.379-0.356 0.356-0.545v-0.545c0-0.19-0.403-0.285-0.64-0.19-0.983 0.402-2.123 0.637-3.319 0.64h-0.001z"></path>
<path fill="#fff" d="M18.425 33.672l1.114 9.295c0.101 0.377 0.282 0.704 0.524 0.974l-0.002-0.002 10.765 11.572c0.322 0.349 0.782 0.568 1.292 0.568s0.971-0.218 1.291-0.566l0.001-0.001 10.647-11.572c0.251-0.262 0.434-0.591 0.519-0.958l0.003-0.014 1.138-9.295-12.947 14.536c-0.163 0.165-0.39 0.267-0.64 0.267s-0.477-0.102-0.64-0.267l-0-0z"></path>
</svg>
