<!-- Generated by IcoMoon.io -->
<svg version="1.1" xmlns="http://www.w3.org/2000/svg" width="64" height="64" viewBox="0 0 64 64">
<path fill="#4f504f" d="M32.012 63.455c-0.006 0-0.013 0-0.020 0-0.446 0-0.85-0.181-1.142-0.474l-0-0-29.83-29.783c-0.308-0.301-0.498-0.721-0.498-1.186s0.191-0.884 0.498-1.185l29.807-29.807c0.299-0.314 0.719-0.509 1.186-0.509s0.887 0.195 1.185 0.508l0.001 0.001 29.783 29.807c0.32 0.296 0.52 0.717 0.52 1.186s-0.2 0.89-0.519 1.185l-0.001 0.001-29.783 29.783c-0.288 0.293-0.689 0.474-1.132 0.474-0.002 0-0.004 0-0.006 0h0z"></path>
<path fill="#fff" d="M32.012 0c-0.002 0-0.005 0-0.007 0-0.6 0-1.143 0.245-1.534 0.64l-29.831 29.831c-0.394 0.395-0.638 0.939-0.638 1.541s0.244 1.147 0.638 1.541v0l29.83 29.83c0.399 0.382 0.942 0.617 1.539 0.617 0.001 0 0.002 0 0.002 0h-0c0.596-0.014 1.135-0.246 1.543-0.618l-0.002 0.002 29.83-29.83c0.383-0.4 0.619-0.943 0.619-1.541s-0.236-1.142-0.62-1.542l0.001 0.001-29.83-29.83c-0.394-0.395-0.939-0.639-1.541-0.64h-0zM32.012 1.115c0.005-0 0.012-0 0.018-0 0.289 0 0.551 0.118 0.74 0.308l29.83 29.83c0.19 0.196 0.308 0.464 0.308 0.759v0c-0.005 0.294-0.122 0.56-0.309 0.759l-29.83 29.83c-0.198 0.187-0.464 0.303-0.758 0.308h-0.001c-0.295-0-0.563-0.118-0.759-0.309l-29.83-29.83c-0.191-0.189-0.308-0.451-0.308-0.741 0-0.006 0-0.013 0-0.019v0.001c-0-0.011-0.001-0.024-0.001-0.038 0-0.284 0.118-0.539 0.309-0.721l29.831-29.831c0.182-0.191 0.438-0.309 0.721-0.309 0.013 0 0.026 0 0.040 0.001l-0.002-0z"></path>
<path fill="#fff" d="M24.661 30.376l-0.948 6.9c0 0.545 0.64 0.877 1.257 0.545 2.050-1.16 4.497-1.859 7.103-1.897l0.011-0c2.617 0.045 5.062 0.743 7.191 1.937l-0.077-0.040c0.593 0.332 1.328 0 1.257-0.545l-1.043-6.9c-0.114-0.525-0.445-0.957-0.892-1.205l-0.009-0.005c-1.719-1.005-3.784-1.598-5.988-1.598-0.162 0-0.324 0.003-0.484 0.010l0.023-0.001c-0.15-0.007-0.326-0.011-0.503-0.011-2.19 0-4.242 0.594-6.003 1.63l0.056-0.030c-0.463 0.244-0.797 0.68-0.899 1.198l-0.002 0.011z"></path>
<path fill="#fff" d="M22.29 46.073l-0.356 2.371c-0.002 0.024-0.003 0.052-0.003 0.080 0 0.511 0.414 0.925 0.925 0.925 0.217 0 0.417-0.075 0.575-0.2l-0.002 0.001c2.409-1.654 5.37-2.67 8.564-2.75l0.020-0c3.205 0.084 6.158 1.1 8.614 2.786l-0.054-0.035c0.156 0.124 0.355 0.199 0.573 0.199 0.511 0 0.925-0.414 0.925-0.925 0-0.028-0.001-0.056-0.004-0.084l0 0.004-0.356-2.371c-0.144-0.864-0.601-1.601-1.249-2.105l-0.008-0.006c-2.202-1.691-4.997-2.71-8.031-2.71-0.145 0-0.288 0.002-0.432 0.007l0.021-0.001c-0.116-0.004-0.252-0.006-0.388-0.006-3.048 0-5.859 1.018-8.11 2.733l0.033-0.024c-0.655 0.51-1.113 1.247-1.254 2.091l-0.003 0.020z"></path>
<path fill="#fff" d="M31.609 9.627l-11.24 6.355c-0.285 0.166-0.142 0.403 0.261 0.403h6.118l-1.328 8.845c0 0.356 0.545 0.545 0.996 0.356 1.643-0.748 3.563-1.185 5.584-1.185s3.942 0.436 5.671 1.22l-0.086-0.035c0.474 0.19 1.043 0 0.996-0.356l-1.328-8.845h6.142c0.379 0 0.545-0.237 0.261-0.403l-11.263-6.355c-0.114-0.056-0.249-0.089-0.391-0.089s-0.277 0.033-0.397 0.092l0.005-0.002z"></path>
<path fill="#fff" d="M25.206 17.713l-0.593 3.96h-2.182c-0.052 0.007-0.112 0.011-0.173 0.011-0.352 0-0.673-0.13-0.919-0.344l0.002 0.001-0.688-3.557z"></path>
<path fill="#fff" d="M43.465 17.713l-0.782 3.628c-0.253 0.251-0.601 0.405-0.985 0.405-0.029 0-0.057-0.001-0.086-0.003l0.004 0h-2.371l-0.593-3.96h4.742z"></path>
</svg>
