<!-- Generated by IcoMoon.io -->
<svg version="1.1" xmlns="http://www.w3.org/2000/svg" width="95" height="64" viewBox="0 0 95 64">
<path fill="#fff" d="M27.78-0.168l-27.78 16.476v31.739l27.78 16.038 27.679-16.038v-10.832h15.010v9.097l24.747-14.303-24.747-14.319v9.080h-15.010v-10.462l-27.679-16.476zM27.78 10.259l18.885 10.866v5.66h-18.464c-0.128-0.011-0.277-0.017-0.427-0.017-0.028 0-0.055 0-0.083 0.001l0.004-0c-0.099 0.004-0.187 0.010-0.274 0.018l0.021-0.002h-0.185v0.017c-2.694 0.231-4.794 2.472-4.801 5.205v0.001c0.016 2.726 2.113 4.958 4.782 5.187l0.020 0.001v0.051h19.407v5.711l-18.885 10.866-18.902-10.866v-21.833l18.902-10.866z"></path>
</svg>
