<!-- Generated by IcoMoon.io -->
<svg version="1.1" xmlns="http://www.w3.org/2000/svg" width="77" height="64" viewBox="0 0 77 64">
<path fill="#fff" d="M72.22 15.163h-15.107c1.35 1.386 2.561 2.919 3.602 4.57l0.068 0.115h11.437v39.468h-62.435c0 2.587 2.097 4.685 4.685 4.685v0h57.751c2.587 0 4.685-2.097 4.685-4.685v0-39.468c0-2.587-2.097-4.685-4.685-4.685v0z"></path>
<path fill="#fff" d="M37.297 7.636c3.084 0.199 5.961 0.715 8.715 1.52l-0.282-0.071v-5.962c0-1.725-1.398-3.123-3.123-3.123v0h-5.684z"></path>
<path fill="#fff" d="M38.015 21.815l0.4 7.621-26.972-13.792 24.161-15.644h-32.481c-1.725 0-3.123 1.398-3.123 3.123v0 57.754c0 1.725 1.398 3.123 3.123 3.123v0h39.468c1.725 0 3.123-1.398 3.123-3.123v0-36.666q-3.173-1.84-7.699-2.395z"></path>
<path fill="#e26969" d="M34.321 10.653c9.875 0.059 17.783 3.176 22.987 9.095 5.822 6.621 7.018 15.425 6.543 23.18 1.993 1.334 3.287 3.576 3.287 6.121 0 4.055-3.287 7.343-7.343 7.343s-7.343-3.287-7.343-7.343c0-2.67 1.426-5.008 3.557-6.293l0.033-0.018c0.531-7.667-1.031-13.767-4.604-17.833-4.372-4.975-11.072-6.334-16.728-6.437l0.29 5.725-17.321-8.867 16.34-10.575z"></path>
<path fill="#000" d="M11.421 19.645c0 0.904-0.733 1.637-1.637 1.637s-1.637-0.733-1.637-1.637v0c0.518 0 1.031-0.378 1.637-0.378 0.497 0 1.068 0.378 1.637 0.378z"></path>
<path fill="#000" d="M8.604 29.089h2.358l-0.381-8.226h-1.596l-0.381 8.226z"></path>
<path fill="#000" d="M15.029 30.082v-0.725l-5.244-0.437-5.244 0.437v0.725l5.244 0.434 5.244-0.434z"></path>
<path fill="#000" d="M14.716 29.72c0-0.001 0-0.002 0-0.003 0-0.464 0.376-0.84 0.84-0.84s0.84 0.376 0.84 0.84c0 0.464-0.376 0.84-0.84 0.84v0c-0.001 0-0.002 0-0.003 0-0.462 0-0.837-0.375-0.837-0.837 0 0 0 0 0 0v0z"></path>
<path fill="#000" d="M3.173 29.72c0-0.001 0-0.002 0-0.003 0-0.464 0.376-0.84 0.84-0.84s0.84 0.376 0.84 0.84c0 0.464-0.376 0.84-0.84 0.84v0c-0.001 0-0.002 0-0.003 0-0.462 0-0.837-0.375-0.837-0.837 0 0 0 0 0 0v0z"></path>
<path fill="#000" d="M7.664 57.966l2.121 2.014 2.117-2.014v-28.037l-2.117 0.253-2.121-0.253v28.037z"></path>
</svg>
