<!-- Generated by IcoMoon.io -->
<svg version="1.1" xmlns="http://www.w3.org/2000/svg" width="66" height="64" viewBox="0 0 66 64">
<path fill="#fff" d="M41.928 58.538l-22.662-17.79 2.436-2.51c2.339-2.283 5.541-3.692 9.072-3.692 0.055 0 0.109 0 0.164 0.001l-0.008-0h1.772l1.033 0.738 5.61 4.060c1.033-1.845 5.389-9.449 6.348-10.999v-25.172c0.001-0.022 0.001-0.048 0.001-0.074 0-1.712-1.388-3.1-3.1-3.1-0 0-0.001 0-0.001 0h-39.419c-1.753 0-3.174 1.421-3.174 3.174v0 57.725c-0.001 0.022-0.001 0.048-0.001 0.075 0 1.712 1.388 3.1 3.1 3.1 0.026 0 0.052-0 0.079-0.001l-0.004 0h39.419c1.712 0 3.1-1.388 3.1-3.1v0-8.637c-0.738 1.329-3.691 6.201-3.691 6.201z"></path>
<path fill="#e26969" d="M59.128 23.326c-1.073-1.095-2.567-1.774-4.22-1.774-0.574 0-1.129 0.082-1.653 0.235l0.042-0.010c-1.181 1.55-8.637 14.764-12.992 22.145-4.724-3.322-9.153-6.57-9.227-6.644-0.103-0.004-0.224-0.006-0.345-0.006-2.784 0-5.289 1.195-7.030 3.099l-0.007 0.007c1.403 0.96 11.885 8.932 17.495 13.509l17.938-30.561z"></path>
<path fill="#fff" d="M65.993 51.451h-3.765v-6.201h3.765v6.274z"></path>
<path fill="#fff" d="M61.416 60.604h-1.919v-3.912h1.919c0.489 0 0.886-0.397 0.886-0.886h3.691c0 2.528-2.049 4.577-4.577 4.577v0zM54.773 60.383h-6.201v-3.691h6.201zM62.155 40.304v-5.758h3.765v6.201z"></path>
<path fill="#fff" d="M65.993 12.401h-3.765v6.274h3.765v-6.274z"></path>
<path fill="#fff" d="M65.993 7.972h-3.691c0-0.001 0-0.002 0-0.003 0-0.448-0.364-0.812-0.812-0.812-0.026 0-0.052 0.001-0.077 0.004l0.003-0h-1.919v-3.765h1.919c2.528 0 4.577 2.049 4.577 4.577v0zM54.847 7.16h-6.275v-3.765h6.275zM65.993 23.474v6.201h-3.765v-6.201z"></path>
</svg>
