<!-- Generated by IcoMoon.io -->
<svg version="1.1" xmlns="http://www.w3.org/2000/svg" width="80" height="64" viewBox="0 0 80 64">
<path fill="#fff" d="M77.673 40.097h-0.291l-2.764-0.679c-0.522-0.122-0.905-0.584-0.905-1.135 0-0.096 0.012-0.19 0.034-0.28l-0.002 0.008c0.161-0.523 0.641-0.897 1.207-0.897 0.088 0 0.173 0.009 0.256 0.026l-0.008-0.001 2.667 0.63c0.525 0.098 0.916 0.552 0.916 1.097 0 0.11-0.016 0.216-0.046 0.317l0.002-0.008c-0.096 0.527-0.551 0.921-1.098 0.921-0.006 0-0.012-0-0.018-0h0.001z"></path>
<path fill="#fff" d="M36.509 63.952h-0.291l-5.236-1.261c-0.525-0.141-0.906-0.612-0.906-1.173 0-0.1 0.012-0.197 0.035-0.29l-0.002 0.008c0.14-0.525 0.612-0.906 1.173-0.906 0.1 0 0.197 0.012 0.29 0.035l-0.008-0.002 5.188 1.261c0.522 0.122 0.905 0.584 0.905 1.135 0 0.096-0.012 0.19-0.034 0.28l0.002-0.008c-0.096 0.527-0.551 0.921-1.098 0.921-0.006 0-0.012-0-0.018-0h0.001zM41.745 63.952c-0.521-0.011-0.953-0.377-1.065-0.865l-0.001-0.008c-0.063-0.139-0.1-0.301-0.1-0.472 0-0.486 0.299-0.903 0.722-1.077l0.008-0.003h0.291l4.17-2.473c0.173-0.107 0.382-0.17 0.606-0.17 0.419 0 0.786 0.221 0.991 0.553l0.003 0.005c0.121 0.181 0.193 0.403 0.193 0.641 0 0.428-0.231 0.802-0.575 1.004l-0.005 0.003-4.17 2.473c-0.164 0.129-0.359 0.229-0.57 0.288l-0.012 0.003c-0.073 0.020-0.156 0.031-0.242 0.031s-0.17-0.011-0.249-0.032l0.007 0.002zM26.133 61.479h-0.339l-5.236-1.406c-0.522-0.122-0.905-0.584-0.905-1.135 0-0.096 0.012-0.19 0.034-0.28l-0.002 0.008c0.105-0.515 0.555-0.897 1.094-0.897 0.185 0 0.359 0.045 0.513 0.124l-0.006-0.003 4.848 1.212c0.51 0.151 0.876 0.615 0.876 1.164 0 0.653-0.517 1.186-1.164 1.211l-0.002 0zM15.418 58.958h-0.097l-5.188-1.261c-0.525-0.141-0.906-0.612-0.906-1.173 0-0.1 0.012-0.197 0.035-0.29l-0.002 0.008c0.062-0.59 0.557-1.045 1.158-1.045 0.088 0 0.174 0.010 0.256 0.028l-0.008-0.001 5.236 1.261c0.522 0.122 0.905 0.584 0.905 1.135 0 0.096-0.012 0.19-0.034 0.28l0.002-0.008c-0.116 0.53-0.581 0.922-1.138 0.922-0.009 0-0.018-0-0.027-0h0.001zM50.958 58.23c-0.425-0.024-0.793-0.247-1.015-0.577l-0.003-0.005c-0.091-0.17-0.145-0.372-0.145-0.587 0-0.444 0.229-0.834 0.576-1.059l0.005-0.003 4.606-2.715c0.173-0.107 0.382-0.17 0.606-0.17 0.419 0 0.786 0.221 0.991 0.553l0.003 0.005c0.121 0.181 0.193 0.403 0.193 0.641 0 0.428-0.231 0.802-0.575 1.004l-0.005 0.003-4.606 2.715c-0.094 0.033-0.202 0.053-0.315 0.053s-0.221-0.019-0.322-0.055l0.007 0.002zM5.188 56.145h-0.291l-2.57-0.63c-2.133-0.485-2.327-1.697-2.327-2.182 0.012-0.654 0.331-1.232 0.819-1.596l0.005-0.004c0.211-0.211 0.502-0.342 0.824-0.342s0.613 0.131 0.824 0.342l0 0c0.112 0.171 0.179 0.381 0.179 0.606s-0.067 0.435-0.182 0.61l0.003-0.004h0.242l2.618 0.582c0.51 0.151 0.876 0.615 0.876 1.164 0 0.653-0.517 1.186-1.164 1.211l-0.002 0zM60.073 52.849c-0.419-0.004-0.789-0.212-1.016-0.529l-0.003-0.004c-0.091-0.17-0.145-0.372-0.145-0.587 0-0.444 0.229-0.834 0.576-1.059l0.005-0.003 4.606-2.764c0.173-0.105 0.382-0.167 0.606-0.167 0.654 0 1.185 0.53 1.185 1.185 0 0.431-0.23 0.808-0.573 1.015l-0.005 0.003-4.606 2.764c-0.095 0.024-0.203 0.037-0.315 0.037s-0.221-0.014-0.324-0.039l0.009 0.002zM6.061 51.248c-0.425-0.024-0.793-0.247-1.015-0.577l-0.003-0.005c-0.109-0.178-0.174-0.395-0.174-0.626 0-0.428 0.222-0.804 0.557-1.020l0.005-0.003 4.848-2.715c0.181-0.121 0.403-0.193 0.641-0.193 0.428 0 0.802 0.231 1.004 0.575l0.003 0.005c0.101 0.173 0.161 0.382 0.161 0.604 0 0.443-0.237 0.83-0.592 1.042l-0.006 0.003-4.848 2.715c-0.086 0.034-0.186 0.053-0.291 0.053s-0.205-0.019-0.297-0.055l0.006 0.002zM69.333 47.030c-0.009 0-0.020 0-0.031 0-0.437 0-0.819-0.231-1.033-0.577l-0.003-0.005c-0.089-0.164-0.141-0.36-0.141-0.567 0-0.435 0.229-0.816 0.572-1.030l0.005-0.003 4.606-2.764c0.173-0.105 0.382-0.167 0.606-0.167 0.654 0 1.185 0.531 1.185 1.185 0 0.431-0.23 0.808-0.573 1.015l-0.005 0.003-4.606 2.764h-0.582zM69.77 38.206h-0.291l-5.236-1.261c-0.525-0.141-0.906-0.612-0.906-1.173 0-0.1 0.012-0.197 0.035-0.29l-0.002 0.008c0.141-0.525 0.612-0.906 1.173-0.906 0.1 0 0.197 0.012 0.29 0.035l-0.008-0.002 5.188 1.212c0.525 0.098 0.916 0.552 0.916 1.097 0 0.11-0.016 0.216-0.046 0.317l0.002-0.008c-0.096 0.527-0.551 0.921-1.098 0.921-0.006 0-0.012-0-0.018-0h0.001z"></path>
<path fill="#fff" d="M78.642 41.891c-0.393-0.008-0.742-0.195-0.968-0.482l-0.002-0.003c-0.111-0.18-0.177-0.397-0.177-0.63s0.066-0.451 0.18-0.636l-0.003 0.005c-0.523-0.161-0.897-0.641-0.897-1.207 0-0.088 0.009-0.173 0.026-0.256l-0.001 0.008c0.122-0.522 0.584-0.905 1.135-0.905 0.096 0 0.19 0.012 0.28 0.034l-0.008-0.002c1.794 0.436 2.23 1.358 2.327 1.842 0.008 0.066 0.012 0.142 0.012 0.22 0 0.766-0.433 1.431-1.068 1.763l-0.011 0.005c-0.186 0.145-0.421 0.235-0.677 0.242l-0.002 0z"></path>
<path fill="#fff" d="M43.83 43.006c-1.379 0.733-3.015 1.164-4.751 1.164-0.034 0-0.068-0-0.102-0.001l0.005 0c-0.826-0.004-1.629-0.092-2.404-0.256l0.077 0.014-34.764-8.097h-0.679v8.242s0 0.63 0.921 0.873l35.2 8.436c0.501 0.124 1.076 0.195 1.668 0.195 1.332 0 2.58-0.361 3.651-0.989l-0.034 0.018 35.83-21.624c0.371-0.142 0.63-0.495 0.63-0.908 0-0.005 0-0.009-0-0.014v0.001-8.097z"></path>
<path fill="#fff" d="M77.673 16.776l-25.842-6.158-3.345 3.733 6.739 7.806 1.891 2.376-2.133 2.133c-2.65 2.4-6.084 3.979-9.875 4.311l-0.064 0.005c-0.059 0.002-0.128 0.004-0.197 0.004-1.468 0-2.791-0.615-3.728-1.602l-0.002-0.002-3.055-3.248c-5.673 6.012-6.303 6.545-6.642 6.836-1.062 0.957-2.474 1.545-4.023 1.551h-0.001c-2.611-0.243-4.831-1.724-6.089-3.842l-0.020-0.037-1.455-2.279 1.891-1.939 5.139-5.915 3.442-3.782-1.697-2.036-26.715 15.951c-1.115 0.679-0.776 1.503 0.776 1.891l34.667 8.145c0.5 0.121 1.074 0.19 1.664 0.19 1.158 0 2.253-0.267 3.228-0.743l-0.044 0.019 36.267-21.624c1.115-0.63 0.776-1.503-0.776-1.891z"></path>
<path fill="#e26969" d="M54.691 2.279c-0.679-1.067-2.861-3.539-5.139-1.552-0.776 0.63-4.509 4.848-8.921 9.697l-5.527-6.594c-1.551-1.697-7.030 1.358-8.63 2.958l8.339 9.988-10.764 12.024c0.679 1.067 2.861 3.539 5.139 1.6 0.776-0.679 4.558-4.849 8.97-9.697l5.479 6.594c1.551 1.648 7.079-1.406 8.679-3.006l-8.388-9.988 10.764-12.024z"></path>
</svg>
