<!-- Generated by IcoMoon.io -->
<svg version="1.1" xmlns="http://www.w3.org/2000/svg" width="64" height="64" viewBox="0 0 64 64">
<path fill="#3d833e" d="M32 62.33c-0.001 0-0.003 0-0.004 0-0.431 0-0.821-0.175-1.103-0.459l-28.764-28.764c-0.61-0.611-0.61-1.604 0-2.215l28.764-28.765c0.282-0.283 0.672-0.459 1.103-0.459 0.001 0 0.003 0 0.004 0h-0c0.001 0 0.003 0 0.004 0 0.431 0 0.821 0.175 1.103 0.459l28.764 28.765c0.61 0.611 0.61 1.604 0 2.215l-28.764 28.764c-0.282 0.283-0.672 0.459-1.103 0.459-0.002 0-0.003 0-0.004 0h0z"></path>
<path fill="#fff" d="M32 1.136c-0.001 0-0.002 0-0.003 0-0.579 0-1.103 0.235-1.482 0.615l-28.764 28.764c-0.82 0.82-0.82 2.149 0 2.969l28.764 28.764c0.379 0.38 0.903 0.615 1.482 0.615 0.001 0 0.002 0 0.003 0h-0c0.001 0 0.002 0 0.003 0 0.579 0 1.103-0.235 1.482-0.615l28.764-28.764c0.82-0.82 0.82-2.149 0-2.969l-28.764-28.764c-0.379-0.38-0.903-0.615-1.482-0.615-0.001 0-0.002 0-0.003 0h0zM32 2.203c0.001 0 0.002 0 0.003 0 0.284 0 0.542 0.116 0.727 0.302l28.765 28.765c0.187 0.186 0.302 0.443 0.302 0.727 0 0.001 0 0.002 0 0.003v-0c0 0.001 0 0.002 0 0.003 0 0.284-0.116 0.542-0.302 0.727l-28.765 28.764c-0.186 0.187-0.443 0.303-0.727 0.303-0.001 0-0.002 0-0.003 0h0c-0.001 0-0.002 0-0.003 0-0.284 0-0.542-0.116-0.727-0.302l-28.764-28.764c-0.187-0.186-0.303-0.443-0.303-0.727 0-0.001 0-0.002 0-0.003v0c0-0.001 0-0.002 0-0.003 0-0.284 0.116-0.542 0.302-0.727l28.764-28.764c0.186-0.187 0.443-0.302 0.727-0.302 0.001 0 0.002 0 0.003 0h-0z"></path>
<path fill="#fff" d="M21.203 20.059c-3.294 2.332-3.545 6.194-3.545 9.79v15.374h8.608c1.469 0 2.659-1.19 2.659-2.659v-12.363c0-2.243 0.873-5.32 5.355-6.069-1.694-3.575-5.044-4.164-8.079-4.164-0.653 0-1.272 0.028-1.818 0.053-0.457 0.021-0.852 0.038-1.205 0.038z"></path>
<path fill="#fff" d="M37.288 41.065l5.111 4.425 10.221-8.853h-4.638v-7.321c0-5.648-0.609-11.956-12.674-11.956-0.792 0-1.834-0.024-2.998-0.024-2.85 0-6.431 0.144-8.866 1.134 0.748 0 1.814-0.091 3.023-0.091 4.249 0 10.246 1.126 10.246 11.288v6.97h-4.536l4.536 3.929z"></path>
</svg>
