<!-- Generated by IcoMoon.io -->
<svg version="1.1" xmlns="http://www.w3.org/2000/svg" width="65" height="64" viewBox="0 0 65 64">
<path fill="#7f3b2a" d="M32.354 63.447c-0.001 0-0.003 0-0.004 0-0.447 0-0.852-0.182-1.144-0.475l-29.818-29.824c-0.294-0.294-0.476-0.7-0.476-1.148s0.182-0.854 0.476-1.148l29.818-29.818c0.294-0.294 0.7-0.476 1.148-0.476s0.854 0.182 1.148 0.476l29.824 29.818c0.294 0.294 0.475 0.7 0.475 1.148s-0.182 0.854-0.475 1.148l-29.824 29.824c-0.292 0.294-0.697 0.476-1.144 0.476-0.001 0-0.003 0-0.004 0h0z"></path>
<path fill="#fff" d="M1.107 31.339c-0.1 0.204-0.158 0.445-0.158 0.699 0 0.43 0.167 0.821 0.44 1.111l-0.001-0.001 2.060 2.060 11.974-2.023c1.046-0.176 1.019-0.754-0.040-0.829l-14.275-1.017z"></path>
<path fill="#fff" d="M12.6 19.64l-2.473 2.473 9.777 4.279c0.857 0.372 1.161-0.074 0.442-0.64l-7.746-6.112z"></path>
<path fill="#fff" d="M60.813 28.34l-17.92 2.345c-1.293 0.284-1.228 0.978 0.094 0.995l20.812 0.295c-0.006-0.439-0.186-0.835-0.473-1.123l-2.513-2.512z"></path>
<path fill="#fff" d="M16.962 41.135c-0.153-0.008-0.348 0.041-0.574 0.165l-4.423 2.426 1.929 1.93 3.060-3.348c0.551-0.602 0.467-1.148 0.008-1.173z"></path>
<path fill="#fff" d="M49.929 17.458l-4.934 5.383c-0.492 0.536-0.164 0.952 0.472 0.596l6.696-3.745-2.234-2.233z"></path>
<path fill="#fff" d="M45.263 38.739c-0.484 0.006-0.498 0.339 0.131 0.651l7.842 3.925 2.201-2.201-9.765-2.322c-0.16-0.038-0.297-0.054-0.409-0.053z"></path>
<path fill="#fff" d="M32.354 1.106c0.001 0 0.002 0 0.003 0 0.295 0 0.562 0.12 0.755 0.314l29.822 29.822c0.194 0.194 0.314 0.462 0.314 0.758s-0.12 0.564-0.314 0.758l-29.822 29.822c-0.194 0.194-0.462 0.314-0.758 0.314s-0.564-0.12-0.758-0.314v0l-29.822-29.822c-0.194-0.194-0.314-0.462-0.314-0.758s0.12-0.564 0.314-0.758l29.822-29.822c0.193-0.194 0.46-0.314 0.755-0.314 0.001 0 0.002 0 0.003 0h-0zM32.354 0c-0.001 0-0.002 0-0.003 0-0.6 0-1.144 0.244-1.536 0.638l-29.822 29.822c-0.394 0.394-0.638 0.938-0.638 1.539s0.244 1.146 0.638 1.539l29.822 29.822c0.394 0.394 0.938 0.638 1.539 0.638s1.146-0.244 1.539-0.638l29.822-29.822c0.394-0.394 0.638-0.938 0.638-1.539s-0.244-1.146-0.638-1.539l-29.822-29.822c-0.393-0.394-0.936-0.638-1.536-0.638-0.001 0-0.002 0-0.003 0h0z"></path>
<path fill="#fff" d="M36.058 30.067c-0.221 2.262 0.693 6.049 0.781 6.369 0.071 0.273 0.053 1.712 0.017 3.053-0.012 0.417-0.027 0.824-0.040 1.183 1.659 0.712 3.721 0.509 5.378 1.754 1.335 1.004 2.196 3.118 2.48 3.896 0.009 0.026 0.015 0.055 0.015 0.086 0 0.017-0.002 0.035-0.005 0.051l0-0.002c-0.021 0.034-0.044 0.069-0.067 0.102-0.082 0.040-0.177 0.081-0.282 0.124-0.136 0.057-0.29 0.111-0.462 0.177-1.924 0.685-6.041 1.641-10.829 1.322 0 0-4.934-3.539-5.308-3.836-1.096-1.616-0.852-3.428-2.557-4.361-0.442-0.245-1.106-0.234-1.867-0.032-0.752-0.669-1.892-2.263-2.623-3.336-0.279-0.409-0.498-0.742-0.614-0.921-0.036-0.056-0.057-0.124-0.057-0.197 0-0.038 0.006-0.075 0.017-0.11l-0.001 0.003c0.259-0.763 0.571-1.42 0.947-2.035l-0.025 0.044c0.2-0.323 0.738-0.995 1.381-1.777 1.378-1.668 3.245-3.814 3.365-4.018 0.681-1.165 2.466-7.218 2.523-7.506 0.037-0.202-0.071-2.047-0.137-3.097-0.011-0.181-0.021-0.332-0.030-0.458-0-0.004-0-0.010-0-0.015 0-0.144 0.112-0.261 0.254-0.269l0.001-0c1.652-0.104 3.617 0.366 3.617 0.366s0.046-0.664 0.125-1.128c0.022-0.109 0.117-0.191 0.231-0.191 0.025 0 0.049 0.004 0.071 0.011l-0.002-0c3.89 1.13 7.442 3.192 9.335 5.574 0.043 0.055 0.069 0.126 0.069 0.203 0 0.098-0.042 0.186-0.11 0.247l-0 0c-0.544 0.499-1.355 1.447-2.185 2.544l-3.365-1.866c-0.134-0.076-0.294-0.12-0.465-0.12-0.529 0-0.958 0.429-0.958 0.958 0 0.358 0.197 0.671 0.489 0.835l0.005 0.003 0.587 0.325 2.579 1.432c-0.549 0.776-1.107 1.676-1.611 2.608l-0.071 0.143z"></path>
<path fill="#7f3b2a" d="M34.449 34.502l-3.526-3.523-4.951 6.135-2.41-3.86-3.719 2.163-0.24-3.279 4-2.342 2.374 3.678 4.718-6.329 3.636 2.791 3.864-4.047 0.575 5.845-4.322 2.768z"></path>
</svg>
