<!-- Generated by IcoMoon.io -->
<svg version="1.1" xmlns="http://www.w3.org/2000/svg" width="64" height="64" viewBox="0 0 64 64">
<path fill="#5b9977" d="M32 63.447c-0.001 0-0.003 0-0.004 0-0.447 0-0.852-0.182-1.144-0.475l-29.818-29.824c-0.293-0.294-0.475-0.7-0.475-1.148s0.181-0.854 0.475-1.148l29.818-29.818c0.294-0.294 0.7-0.476 1.148-0.476s0.854 0.182 1.148 0.476l29.824 29.818c0.294 0.294 0.475 0.7 0.475 1.148s-0.182 0.854-0.475 1.148l-29.824 29.824c-0.292 0.294-0.697 0.476-1.144 0.476-0.001 0-0.003 0-0.004 0h0z"></path>
<path fill="#fff" d="M32 1.106c0.001 0 0.002 0 0.003 0 0.295 0 0.562 0.12 0.755 0.314l29.822 29.822c0.194 0.194 0.314 0.462 0.314 0.758s-0.12 0.564-0.314 0.758l-29.822 29.822c-0.194 0.194-0.462 0.314-0.758 0.314s-0.564-0.12-0.758-0.314v0l-29.822-29.822c-0.194-0.194-0.314-0.462-0.314-0.758s0.12-0.564 0.314-0.758l29.822-29.822c0.193-0.194 0.46-0.314 0.755-0.314 0.001 0 0.002 0 0.003 0h-0zM32 0c-0.001 0-0.002 0-0.003 0-0.6 0-1.144 0.244-1.536 0.638l-29.822 29.822c-0.394 0.394-0.638 0.938-0.638 1.539s0.244 1.146 0.638 1.539l29.822 29.822c0.394 0.394 0.938 0.638 1.539 0.638s1.146-0.244 1.539-0.638l29.822-29.822c0.394-0.394 0.638-0.938 0.638-1.539s-0.244-1.146-0.638-1.539l-29.822-29.822c-0.393-0.394-0.936-0.638-1.536-0.638-0.001 0-0.002 0-0.003 0h0z"></path>
<path fill="#fff" d="M26.997 18.328c-0.327-0.004-0.654 0.005-0.981 0.027-1.383 0.092-2.747 0.413-4.026 0.948-0.423 0.181-0.714 0.593-0.714 1.074 0 0.162 0.033 0.317 0.093 0.457l-0.003-0.008c0.181 0.423 0.593 0.714 1.074 0.714 0.162 0 0.317-0.033 0.457-0.093l-0.008 0.003c1.040-0.436 2.156-0.698 3.282-0.773h0.001c1.064-0.071 2.141 0.025 3.175 0.283 0.085 0.022 0.182 0.035 0.283 0.035 0.543 0 0.998-0.371 1.127-0.873l0.002-0.008c0.022-0.085 0.035-0.182 0.035-0.283 0-0.543-0.371-0.998-0.873-1.127l-0.008-0.002c-0.953-0.239-1.933-0.364-2.914-0.375zM36.93 18.328c-0.681 0.012-1.362 0.078-2.033 0.2-0.547 0.102-0.956 0.576-0.956 1.145 0 0.073 0.007 0.145 0.020 0.215l-0.001-0.007c0.102 0.547 0.576 0.956 1.145 0.956 0.073 0 0.145-0.007 0.215-0.020l-0.007 0.001c1.092-0.198 2.22-0.217 3.318-0.056h0.001c1.022 0.149 2.024 0.454 2.955 0.901l0.075 0.036 0.066 0.033c0.15 0.076 0.328 0.121 0.516 0.121 0.455 0 0.849-0.261 1.040-0.642l0.003-0.007c0.076-0.15 0.121-0.328 0.121-0.516 0-0.455-0.261-0.849-0.642-1.040l-0.007-0.003-0.074-0.037-0.091-0.044c-1.145-0.549-2.37-0.923-3.626-1.106l0 0c-0.675-0.099-1.357-0.142-2.038-0.131zM17.719 22.707c-0.317 0.039-0.59 0.2-0.775 0.433l-0.002 0.002c-0.059 0.075-0.117 0.151-0.173 0.226-0.796 1.060-1.422 2.244-1.849 3.499-0 0-0 0-0 0s0 0 0 0c-0.412 1.207-0.638 2.474-0.67 3.748-0 0.009-0 0.019-0 0.029 0 0.633 0.505 1.147 1.133 1.164h0.002c0.009 0 0.019 0 0.029 0 0.633 0 1.147-0.505 1.164-1.134v-0.002c0.026-1.037 0.211-2.073 0.546-3.055v-0l0-0c0.348-1.021 0.86-1.99 1.508-2.853v-0c0.047-0.062 0.093-0.123 0.14-0.183 0.155-0.196 0.25-0.447 0.25-0.72 0-0.37-0.172-0.699-0.441-0.913l-0.002-0.002c-0.196-0.156-0.447-0.25-0.72-0.25-0.048 0-0.096 0.003-0.143 0.009l0.006-0.001zM46.8 23.324c-0.064-0.013-0.138-0.020-0.214-0.020-0.246 0-0.474 0.076-0.662 0.206l0.004-0.003c-0.307 0.213-0.506 0.563-0.506 0.96 0 0.246 0.076 0.474 0.206 0.662l-0.002-0.004c0.649 0.947 1.139 2.006 1.439 3.114l0 0v0c0.274 1.009 0.393 2.063 0.35 3.108-0.001 0.014-0.001 0.031-0.001 0.048 0 0.626 0.494 1.137 1.114 1.163l0.002 0c0.014 0.001 0.031 0.001 0.048 0.001 0.626 0 1.137-0.494 1.163-1.114l0-0.002c0.053-1.285-0.093-2.574-0.43-3.814l-0-0c-0.37-1.361-0.968-2.657-1.766-3.821-0.173-0.249-0.435-0.426-0.739-0.485l-0.007-0.001zM17.050 35.171c-0.113-0.040-0.243-0.063-0.379-0.063-0.186 0-0.361 0.044-0.517 0.121l0.007-0.003c-0.39 0.194-0.654 0.589-0.654 1.046 0 0.186 0.043 0.361 0.121 0.517l-0.003-0.007c0.439 0.899 0.97 1.745 1.57 2.532l0.001 0.001 0.001 0.001c0.969 1.265 2.040 2.439 3.175 3.534 0.209 0.202 0.494 0.326 0.808 0.326 0.329 0 0.626-0.136 0.838-0.356l0-0c0.202-0.209 0.326-0.494 0.326-0.808 0-0.329-0.136-0.626-0.356-0.838l-0-0c-1.063-1.025-2.055-2.114-2.943-3.273-0.513-0.672-0.961-1.389-1.327-2.14-0.137-0.276-0.372-0.487-0.659-0.588l-0.008-0.002zM46.663 35.816c-0.302 0.087-0.548 0.285-0.697 0.546l-0.003 0.006c-0.325 0.581-0.701 1.138-1.116 1.669l-0.001 0.001-0.001 0.002c-0.892 1.147-1.885 2.225-2.947 3.239-0.138 0.132-0.277 0.263-0.417 0.392-0.23 0.213-0.374 0.517-0.374 0.855 0 0.305 0.118 0.583 0.31 0.791l-0.001-0.001c0.213 0.23 0.517 0.374 0.855 0.374 0.305 0 0.583-0.118 0.791-0.31l-0.001 0.001c0.15-0.138 0.298-0.278 0.444-0.418h0c1.133-1.082 2.203-2.242 3.175-3.491l0-0c0.483-0.618 0.926-1.274 1.313-1.966 0.093-0.164 0.148-0.36 0.148-0.569 0-0.434-0.237-0.812-0.589-1.013l-0.006-0.003c-0.164-0.093-0.36-0.148-0.569-0.148-0.112 0-0.221 0.016-0.324 0.046l0.008-0.002zM25.467 44.594c-0.315 0.048-0.583 0.217-0.761 0.456l-0.002 0.003c-0.143 0.191-0.228 0.432-0.228 0.692 0 0.382 0.184 0.721 0.468 0.933l0.003 0.002c1.304 0.965 2.641 1.873 3.998 2.742 0 0 0 0 0 0s0 0 0.001 0c0.283 0.182 0.582 0.338 0.893 0.466 0.685 0.283 1.42 0.429 2.162 0.429 0 0 0.001 0 0.001 0s0.001-0 0.001-0c0.303-0 0.605-0.025 0.904-0.073 0.732-0.119 1.434-0.381 2.065-0.771l0.007-0.004 0.007-0.005c1.167-0.745 2.319-1.521 3.447-2.334 0.294-0.214 0.483-0.557 0.483-0.944 0-0.256-0.082-0.492-0.222-0.684l0.002 0.003c-0.214-0.294-0.557-0.483-0.944-0.483-0.256 0-0.492 0.082-0.684 0.222l0.003-0.002c-1.084 0.782-2.196 1.53-3.327 2.253-0.367 0.227-0.784 0.382-1.21 0.451h-0c-0.176 0.029-0.355 0.043-0.533 0.043-0 0-0 0-0 0v0c0.006 0.003 0.006 0.003 0.006 0.003l-0.007-0.003c-0.432 0.001-0.87-0.086-1.27-0.252l-0-0-0-0c-0.183-0.076-0.359-0.168-0.526-0.275l-0.001-0.001c-1.322-0.846-2.617-1.726-3.87-2.653-0.191-0.143-0.432-0.228-0.692-0.228-0.061 0-0.12 0.005-0.178 0.014l0.006-0.001z"></path>
<path fill="#fff" d="M36.895 24.103c-0.003 0-0.006 0-0.010 0-1.903 0-3.629 0.763-4.886 2l0.001-0.001c-1.26-1.237-2.989-2-4.896-2-3.862 0-6.993 3.131-6.993 6.993 0 0 0 0.001 0 0.002v-0c0 1.246 0.325 3.063 1.818 4.999 2.488 3.224 6.041 5.941 9.853 8.383 0.062 0.040 0.137 0.064 0.218 0.064s0.156-0.024 0.219-0.065l-0.002 0.001c3.813-2.442 7.365-5.159 9.854-8.383 1.493-1.935 1.817-3.752 1.817-4.999 0-3.863-3.131-6.994-6.994-6.994v0z"></path>
</svg>
