<!-- Generated by IcoMoon.io -->
<svg version="1.1" xmlns="http://www.w3.org/2000/svg" width="54" height="64" viewBox="0 0 54 64">
<path fill="#fff" d="M47.68 12.16c-1.846-1.772-3.105-4.142-3.468-6.797l-0.007-0.060c-0.124 0.002-0.271 0.003-0.418 0.003-3.444 0-6.76-0.553-9.862-1.575l0.223 0.063c-2.774-1.024-5.175-2.304-7.365-3.859l0.097 0.065c-2.082 1.501-4.465 2.794-7.007 3.768l-0.216 0.072c-2.84 0.931-6.109 1.468-9.503 1.468-0.195 0-0.389-0.002-0.583-0.005l0.029 0c-0.404 2.715-1.674 5.079-3.516 6.854l-0.004 0.004c-1.816 1.832-3.804 3.487-5.941 4.939l-0.139 0.089s1.189 24.183 9.143 33.463c4.86 5.578 10.798 10.082 17.505 13.213l0.323 0.136c7.031-3.267 12.968-7.77 17.775-13.286l0.054-0.063c7.863-9.143 9.143-33.463 9.143-33.463-2.292-1.549-4.295-3.204-6.127-5.030l0.001 0.001z"></path>
</svg>
