<!-- Generated by IcoMoon.io -->
<svg version="1.1" xmlns="http://www.w3.org/2000/svg" width="74" height="64" viewBox="0 0 74 64">
<path d="M69.135 30.359c-0.946-16.951-14.923-30.339-32.027-30.339-13.749 0-25.478 8.652-30.039 20.808l-0.073 0.221 9.317-9.486 2.578 9.259c3.835-6.159 10.57-10.197 18.247-10.197 10.224 0 18.775 7.161 20.911 16.741l0.027 0.143-4.466-1.153 5.686 20.419 14.84-15.132z"></path>
<path d="M57.825 52.436l-2.578-9.259c-3.836 6.158-10.57 10.196-18.248 10.196-10.224 0-18.775-7.16-20.913-16.739l-0.027-0.143 4.466 1.15-5.686-20.419-14.84 15.137 4.988 1.286c0.956 16.945 14.93 30.324 32.028 30.324 13.746 0 25.473-8.647 30.038-20.798l0.073-0.221z"></path>
</svg>
