<!-- Generated by IcoMoon.io -->
<svg version="1.1" xmlns="http://www.w3.org/2000/svg" width="64" height="64" viewBox="0 0 64 64">
<path fill="#2e4668" d="M32 63.447c-0.002 0-0.003 0-0.005 0-0.446 0-0.85-0.181-1.141-0.474l-29.826-29.826c-0.293-0.294-0.474-0.699-0.474-1.146s0.181-0.853 0.474-1.146l29.826-29.827c0.294-0.293 0.699-0.474 1.147-0.474s0.853 0.181 1.147 0.474v0l29.826 29.827c0.293 0.294 0.474 0.699 0.474 1.146s-0.181 0.853-0.474 1.146l-29.826 29.826c-0.292 0.293-0.695 0.474-1.141 0.474-0.002 0-0.004 0-0.006 0h0z"></path>
<path fill="#fff" d="M32 1.106c0.001 0 0.002 0 0.003 0 0.295 0 0.562 0.12 0.755 0.313l29.822 29.822c0.193 0.195 0.313 0.463 0.313 0.759s-0.12 0.564-0.313 0.759l-29.822 29.822c-0.194 0.193-0.463 0.313-0.759 0.313s-0.564-0.12-0.759-0.313l-29.822-29.822c-0.194-0.194-0.313-0.463-0.313-0.759s0.12-0.564 0.313-0.759l29.822-29.822c0.193-0.193 0.46-0.313 0.756-0.313 0.001 0 0.002 0 0.003 0h-0zM32 0c-0 0-0 0-0.001 0-0.601 0-1.145 0.244-1.537 0.639l-29.822 29.822c-0.395 0.393-0.639 0.937-0.639 1.538s0.244 1.145 0.639 1.538l29.822 29.822c0.393 0.395 0.937 0.639 1.538 0.639s1.145-0.244 1.538-0.639l29.822-29.822c0.395-0.393 0.639-0.937 0.639-1.538s-0.244-1.145-0.639-1.538l-29.822-29.822c-0.393-0.395-0.937-0.639-1.538-0.639-0 0-0.001 0-0.001 0h0z"></path>
<path fill="#fff" d="M40.947 36.628l13.127-5.083-13.325-4.538 3.376-7.641-7.496 3.686-5.083-13.128-4.539 13.326-7.641-3.376 3.686 7.496-13.127 5.083 13.325 4.538-3.376 7.641 7.496-3.686 5.083 13.128 4.538-13.326 7.642 3.376-3.686-7.496z"></path>
<path fill="#2e4668" d="M29.537 37.321l-3.48 0.874 1.031-3.574-7.455-2.363 7.317-2.723-1.142-3.477 3.596 0.833 2.341-7.257 2.719 7.103 3.48-0.93-1.034 3.574 7.458 2.364-7.317 2.723 1.142 3.477-3.596-0.777-2.346 7.201-2.715-7.047z"></path>
<path fill="#fff" d="M32 27.011l1.329 3.66 3.661 1.33-3.661 1.329-1.329 3.66-1.329-3.66-3.661-1.329 3.661-1.33 1.329-3.66z"></path>
</svg>
