<!-- Generated by IcoMoon.io -->
<svg version="1.1" xmlns="http://www.w3.org/2000/svg" width="64" height="64" viewBox="0 0 64 64">
<path fill="#fff" d="M31.952 0c-17.694 0.004-32.037 14.329-32.037 32 0 0.001 0 0.002 0 0.003v-0c0 0.001 0 0.002 0 0.003 0 17.671 14.342 31.996 32.036 32h0c0.003 0 0.007 0 0.010 0 17.697 0 32.043-14.327 32.043-32 0-0.001 0-0.002 0-0.003v0c0-0.001 0-0.002 0-0.003 0-17.673-14.346-32-32.043-32-0.004 0-0.007 0-0.011 0h0zM31.952 7.832c13.349 0.001 24.17 10.822 24.171 24.171v0c-0.001 13.349-10.822 24.17-24.171 24.171h-0c-13.349-0.001-24.17-10.822-24.171-24.171v-0c0.001-13.349 10.822-24.17 24.171-24.171h0z"></path>
<path fill="#fff" d="M31.952 14.462c-9.66 0.003-17.49 7.854-17.49 17.537 0 0.001 0 0.002 0 0.004v-0c0 0.001 0 0.002 0 0.003 0 9.684 7.83 17.534 17.49 17.537h0c0.003 0 0.008 0 0.012 0 9.662 0 17.495-7.852 17.495-17.537 0-0.001 0-0.002 0-0.004v0c0-0.001 0-0.002 0-0.003 0-9.686-7.833-17.537-17.495-17.537-0.004 0-0.008 0-0.012 0h0.001zM31.952 22.767c5.362 0 9.709 4.347 9.709 9.709v0c0 5.362-4.347 9.709-9.709 9.709v0c-5.362 0-9.709-4.347-9.709-9.709v0c0-5.362 4.347-9.709 9.709-9.709v0z"></path>
</svg>
