<!-- Generated by IcoMoon.io -->
<svg version="1.1" xmlns="http://www.w3.org/2000/svg" width="61" height="64" viewBox="0 0 61 64">
<path fill="#fff" d="M36.67 3.904v1.684c4.134 0.383 6.967 1.148 6.967 1.914s-2.833 1.608-6.966 1.914v1.455c6.966-0.536 11.866-1.99 11.866-3.675s-4.9-3.062-11.866-3.598zM11.866 7.196c0 1.684 4.899 3.139 11.866 3.675v-1.455c-4.134 0-6.966-1.072-6.966-1.914s2.833-1.531 6.966-1.914v-1.684c-6.966 0.536-11.866 1.99-11.866 3.751z"></path>
<path fill="#fff" d="M36.67 16.383v2.144c6.967 0.459 11.866 1.531 11.866 2.756s-4.899 2.297-11.866 2.756v2.144c10.718 0 18.603-2.297 18.603-4.746s-7.656-4.44-18.603-5.053zM5.129 21.435c0 2.45 7.656 4.134 18.603 4.746v-2.144c-6.966-0.459-11.866-1.072-11.866-2.603s4.899-2.297 11.866-2.756v-2.297c-10.718 0.612-18.603 2.679-18.603 5.053z"></path>
<path fill="#fff" d="M36.67 14.086v12.096h-12.938v-12.096h12.555z"></path>
<path fill="#fff" d="M36.67 0v10.871h-12.938v-10.871z"></path>
<path fill="#fff" d="M42.718 32.383l-12.096 21.665-12.938-21.665h6.048v-2.756h12.938v2.756z"></path>
<path fill="#fff" d="M43.1 42.335h-25.187l-17.914 8.574 10.871 13.091h38.966l11.407-13.091zM44.632 59.177h-28.249l-8.115-9.11 10.258-5.282h22.966l10.641 5.282z"></path>
</svg>
