<!-- Generated by IcoMoon.io -->
<svg version="1.1" xmlns="http://www.w3.org/2000/svg" width="64" height="64" viewBox="0 0 64 64">
<path fill="#e46225" d="M32 63.447c-0.002 0-0.003 0-0.005 0-0.446 0-0.85-0.181-1.141-0.474l-29.826-29.826c-0.293-0.294-0.474-0.699-0.474-1.147s0.181-0.853 0.474-1.147v0l29.826-29.826c0.294-0.293 0.699-0.474 1.147-0.474s0.853 0.181 1.147 0.474v0l29.826 29.826c0.293 0.294 0.474 0.699 0.474 1.147s-0.181 0.853-0.474 1.147v0l-29.826 29.826c-0.292 0.293-0.695 0.474-1.141 0.474-0.002 0-0.004 0-0.006 0h0z"></path>
<path fill="#fff" d="M32 1.106c0.001 0 0.002 0 0.003 0 0.295 0 0.562 0.12 0.755 0.313l29.822 29.822c0.194 0.194 0.313 0.463 0.313 0.759s-0.12 0.564-0.313 0.759l-29.822 29.822c-0.194 0.193-0.463 0.313-0.759 0.313s-0.564-0.12-0.759-0.313l-29.822-29.822c-0.194-0.194-0.313-0.463-0.313-0.759s0.12-0.564 0.313-0.759l29.822-29.822c0.193-0.193 0.46-0.313 0.756-0.313 0.001 0 0.002 0 0.003 0h-0zM32 0c-0 0-0 0-0.001 0-0.601 0-1.145 0.244-1.537 0.639l-29.822 29.822c-0.395 0.393-0.639 0.937-0.639 1.538s0.244 1.145 0.639 1.538l29.822 29.822c0.393 0.395 0.937 0.639 1.538 0.639s1.145-0.244 1.538-0.639l29.822-29.822c0.395-0.393 0.639-0.937 0.639-1.538s-0.244-1.145-0.639-1.538l-29.822-29.822c-0.393-0.395-0.937-0.639-1.538-0.639-0 0-0.001 0-0.001 0h0z"></path>
<path fill="#fff" d="M50.806 23.839c-14.114-4.459-25.461 6.117-39.092 2.805 0.463 0.9 3.589 2.921 6.42 3.466 0.748 0.142 1.356 0.553 1.453 1.34 0.299 2.433-0.635 3.623-0.982 5.098-0.43 1.812 0.247 3.439 1.71 3.097 2.152-0.504 1.393-3.775 0.847-6.208-0.269-1.205-0.048-2.765 1.005-2.789 0.863-0.019 1.863 0 2.506 0 3.178 0 5.207 1.628 5.542 3.19 0.576 2.67-0.619 4.329-0.911 4.728-1.777 2.457-2.674 3.65-2.674 5.714 0.001 2.887 2.342 5.227 5.229 5.227s5.229-2.341 5.229-5.229c0-0.001 0-0.002 0-0.002v0c0-2.065-0.897-3.257-2.674-5.714-0.31-0.429-1.068-1.554-1.202-2.864-0.281-2.707 1.468-8.205 7.346-8.329 0.083 0 1.569-0.008 2.148 0.221 1.327 0.526 0.508 2.608 0.399 3.526-0.261 2.17 1.905 2.47 2.253 0.471 0.317-1.857-0.635-2.521-0.471-3.702 0.13-0.944 0.74-1.266 1.602-1.548 2.335-0.759 3.727-1.659 4.313-2.495zM34.788 41.408c2.446 4.137-0.93 6.502-2.405 5.702-0.052-0.029-0.087-0.084-0.087-0.147s0.035-0.118 0.086-0.147l0.001-0c0.702-0.374 2.57-1.26 2.322-5.386-0-0.001-0-0.003-0-0.004 0-0.022 0.018-0.040 0.040-0.040 0.016 0 0.029 0.009 0.035 0.022l0 0z"></path>
</svg>
