<!-- Generated by IcoMoon.io -->
<svg version="1.1" xmlns="http://www.w3.org/2000/svg" width="62" height="64" viewBox="0 0 62 64">
<path fill="#000" d="M40.026 8.895c-0.039 4.897-3.998 8.856-8.891 8.895h-0.004c-4.912 0-8.895-3.982-8.895-8.895s3.982-8.895 8.895-8.895v0c4.897 0.039 8.856 3.998 8.895 8.891v0.004z"></path>
<path fill="#000" d="M42.25 23.557l-1.946 31.757c-0.265 4.871-4.264 8.725-9.17 8.756h-0.003c-0.003 0-0.006 0-0.009 0-4.919 0-8.934-3.872-9.162-8.735l-0.001-0.020-1.946-31.757c-0.030-0.147-0.047-0.316-0.047-0.489 0-1.42 1.151-2.571 2.571-2.571 0.041 0 0.082 0.001 0.122 0.003l-0.006-0h1.251c1.947 1.682 4.502 2.707 7.296 2.707s5.35-1.025 7.311-2.719l-0.014 0.012h1.251c1.41 0.013 2.548 1.159 2.548 2.571 0 0.172-0.017 0.34-0.049 0.503l0.003-0.016z"></path>
<path fill="#000" d="M20.013 11.327c0.003 0.083 0.004 0.18 0.004 0.278 0 4.912-3.982 8.895-8.895 8.895s-8.895-3.982-8.895-8.895c0-4.911 3.98-8.892 8.89-8.895h0c0.001 0 0.003 0 0.004 0 4.815 0 8.736 3.825 8.89 8.603l0 0.014z"></path>
<path fill="#000" d="M22.237 25.642v26.893c-0.229 4.883-4.244 8.756-9.163 8.756-0.003 0-0.007 0-0.010 0h0.001c-4.864 0-8.13-2.154-9.173-8.756s-3.891-26.892-3.891-26.892c-0.002-0.041-0.004-0.090-0.004-0.139 0-1.42 1.151-2.571 2.571-2.571 0.001 0 0.003 0 0.004 0h2.501c1.707 1.12 3.797 1.792 6.042 1.807h0.004c3.225-0.026 6.129-1.379 8.196-3.54l0.004-0.004c0.926-0.277 2.055-0.52 3.209-0.68l0.126-0.014c0 1.529 0 3.683-0.347 5.142z"></path>
<path fill="#000" d="M51.144 4.378c3.838 0 6.949 3.111 6.949 6.949s-3.111 6.949-6.949 6.949c-3.838 0-6.949-3.111-6.949-6.949v0c0-3.838 3.111-6.949 6.949-6.949v0zM51.144 2.71c-0.019-0-0.042-0-0.065-0-4.912 0-8.895 3.982-8.895 8.895s3.982 8.895 8.895 8.895c4.912 0 8.895-3.982 8.895-8.895 0-0.098-0.002-0.195-0.005-0.292l0 0.014c-0.154-4.769-4.038-8.581-8.822-8.617h-0.004z"></path>
<path fill="#000" d="M62.263 25.642s-2.849 20.291-3.891 26.893-4.239 8.756-9.173 8.756c-4.909-0.031-8.908-3.885-9.172-8.732l-0.001-0.023v-26.892c0-1.459 0-3.752 0-5.142 1.217 0.079 2.336 0.227 3.431 0.444l-0.165-0.027c2.052 2.135 4.931 3.461 8.12 3.461 2.219 0 4.288-0.642 6.032-1.751l-0.046 0.027h2.432c0.001 0 0.002 0 0.004 0 1.42 0 2.571 1.151 2.571 2.571 0 0.049-0.001 0.097-0.004 0.146l0-0.007z"></path>
<path fill="#fff" d="M7.991 49.894v-2.224l3.544-3.266c1.296-1.307 2.524-2.689 3.674-4.136l0.079-0.103c0.718-0.786 1.343-1.676 1.844-2.641l0.032-0.069c0.307-0.683 0.487-1.48 0.487-2.319 0-0.015-0-0.031-0-0.046v0.002c0.008-0.086 0.012-0.186 0.012-0.288 0-0.752-0.239-1.448-0.645-2.016l0.007 0.011c-0.477-0.475-1.136-0.769-1.863-0.769-0.054 0-0.107 0.002-0.16 0.005l0.007-0c-1.313 0.011-2.52 0.453-3.489 1.192l0.014-0.010-2.78 3.474c-0.032-0.416-0.051-0.901-0.051-1.39s0.018-0.974 0.054-1.454l-0.004 0.064c-0.047-0.365-0.073-0.788-0.073-1.216s0.027-0.851 0.078-1.266l-0.005 0.050c0.959-0.615 2.069-1.114 3.25-1.439l0.085-0.020c1.122-0.348 2.413-0.551 3.75-0.556h0.003c0.406-0.076 0.873-0.119 1.35-0.119 1.508 0 2.914 0.433 4.102 1.18l-0.032-0.019c0.878 0.869 1.422 2.075 1.422 3.408 0 0.195-0.012 0.387-0.034 0.576l0.002-0.023c0 0.008 0 0.018 0 0.027 0 1.15-0.256 2.24-0.715 3.216l0.020-0.046c-0.694 1.435-1.529 2.67-2.515 3.767l0.013-0.015c-1.181 1.459-2.849 3.127-4.934 5.212l-3.335 3.266zM7.991 49.894l3.266-2.432h11.952v2.432zM8.756 36.343l0.486-4.586 4.586-0.625-2.71 5.212zM23.14 50.241l-3.683-1.668 2.154-4.169h2.085c0.004 0.17 0.007 0.371 0.007 0.572 0 1.817-0.205 3.586-0.593 5.285l0.030-0.159z"></path>
<path fill="#fff" d="M27.032 38.636h9.659v3.336h-9.659v-3.336z"></path>
<path fill="#fff" d="M46.836 50.241c-0.2 0.014-0.434 0.022-0.67 0.022-2.38 0-4.569-0.82-6.3-2.192l0.021 0.016c-0.17-0.657-0.317-1.46-0.409-2.279l-0.008-0.083c0-0.903 0-1.876 0-2.849l2.71 3.405c1.091 0.869 2.489 1.394 4.009 1.394 0.081 0 0.161-0.002 0.241-0.004l-0.012 0c1.876 0 2.849-1.112 2.849-3.266 0.005-0.082 0.008-0.178 0.008-0.274 0-0.936-0.289-1.804-0.783-2.52l0.010 0.015c-0.475-0.6-1.203-0.981-2.020-0.981-0.072 0-0.142 0.003-0.212 0.009l0.009-0.001h-1.459v-2.641h1.668c0.199-0.014 0.431-0.022 0.665-0.022 1.972 0 3.809 0.578 5.35 1.575l-0.039-0.023c1.271 0.875 2.093 2.322 2.093 3.961 0 0.098-0.003 0.195-0.009 0.291l0.001-0.013c0.004 0.076 0.006 0.166 0.006 0.256 0 1.764-0.842 3.331-2.147 4.321l-0.013 0.010c-1.438 1.095-3.259 1.754-5.234 1.754-0.188 0-0.374-0.006-0.559-0.018l0.025 0.001zM44.473 47.948l-4.030-0.764-0.764-4.308h2.293zM45.933 39.887l-1.112-2.015h1.32c1.737 0 2.571-1.042 2.571-3.058 0.007-0.086 0.011-0.185 0.011-0.286 0-0.808-0.265-1.554-0.713-2.156l0.007 0.010c-0.411-0.513-1.037-0.838-1.739-0.838-0.048 0-0.096 0.002-0.144 0.005l0.007-0c-1.31 0.031-2.513 0.47-3.491 1.193l0.017-0.012-2.502 3.266c0-0.973 0-1.876 0-2.78 0.069-0.884 0.193-1.691 0.369-2.478l-0.022 0.116c0.96-0.593 2.071-1.070 3.252-1.372l0.083-0.018c1.075-0.279 2.316-0.454 3.593-0.486l0.021-0c0.12-0.007 0.26-0.012 0.401-0.012 1.579 0 3.035 0.527 4.202 1.414l-0.017-0.012c1.065 0.86 1.741 2.167 1.741 3.631 0 0.067-0.001 0.134-0.004 0.201l0-0.010c0.001 0.038 0.002 0.084 0.002 0.129 0 1.676-0.848 3.155-2.139 4.030l-0.017 0.011c-1.46 0.97-3.253 1.547-5.181 1.547-0.206 0-0.411-0.007-0.614-0.020l0.028 0.001zM40.096 35.996l0.486-3.891 4.517-1.251-2.71 5.142z"></path>
</svg>
