<!-- Generated by IcoMoon.io -->
<svg version="1.1" xmlns="http://www.w3.org/2000/svg" width="64" height="64" viewBox="0 0 64 64">
<path fill="#d6a529" d="M32 63.446c-0.002 0-0.003 0-0.005 0-0.447 0-0.852-0.182-1.144-0.475l-29.821-29.822c-0.294-0.294-0.476-0.7-0.476-1.148s0.182-0.855 0.476-1.148l29.826-29.821c0.294-0.294 0.7-0.476 1.148-0.476s0.855 0.182 1.148 0.476v0l29.818 29.826c0.294 0.294 0.476 0.7 0.476 1.149s-0.182 0.855-0.476 1.148l-29.822 29.818c-0.292 0.294-0.696 0.476-1.143 0.476-0.002 0-0.004 0-0.005 0h0z"></path>
<path fill="#fff" d="M32 1.106c0.295 0 0.563 0.12 0.757 0.313v0l29.821 29.822c0.195 0.194 0.315 0.462 0.315 0.759s-0.12 0.565-0.315 0.759l-29.821 29.821c-0.194 0.193-0.461 0.313-0.756 0.313s-0.563-0.12-0.756-0.313v0l-29.822-29.821c-0.195-0.194-0.315-0.462-0.315-0.759s0.121-0.565 0.315-0.759l29.822-29.822c0.193-0.193 0.46-0.313 0.755-0.313 0 0 0.001 0 0.001 0h-0zM32 0c-0.602 0-1.146 0.244-1.541 0.639l-29.822 29.823c-0.394 0.394-0.637 0.938-0.637 1.538s0.243 1.145 0.637 1.538v0l29.822 29.821c0.394 0.396 0.939 0.64 1.541 0.64s1.147-0.245 1.54-0.64l29.821-29.821c0.394-0.394 0.638-0.938 0.638-1.538s-0.244-1.145-0.638-1.538v0l-29.821-29.822c-0.394-0.395-0.939-0.639-1.541-0.639h-0z"></path>
<path fill="#fff" d="M39.813 36.581h-15.845l7.923-13.72 3.958 6.858z"></path>
<path fill="#fff" d="M34.878 16.339c0 1.649-1.337 2.986-2.986 2.986s-2.986-1.337-2.986-2.986c0-1.649 1.337-2.986 2.986-2.986v0c1.649 0 2.986 1.337 2.986 2.986v0z"></path>
<path fill="#fff" d="M43.382 42.598c-0.843-0.537-1.395-1.468-1.395-2.527 0-1.649 1.337-2.986 2.986-2.986s2.986 1.337 2.986 2.986c0 0.59-0.171 1.141-0.467 1.604l0.007-0.012c-0.537 0.843-1.467 1.394-2.526 1.394-0.59 0-1.14-0.171-1.603-0.467l0.012 0.007z"></path>
<path fill="#fff" d="M17.363 37.924c0.466-0.315 1.040-0.502 1.658-0.502 1.649 0 2.986 1.337 2.986 2.986s-1.337 2.986-2.986 2.986c-1.032 0-1.941-0.523-2.477-1.318l-0.007-0.011c-0.314-0.466-0.502-1.039-0.502-1.657 0-1.031 0.523-1.94 1.318-2.477l0.011-0.007z"></path>
<path fill="#fff" d="M31.888 15.41c-6.631 0.001-12.613 4-15.15 10.125s-1.132 13.184 3.556 17.872c4.689 4.688 11.746 6.093 17.872 3.556s10.125-8.52 10.126-15.15c0.003-9.050-7.353-16.407-16.403-16.403zM31.889 17.179h0c8.093-0.003 14.636 6.54 14.633 14.633v0c-0.001 5.92-3.564 11.251-9.033 13.516s-11.758 1.014-15.944-3.172c-4.186-4.186-5.437-10.474-3.172-15.944s7.596-9.032 13.516-9.033z"></path>
<path fill="#fff" opacity="0.99" d="M28.313 23.172c-4.763 1.973-7.034 7.457-5.061 12.22s7.457 7.035 12.22 5.062c4.763-1.973 7.034-7.458 5.062-12.22s-7.458-7.034-12.22-5.062zM28.99 24.807c3.879-1.607 8.301 0.225 9.908 4.104s-0.225 8.301-4.104 9.908c-3.879 1.607-8.301-0.225-9.908-4.104s0.225-8.301 4.104-9.908z"></path>
</svg>
