<!-- Generated by IcoMoon.io -->
<svg version="1.1" xmlns="http://www.w3.org/2000/svg" width="43" height="64" viewBox="0 0 43 64">
<path d="M22.333 0.026c2.060 1.007 4.162 1.929 6.17 3.034 2.911 1.591 5.72 3.364 8.653 4.944 2.22 1.206 3.523 2.878 3.911 5.437 0.486 3.158 1.457 6.251 1.812 9.419 0.196 1.744-0.358 3.585-0.733 5.371-0.495 2.347-1.304 4.635-1.669 6.998-0.205 1.327 0.186 2.754 0.375 4.126 0.169 1.216 0.437 2.418 0.701 3.862l-8.683 9.413v9.276l-2.386 1.63-2.242-1.503-1.685 1.522-2.663-1.411-1.956 1.825c-1.525 0.293-1.907-1.336-2.95-1.868l-2.65 1.454c-0.691-0.652-1.157-1.082-1.63-1.522l-2.36 1.496-2.246-1.525v-9.4c-2.464-2.607-4.837-5.215-7.307-7.712-1.108-1.121-1.493-2.282-1.023-3.784 0.434-1.327 0.684-2.854 0.684-4.439 0-1.745-0.303-3.419-0.86-4.973l0.032 0.103c-0.737-2.071-1.296-4.49-1.574-6.993l-0.013-0.148c-0.176-1.819 0.244-3.725 0.587-5.541 0.476-2.513 1.157-4.99 1.695-7.496 0.29-1.242 1.099-2.253 2.18-2.812l0.024-0.011c4.925-2.803 9.918-5.541 14.892-8.266 0.431-0.19 0.953-0.373 1.492-0.517l0.079-0.018c-1.473 5.283-2.871 10.306-4.332 15.55-2.448-1.379-4.664-2.731-6.975-3.911-1.274-0.622-2.794-1.211-4.368-1.676l-0.215-0.055c-0.398-0.127-0.935 0.182-1.434 0.505 4.687 0.847 8.067 4.117 12.232 6.027l-9.543 12.242-5.12-3.84-0.359 0.16c0.147 0.958 0.238 1.93 0.45 2.875 0.495 2.236 1.056 4.456 1.577 6.672 0.271 1.16 0.616 2.2 1.796 2.852 0.733 0.404 1.274 1.154 2.216 2.047 0.188-0.702 0.364-1.588 0.491-2.491l0.014-0.126c0.153-2.282 0.095-4.563 0.401-6.786 0.218-1.202 0.711-2.262 1.413-3.15l-0.011 0.015c2.308-3.093 4.746-6.092 7.135-9.126 0.3-0.385 0.587-0.782 0.753-1.001h8.494c1.819 2.174 3.729 4.426 5.593 6.714 0.877 1.076 1.577 2.282 2.493 3.334 1.46 1.652 1.75 3.605 1.783 5.681s0.124 4.185 0.189 6.277l0.463 0.29c1.147-0.958 2.282-1.913 3.386-2.829 0.851-3.709 1.685-7.34 2.516-10.971l-0.326-0.326-5.199 3.709-9.501-12.177c1.956-1.118 3.941-2.35 6.010-3.412 1.998-1.023 4.084-1.877 6.212-2.842-1.581-0.724-3.064-0.209-4.501 0.59-2.744 1.532-5.469 3.093-8.474 4.791-1.45-5.254-2.852-10.296-4.25-15.338zM26.208 40.217c2.989-0.714 5.714-1.802 7.956-3.719 0-1.698 0.127-3.223-1.186-4.475-3.093-0.081-6.219-0.267-8.618 2.2-0.006 2.321 0.153 4.374 1.848 5.994zM18.48 34.024c-2.624-2.086-5.655-2.242-9.126-1.881-0.277 1.477-0.534 2.868-0.802 4.319 2.285 1.84 5.071 3.153 8.121 3.709l0.112 0.017c1.496-1.727 1.855-3.722 1.695-6.16zM21.391 37.714c-2.35 2.673-3.015 5.837-4.1 8.8l1.226 1.574c1.216 0.081 2.607 0.277 3.963 0.248 2.431-0.049 3.217-1.036 2.529-3.334-0.759-2.523-1.46-5.13-3.618-7.285zM9.635 51.077l0.528-0.27c-1.046-3.605-2.092-7.21-3.214-11.082l-4.667 3.448zM36.016 39.848c-1.154 3.911-2.526 7.34-3.1 10.968l0.414 0.212 7.314-7.855zM21.215 63.345c0.486-2.986 0.326-8.973-0.258-9.98l-2.086 1.587v5.723zM30.409 51.611c-1.248 0.75-2.057 1.555-2.093 2.823-0.065 2.167-0.020 4.338-0.020 6.519l1.63 1.538 0.499-0.13c0.083-1.559 0.13-3.384 0.13-5.219 0-1.947-0.053-3.882-0.158-5.804l0.012 0.267zM16.691 62.625v-10.218l-2.083 1.587c0 1.91 0.062 3.644-0.020 5.375-0.072 1.499 0.274 2.656 2.102 3.256zM12.49 51.132l-1.711 1.196v9.387l1.711 0.932zM25.749 62.683l0.368-0.218v-9.155l-0.391-0.182-1.63 1.551v5.818z"></path>
<path d="M25.019 15.234c-0.932 0.626-4.403 0.802-7.232 0.326q1.737-6.379 3.455-12.702l0.378-0.075 1.682 6.147z"></path>
</svg>
