<!-- Generated by IcoMoon.io -->
<svg version="1.1" xmlns="http://www.w3.org/2000/svg" width="64" height="64" viewBox="0 0 64 64">
<path fill="#119ac0" d="M32 63.447c-0.001 0-0.003 0-0.004 0-0.447 0-0.852-0.182-1.144-0.475l-29.818-29.824c-0.294-0.294-0.476-0.7-0.476-1.148s0.182-0.854 0.476-1.148l29.818-29.824c0.294-0.294 0.7-0.476 1.148-0.476s0.854 0.182 1.148 0.476l29.818 29.824c0.294 0.294 0.475 0.7 0.475 1.148s-0.182 0.854-0.475 1.148l-29.818 29.824c-0.293 0.294-0.697 0.476-1.145 0.476-0.001 0-0.002 0-0.003 0h0z"></path>
<path fill="#fff" d="M32 1.106c0.001 0 0.002 0 0.003 0 0.295 0 0.562 0.12 0.755 0.314l29.822 29.824c0.194 0.194 0.314 0.461 0.314 0.757s-0.12 0.563-0.314 0.757l-29.822 29.822c-0.194 0.194-0.462 0.314-0.758 0.314s-0.564-0.12-0.758-0.314v0l-29.822-29.822c-0.194-0.194-0.314-0.461-0.314-0.757s0.12-0.563 0.314-0.757l29.822-29.824c0.193-0.194 0.46-0.314 0.755-0.314 0.001 0 0.002 0 0.003 0h-0zM32 0c-0.001 0-0.002 0-0.003 0-0.6 0-1.144 0.244-1.536 0.638l-29.822 29.822c-0.394 0.394-0.638 0.938-0.638 1.539s0.244 1.146 0.638 1.539l29.822 29.822c0.394 0.394 0.938 0.638 1.539 0.638s1.146-0.244 1.539-0.638l29.822-29.819c0.394-0.394 0.638-0.938 0.638-1.539s-0.244-1.146-0.638-1.539l-29.822-29.826c-0.393-0.394-0.936-0.638-1.536-0.638-0.001 0-0.002 0-0.003 0h0z"></path>
<path fill="#fff" d="M43.885 31.71c0 6.554-5.313 11.868-11.868 11.868s-11.868-5.313-11.868-11.868c0-6.554 5.313-11.868 11.868-11.868s11.868 5.313 11.868 11.868z"></path>
<path fill="#119ac0" d="M41.194 31.71c0 5.068-4.108 9.176-9.176 9.176s-9.176-4.108-9.176-9.176c0-5.068 4.108-9.176 9.176-9.176s9.176 4.108 9.176 9.176z"></path>
<path fill="#fff" d="M25.488 41.622l6.093-8.844-1.345 10.667-6.355 9.411 1.607-11.234z"></path>
<path fill="#fff" d="M35.174 43.156l-1.355-7.354 4.59 5.915 1.505 7.761-4.74-6.322z"></path>
<path fill="#fff" d="M43.463 28.555l-7.354 1.355 5.914-4.59 7.763-1.505-6.323 4.74z"></path>
<path fill="#fff" d="M28.863 20.266l1.355 7.353-4.59-5.913-1.505-7.762 4.74 6.323z"></path>
<path fill="#fff" d="M20.574 34.867l7.354-1.355-5.915 4.589-7.762 1.506 6.323-4.74z"></path>
<path fill="#fff" d="M41.929 38.241l-8.844-6.093 10.667 1.345 9.411 6.355-11.234-1.607z"></path>
<path fill="#fff" d="M38.548 21.799l-6.093 8.845 1.345-10.668 6.355-9.411-1.607 11.234z"></path>
<path fill="#fff" d="M22.108 25.181l8.844 6.093-10.667-1.346-9.411-6.354 11.234 1.607z"></path>
</svg>
