<!-- Generated by IcoMoon.io -->
<svg version="1.1" xmlns="http://www.w3.org/2000/svg" width="64" height="64" viewBox="0 0 64 64">
<path fill="#e26969" d="M62.633 31.886c0 0.041 0 0.088 0 0.136 0 16.931-13.725 30.656-30.656 30.656s-30.656-13.725-30.656-30.656c0-16.899 13.673-30.604 30.56-30.656h0.005c0.041-0 0.089-0 0.137-0 16.874 0 30.559 13.653 30.611 30.515v0.005z"></path>
<path fill="#fff" d="M28.858 0.173c-17.584 1.74-30.451 17.433-28.712 35.016s17.434 30.46 35.017 28.721c17.584-1.74 30.459-17.443 28.72-35.026s-17.442-30.45-35.025-28.711zM29.127 2.891c16.114-1.594 30.444 10.148 32.038 26.262s-10.157 30.445-26.27 32.039c-16.114 1.594-30.436-10.158-32.030-26.271s10.149-30.435 26.262-32.029z"></path>
<path fill="#fff" d="M49.287 17.082c-0.82-1.23-3.28-3.963-5.831-1.777-0.865 0.729-5.102 5.375-10.067 10.841-3.371-4.009-6.058-7.288-6.058-7.334-1.731-1.913-7.926 1.549-9.748 3.371l9.293 11.206c-6.058 6.787-11.57 12.982-12.117 13.666 0.774 1.23 3.234 3.963 5.785 1.776 0.866-0.729 5.102-5.375 10.067-10.841l6.195 7.243c1.731 1.868 7.926-1.549 9.748-3.371-0.456-0.592-4.92-5.876-9.429-11.251 6.058-6.787 11.57-12.937 12.162-13.666z"></path>
</svg>
