<!-- Generated by IcoMoon.io -->
<svg version="1.1" xmlns="http://www.w3.org/2000/svg" width="67" height="64" viewBox="0 0 67 64">
<path fill="#fff" d="M24.744 41.723l-10.086-1.887 7.256-7.692-4.281-8.925 8.78-0.653 6.168-11.102 7.256 9.651 7.256-3.048-2.903 7.256 8.925 4.136-7.764 5.224 4.136 8.49h-9.143l-1.959 9.361-6.458-5.442-6.095 5.007zM30.766 0l-7.619 18.068h-17.633l10.231 12.626-15.746 12.989 20.245 3.41 0.508 16.98 11.828-10.159 10.086 8.78v-14.875l15.964 2.249-6.386-14.512 14.513-7.256-15.456-6.313 6.168-12.336-15.891 4.426z"></path>
<path fill="#fff" d="M36.934 26.63c-1.299-1.882-2.446-4.034-3.336-6.315l-0.074-0.215s0 0 0 0c-0.886 2.493-2.039 4.652-3.461 6.604l0.051-0.073c-2.467 3.41-3.773 5.079-3.773 7.982 0 4.008 3.249 7.256 7.256 7.256s7.256-3.249 7.256-7.256v0c0-2.902-1.234-4.571-3.773-7.982z"></path>
<path fill="#231f20" d="M29.025 33.306h8.708v2.685h-8.707v-2.685z"></path>
</svg>
