<!-- Generated by IcoMoon.io -->
<svg version="1.1" xmlns="http://www.w3.org/2000/svg" width="66" height="64" viewBox="0 0 66 64">
<path fill="#fff" d="M38.847 9.241c-0.007 0-0.016 0-0.025 0-2.346 0-4.608 0.356-6.737 1.017l0.161-0.043c-1.932-0.618-4.154-0.975-6.46-0.975-0.062 0-0.124 0-0.187 0.001l0.009-0c-12.564 0.008-22.746 10.194-22.746 22.759s10.182 22.752 22.745 22.759h0.001c0.001 0 0.002 0 0.002 0 2.366 0 4.649-0.356 6.798-1.017l-0.164 0.043c1.971 0.618 4.237 0.974 6.586 0.974 12.57 0 22.759-10.19 22.759-22.759 0-12.565-10.182-22.751-22.744-22.759h-0.001zM32.246 51.838c-0.797 0.287-1.766 0.549-2.761 0.738l-0.124 0.020c-1.080 0.199-2.327 0.317-3.6 0.325l-0.007 0c-11.614 0-21.028-9.415-21.028-21.028s9.415-21.028 21.028-21.028v0c1.28 0.008 2.527 0.126 3.739 0.344l-0.132-0.020c2.033 0.372 3.847 0.985 5.53 1.821l-0.12-0.054c7.081 3.484 11.868 10.647 11.868 18.928 0 9.24-5.96 17.088-14.245 19.91l-0.148 0.044zM38.847 52.92c-1.28-0.008-2.527-0.126-3.739-0.344l0.132 0.020c0.866-0.433 1.695-0.866 2.525-1.371l0.758-0.505c10.426-0.039 18.882-8.419 19.044-18.813l0-0.015c-0.142-10.424-8.606-18.824-19.040-18.864h-0.004l-0.758-0.505c-0.692-0.43-1.52-0.876-2.375-1.272l-0.149-0.062c1.073-0.209 2.318-0.34 3.589-0.361l0.018-0c11.252 0.48 20.193 9.719 20.193 21.046s-8.94 20.566-20.15 21.045l-0.043 0.002z"></path>
</svg>
