<!-- Generated by IcoMoon.io -->
<svg version="1.1" xmlns="http://www.w3.org/2000/svg" width="45" height="64" viewBox="0 0 45 64">
<path fill="#fff" d="M37.988 8.304c-3.2-3.2-8.055-4.97-12.176-5.603-0.927-3.607-5.751-3.6-6.621 0.006-4.114 0.635-8.952 2.406-12.142 5.597-7.163 7.165-7.049 10.657-7.049 40.617 1.876 5.565 10.327 15.077 10.327 15.077s4.939-14.567 3.177-26.316c-1.538-1.025-3.91-1.045-5.367-2.014-0.769-0.511-1.283-3.131-1.283-3.131s2.104-2.083 12.091-2.079c0 0.055 1.192 10.331 1.192 10.331s0.425 1.37 2.383 1.37 2.383-1.37 2.383-1.37c0 0 1.192-10.276 1.192-10.331 9.987-0.006 12.091 2.079 12.091 2.079s-0.603 2.546-1.48 3.131c-1.466 0.976-3.7 1.035-5.17 2.014-1.762 11.749 3.177 26.316 3.177 26.316s7.689-8.846 10.327-15.077c0-29.96 0.114-33.454-7.049-40.617z"></path>
</svg>
