<!-- Generated by IcoMoon.io -->
<svg version="1.1" xmlns="http://www.w3.org/2000/svg" width="74" height="64" viewBox="0 0 74 64">
<path fill="#fff" d="M73.75 34.028c-0.464 0.621-2.077 4.537-3.938 5.467-1.863 0.931-12.098 8.532-13.959 9.306-1.861 0.776-7.91 0.933-8.684 1.863-0.776 0.93-14.269 13.337-14.269 13.337s-3.306-1.877-7.175-5.568c2.439-2.257 5.115-4.745 6.832-6.373 0.665-0.631 1.107-1.057 1.407-1.353 0.7-0.15 1.954-0.32 2.766-0.429 2.042-0.275 3.806-0.512 5.107-1.055 1.271-0.527 3.568-2.097 8.509-5.553 2.118-1.481 5.018-3.509 5.703-3.868 2.345-1.177 3.821-3.715 5.13-6.216 0.095-0.182 0.22-0.422 0.286-0.54 1.561-2.216 1.341-5.405-0.54-7.487-0.049-0.055-0.108-0.119-0.187-0.198-0.080-0.079-0.179-0.171-0.309-0.278 0.539-1.55 0.656-2.546 0.459-3.526-0.219-1.093-0.928-2.581-1.224-3.17-1.1-2.196-1.959-3.017-2.509-3.443-0.076-0.059-0.153-0.115-0.231-0.168 0.283-2.415 0.166-3.123 0.112-3.442-0.25-1.48-1.171-2.733-3.404-4.633-1.080-0.92-2.39-1.91-3.055-2.31-0.070-0.042-0.142-0.083-0.215-0.122 0.576-0.473 1.035-0.804 1.304-0.912 1.551-0.621 6.205 0.776 7.29 1.551s1.397 6.669 1.397 6.669c0 0 2.945-1.087 3.722-0.621 0.774 0.466 4.457 3.297 4.614 4.227 0.154 0.931-0.582 5.391-0.582 5.391s1.541 0.192 2.17 0.679c0.846 0.654 2.133 3.508 2.289 4.283 0.156 0.777-1.51 4.344-1.51 4.344s2.105 1.097 2.48 1.512c0.738 0.813 0.682 2.014 0.216 2.635z"></path>
<path fill="#fff" d="M58.007 28.188c-0.374-0.415-2.481-1.512-2.481-1.512s1.668-3.567 1.511-4.342c-0.154-0.776-1.443-3.63-2.288-4.285-0.63-0.487-2.171-0.679-2.171-0.679s0.738-4.46 0.582-5.39c-0.157-0.931-3.839-3.763-4.614-4.227-0.136-0.083-0.341-0.116-0.585-0.116-0.445 0-1.021 0.112-1.557 0.25-0.839 0.213-1.579 0.488-1.579 0.488s-0.031-0.583-0.108-1.407c-0.052-0.564-0.125-1.24-0.224-1.919-0.007-0.053-0.015-0.108-0.024-0.161-0.014-0.098-0.029-0.196-0.046-0.295-0.015-0.098-0.032-0.196-0.050-0.293-0.017-0.097-0.034-0.192-0.053-0.287-0.008-0.046-0.018-0.094-0.028-0.14-0.018-0.094-0.038-0.187-0.059-0.276-0.020-0.091-0.041-0.179-0.062-0.267-0.194-0.784-0.436-1.407-0.742-1.625-0.898-0.641-4.23-1.704-6.236-1.704-0.424 0-0.785 0.046-1.055 0.154-1.55 0.62-9.46 8.686-9.46 8.686l-2.482-0.776s-4.809 2.945-6.515 5.736c-1.706 2.792-0.621 8.223-0.621 8.223s-0.153 4.806-0.773 6.668c-0.623 1.861-16.286 11.167-16.286 11.167 1.247 3.576 3.013 6.706 4.944 9.376l4.045 4.797c4.362 4.482 8.383 6.766 8.383 6.766s2.672-2.457 5.707-5.268c2.418-2.238 5.064-4.7 6.774-6.32 0.966-0.916 1.633-1.564 1.787-1.75 0.776-0.93 6.825-1.087 8.684-1.861 1.861-0.774 12.098-8.376 13.959-9.306 1.861-0.931 3.474-4.846 3.94-5.467s0.52-1.823-0.216-2.637zM52.843 33.059c-0.168 0.066-0.342 0.098-0.513 0.098-0.56 0-1.088-0.337-1.306-0.889-2.955-7.512-7.795-13.288-11.337-16.809-3.863-3.843-7.063-5.919-7.095-5.94-0.651-0.419-0.84-1.286-0.421-1.938 0.418-0.651 1.285-0.841 1.937-0.422 0.139 0.088 3.438 2.222 7.502 6.254 3.75 3.721 8.879 9.834 12.025 17.828 0.283 0.721-0.070 1.534-0.791 1.819z"></path>
</svg>
