<!-- Generated by IcoMoon.io -->
<svg version="1.1" xmlns="http://www.w3.org/2000/svg" width="59" height="64" viewBox="0 0 59 64">
<path fill="#fff" d="M28.83 63.981c-4.041-2.357-7.373-2.909-10.155-2.777-1.225 0.058-3.239 0.802-4.683 2.025-3.2-0.919-9.491-1.545-11.067-2.507-0.221-0.135-0.367-0.361-0.398-0.618-0.108-0.879-0.635-6.393-0.387-8.586 0.319-2.845 4.198-16.593 4.265-17.411 0.266-3.205-2.128-18.117-2.303-18.794-0.147-0.562-3.052-5.774-4.018-7.5-0.173-0.31-0.065-0.702 0.246-0.875 3.459-1.928 8.191-2.939 8.191-2.939s-0.577-1.477-0.891-2.563c-0.092-0.32 0.137-0.647 0.466-0.701 9.561-1.573 18.191-0.574 24.739 2.617 0.375 0.183 0.54 0.626 0.382 1.012-0.67 1.641-1.435 4.522-2.097 7.744l-8.031-0.772c-0.506-0.030-0.986 0.107-1.383 0.367-0.588 0.383-0.994 1.030-1.040 1.781-0.076 1.258 0.89 2.35 2.148 2.426l7.486 0.739c-0.435 2.779-0.736 5.512-0.787 7.68l-6.625-0.687c-0.506-0.030-0.986 0.107-1.383 0.367-0.588 0.383-0.994 1.030-1.040 1.782-0.076 1.258 0.889 2.349 2.148 2.426l7.154 0.72c-0.055 6.228 3.308 9.795 4.912 13.957 1.629 1.023 8.623 2.391 13.861 4.573 0 0 5.68-0.555 7.031-0.687 2.669 2.066 4.056 7.449 2.222 10.784-3.128 1.997-14.907 6.79-28.96 6.419z"></path>
</svg>
