<!-- Generated by IcoMoon.io -->
<svg version="1.1" xmlns="http://www.w3.org/2000/svg" width="64" height="64" viewBox="0 0 64 64">
<path fill="#e15426" d="M32 63.086c-17.168-0-31.085-13.918-31.085-31.086 0-8.584 3.479-16.355 9.104-21.981v0c5.637-5.699 13.459-9.229 22.104-9.229 17.168 0 31.086 13.918 31.086 31.086 0 8.646-3.529 16.467-9.226 22.102l-0.003 0.003c-5.594 5.624-13.338 9.105-21.895 9.105-0.030 0-0.060-0-0.090-0h0.005z"></path>
<path fill="#fff" d="M32 1.829c16.663 0 30.171 13.509 30.171 30.171s-13.509 30.171-30.171 30.171-30.171-13.509-30.171-30.171 13.509-30.171 30.171-30.171zM32 0c-17.671 0.009-31.992 14.336-31.992 32.008 0 13.173 7.957 24.487 19.327 29.398l0.208 0.080c3.676 1.595 7.958 2.523 12.457 2.523 17.678 0 32.009-14.331 32.009-32.009 0-13.179-7.965-24.499-19.344-29.406l-0.208-0.080c-3.658-1.59-7.919-2.514-12.395-2.514-0.022 0-0.044 0-0.065 0h0.003z"></path>
<path fill="#fff" d="M41.835 24.006c-4.857-3.943-6.686-11.371-5.371-16.4-2.914 0.286-7.574 2.89-9.543 10.229-2.514 9.371 5.029 16.057 0 19.486-5.879 4.009-9.886-2.971-9.371-9.429-3.429 2.686-5.537 13.666-1.086 20.343 3.2 4.8 7.293 7.559 12.517 8.16-1.686-1.194-1.799-3.419-1.202-5.131 0.857-2.457 3.685-3.554 6.343-5.6 2.971-2.286 4.229-4.571 4.4-5.657 1.486 2.229 3.266 5.522 1.771 10.4-0.686 2.242-1.943 4.382-3.925 5.651 6.286-1.623 13.677-7.073 13.696-16.68 0.018-8.571-4.327-12.205-8.229-15.371z"></path>
</svg>
