<!-- Generated by IcoMoon.io -->
<svg version="1.1" xmlns="http://www.w3.org/2000/svg" width="66" height="64" viewBox="0 0 66 64">
<path fill="#fff" d="M44.566 21.901c-4.464-3.982-7.261-9.751-7.261-16.172 0-1.605 0.175-3.169 0.506-4.675l-0.026 0.143c-3.607 0.361-9.703 4.581-12.047 12.913-4.112 14.716 6.096 19.477 0 24.599-6.853 5.807-12.768-3.607-11.831-11.903-4.328 3.39-6.961 17.277-1.371 25.681 3.383 5.558 9.063 9.429 15.688 10.304l0.11 0.012c-1.217-1.026-1.985-2.551-1.985-4.256 0-0.809 0.173-1.578 0.484-2.272l-0.014 0.035c1.082-3.102 4.653-4.472 8.007-7.214 2.577-1.712 4.524-4.194 5.525-7.116l0.029-0.098c1.828 2.392 2.928 5.424 2.928 8.714 0 1.578-0.253 3.096-0.721 4.517l0.029-0.102c-0.771 2.992-2.531 5.49-4.903 7.188l-0.038 0.026c9.824-2.155 17.118-10.644 17.42-20.887l0.001-0.032c0-10.821-5.446-15.401-10.388-19.405z"></path>
</svg>
