<!-- Generated by IcoMoon.io -->
<svg version="1.1" xmlns="http://www.w3.org/2000/svg" width="43" height="64" viewBox="0 0 43 64">
<path fill="#fff" d="M31.819 19.308c-3.944-5.454-7.29-11.716-9.736-18.41l-0.171-0.537c-0.084-0.222-0.295-0.377-0.542-0.377s-0.458 0.155-0.541 0.373l-0.001 0.004c-2.655 7.232-5.998 13.489-10.072 19.189l0.165-0.242c-7.232 10.052-10.92 14.897-10.92 23.069 2.081 9.984 10.807 17.378 21.261 17.378s19.18-7.394 21.236-17.237l0.025-0.141c0-8.172-3.471-13.017-10.703-23.069z"></path>
<path fill="#231f20" d="M8.678 46.572v-7.738h8.389v-8.099h8.606v8.099h8.316v7.738h-8.316v8.099h-8.606v-8.099h-8.389z"></path>
</svg>
