<!-- Generated by IcoMoon.io -->
<svg version="1.1" xmlns="http://www.w3.org/2000/svg" width="64" height="64" viewBox="0 0 64 64">
<path fill="#80394b" d="M32.002 63.448c-0.002 0-0.004 0-0.006 0-0.446 0-0.85-0.181-1.141-0.474l-29.82-29.823c-0.294-0.294-0.476-0.7-0.476-1.149s0.182-0.855 0.476-1.149l29.82-29.821c0.294-0.293 0.7-0.475 1.148-0.475s0.854 0.181 1.148 0.475l29.82 29.821c0.294 0.294 0.476 0.7 0.476 1.149s-0.182 0.855-0.476 1.149l-29.82 29.823c-0.292 0.293-0.695 0.474-1.142 0.474-0.002 0-0.005 0-0.007 0h0z"></path>
<path fill="#fff" d="M32.002 1.107c0.002 0 0.004 0 0.005 0 0.293 0 0.559 0.119 0.751 0.311v0l29.823 29.827c0.194 0.194 0.314 0.461 0.314 0.757s-0.12 0.563-0.314 0.757l-29.823 29.823c-0.193 0.195-0.461 0.315-0.757 0.315s-0.563-0.121-0.756-0.315l-29.823-29.823c-0.194-0.194-0.314-0.461-0.314-0.757s0.12-0.563 0.314-0.757l29.823-29.827c0.192-0.192 0.458-0.311 0.751-0.311 0.002 0 0.004 0 0.006 0h-0zM32.002 0.001c-0 0-0.001 0-0.001 0-0.602 0-1.146 0.244-1.539 0.639l-29.822 29.821c-0.395 0.393-0.639 0.937-0.639 1.538s0.244 1.145 0.639 1.538l29.822 29.827c0.395 0.392 0.94 0.635 1.541 0.635s1.145-0.243 1.541-0.635l29.822-29.827c0.395-0.393 0.639-0.937 0.639-1.538s-0.244-1.145-0.639-1.538l-29.822-29.822c-0.394-0.395-0.938-0.639-1.539-0.639-0 0-0.001 0-0.001 0h0z"></path>
<path fill="#fff" d="M41.881 26.433c-0.186-0.251-0.298-0.567-0.298-0.909s0.112-0.658 0.301-0.913l-0.003 0.004c1.001-1.365 3.222-4.32 2.807-6.507-0.097-0.514-0.497-0.913-1.004-1.006l-0.008-0.001c-1.288-0.221-2.977 0.828-4.252 0.014 0.885-2.262-0.198-5.669-2.361-4.585s-4.917 4.62-5.803 4.719c-0.442 0.050-2.302-0.221-4.134-1.179s-3.64-2.609-4.822-1.277c-1.548 1.734-1.13 4.856 2.018 8.5-2.361-0.198-6.194-0.126-7.092 1.548-0.597 1.106-0.027 3.738 1.235 4.708 2.115-2.101 3.955-3.248 6.020-2.754-0.429 1.991-1.426 3.207-2.372 4.671-2.18 3.381-2.86 9.279 1.65 14.52 1.475 1.719 3.199 4.412 3.175 5.693 1.536-2.212-0.593-6.795-0.995-7.521-0.304-0.544-0.392-1.14-0.011-1.65 0.654-0.885 3.913-3.906 5.156-3.161 1.464 0.875 1.106 3.693 3.429 5.028 0.681-1.073 2.533-3.369 4.336-3.024 1.853 0.354 1.506 4.139 2.849 5.012-0.278-2.087 1.951-3.833 3.324-7.686s0.407-7.453-3.149-12.241zM39.659 25.751c-2.909 0.259-4.203 1.452-7.229 1.438-1.991-0.008-6.515-0.553-6.515-0.553s-0.418-1.438 0.145-2.765c0.734-0.034 2.94 0.285 4.404 0.571 3.59 0.692 5.867-0.715 8.959-0.145 0.316 0.708 0.316 1.126 0.232 1.461z"></path>
<path fill="#80394b" d="M35.943 38.304c-0.269-0.001-0.514-0.1-0.701-0.264l0.001 0.001-0.118-0.103c-0.223-0.195-0.363-0.48-0.363-0.797 0-0.259 0.093-0.496 0.247-0.679l-0.001 0.002 0.011-0.014 2.008-2.183-2.202-2.183-0.016-0.019c-0.166-0.184-0.267-0.429-0.267-0.697 0-0.179 0.045-0.348 0.125-0.495l-0.003 0.006 0.057-0.111c0.178-0.343 0.53-0.574 0.936-0.574 0.002 0 0.005 0 0.007 0h-0c0.304 0 0.579 0.127 0.774 0.331l0 0 2.001 2.233 1.574-2.069 0.031-0.030c0.193-0.193 0.459-0.312 0.753-0.312 0.001 0 0.003 0 0.004 0h-0c0 0 0.001 0 0.001 0 0.328 0 0.622 0.151 0.815 0.386l0.002 0.002 0.171 0.205c0.151 0.181 0.242 0.417 0.242 0.674 0 0.293-0.119 0.557-0.311 0.749v0l-1.886 1.909 1.741 1.955c0.167 0.186 0.269 0.433 0.269 0.704 0 0.216-0.065 0.417-0.176 0.585l0.002-0.004-0.061 0.095c-0.193 0.288-0.517 0.475-0.884 0.475-0.302 0-0.574-0.126-0.768-0.329l-0-0-0.023-0.022-1.491-1.895-1.696 2.093-0.008 0.007c-0.195 0.224-0.48 0.366-0.798 0.366h-0z"></path>
</svg>
