<!-- Generated by IcoMoon.io -->
<svg version="1.1" xmlns="http://www.w3.org/2000/svg" width="64" height="64" viewBox="0 0 64 64">
<path fill="#151514" d="M32 63.447c-0.002 0-0.003 0-0.005 0-0.446 0-0.85-0.181-1.141-0.474l-29.826-29.826c-0.293-0.294-0.474-0.699-0.474-1.146s0.181-0.853 0.474-1.146l29.826-29.827c0.294-0.293 0.699-0.474 1.147-0.474s0.853 0.181 1.147 0.474v0l29.826 29.827c0.293 0.294 0.474 0.699 0.474 1.146s-0.181 0.853-0.474 1.146l-29.826 29.826c-0.292 0.293-0.695 0.474-1.141 0.474-0.002 0-0.004 0-0.006 0h0z"></path>
<path fill="#fff" d="M32 1.106c0.001 0 0.002 0 0.003 0 0.295 0 0.562 0.12 0.755 0.313l29.822 29.822c0.193 0.195 0.313 0.463 0.313 0.759s-0.12 0.564-0.313 0.759l-29.822 29.822c-0.194 0.193-0.463 0.313-0.759 0.313s-0.564-0.12-0.759-0.313l-29.822-29.822c-0.193-0.194-0.313-0.463-0.313-0.759s0.12-0.564 0.313-0.759l29.822-29.822c0.193-0.193 0.46-0.313 0.756-0.313 0.001 0 0.002 0 0.003 0h-0zM32 0c-0 0-0 0-0.001 0-0.601 0-1.145 0.244-1.537 0.639l-29.822 29.822c-0.395 0.393-0.639 0.937-0.639 1.538s0.244 1.145 0.639 1.538l29.822 29.822c0.393 0.395 0.937 0.639 1.538 0.639s1.145-0.244 1.538-0.639l29.822-29.822c0.395-0.393 0.639-0.937 0.639-1.538s-0.244-1.145-0.639-1.538l-29.822-29.822c-0.393-0.395-0.937-0.639-1.538-0.639-0 0-0.001 0-0.001 0h0z"></path>
<path fill="#fff" d="M32.541 22.895c-0.007 0-0.014 0-0.022 0-0.563 0-1.020-0.456-1.020-1.020 0-0.548 0.433-0.996 0.976-1.019l0.002-0c1.365-0.091 2.523-0.897 3.109-2.045l0.010-0.021 0.008-0.015c0.172-0.337 0.516-0.563 0.913-0.563 0.564 0 1.021 0.457 1.021 1.021 0 0.167-0.040 0.325-0.111 0.464l0.003-0.006-0.915-0.46 0.911 0.46v0.011c-0.92 1.806-2.709 3.052-4.801 3.192l-0.018 0.001h-0.063zM28.282 20.774c-0.354-0-0.665-0.18-0.849-0.452l-0.002-0.004c-0.604-0.898-0.963-2.004-0.963-3.194 0-0.002 0-0.004 0-0.006v0c0-0.003 0-0.008 0-0.012 0-0.931 0.224-1.81 0.62-2.586l-0.015 0.032c0.171-0.339 0.517-0.568 0.916-0.568 0.564 0 1.022 0.458 1.022 1.022 0 0.165-0.039 0.322-0.109 0.46l0.003-0.006c-0.247 0.481-0.393 1.050-0.393 1.653 0 0.002 0 0.005 0 0.007v-0c0 0 0 0.001 0 0.001 0 0.771 0.233 1.488 0.632 2.085l-0.009-0.014c0.107 0.159 0.171 0.355 0.171 0.565 0 0.354-0.181 0.666-0.455 0.848l-0.004 0.002c-0.156 0.105-0.348 0.168-0.555 0.168-0.003 0-0.006 0-0.009-0h0zM36.216 15.505c-0.353-0.001-0.665-0.18-0.849-0.452l-0.002-0.004c-0.363-0.543-0.851-0.975-1.424-1.263l-0.021-0.010c-0.479-0.248-1.046-0.394-1.647-0.394-0.091 0-0.181 0.003-0.27 0.010l0.012-0.001c-0.015 0.001-0.032 0.001-0.049 0.001-0.564 0-1.022-0.457-1.022-1.022 0-0.536 0.412-0.975 0.937-1.018l0.004-0c0.123-0.008 0.25-0.011 0.369-0.011 0.006 0 0.012-0 0.019-0 0.933 0 1.813 0.225 2.59 0.623l-0.032-0.015c0.919 0.462 1.673 1.131 2.224 1.948l0.013 0.021c0.106 0.159 0.169 0.353 0.169 0.563 0 0.564-0.456 1.022-1.020 1.024h-0z"></path>
<path fill="#fff" d="M32.059 51.548h-1.139v-0.045c-0.651-0.053-1.247-0.148-1.826-0.285l0.082 0.016c-0.456-0.109-0.791-0.513-0.791-0.995 0-0.564 0.457-1.022 1.022-1.022 0.082 0 0.162 0.010 0.238 0.028l-0.007-0.001c0.694 0.161 1.492 0.255 2.311 0.258h0.102c0.003 0 0.008 0 0.012 0 0.814 0 1.606-0.091 2.368-0.262l-0.072 0.014c0.070-0.017 0.15-0.027 0.232-0.027 0.564 0 1.022 0.458 1.022 1.022 0 0.482-0.334 0.886-0.783 0.994l-0.007 0.001c-0.498 0.121-1.093 0.216-1.701 0.266l-0.043 0.003v0.041z"></path>
<path fill="#fff" d="M25.278 48.796c-0 0-0.001 0-0.001 0-0.32 0-0.606-0.148-0.792-0.379l-0.002-0.002c-0.792-0.986-1.057-1.838-1.083-1.931l-0.083-0.28 0.908-3.243c0.125-0.433 0.517-0.744 0.982-0.744 0.563 0 1.020 0.457 1.020 1.020 0 0.098-0.014 0.194-0.040 0.284l0.002-0.007-0.735 2.633c0.178 0.38 0.385 0.707 0.627 1.004l-0.007-0.009c0.141 0.173 0.226 0.397 0.226 0.64 0 0.563-0.456 1.019-1.019 1.019-0.001 0-0.003 0-0.004 0h0zM26.526 39.545c-0.001 0-0.002 0-0.003 0-0.097 0-0.192-0.014-0.281-0.039l0.007 0.002c-0.434-0.127-0.745-0.521-0.745-0.988 0-0.096 0.013-0.19 0.038-0.278l-0.002 0.007 1.318-4.721c0.128-0.429 0.518-0.737 0.981-0.737 0.564 0 1.022 0.458 1.022 1.022 0 0.095-0.013 0.188-0.037 0.275l0.002-0.007-1.318 4.71c-0.123 0.434-0.516 0.747-0.982 0.748h-0z"></path>
<path fill="#fff" d="M29.16 30.1c-0 0-0.001 0-0.001 0-0.098 0-0.193-0.013-0.283-0.038l0.007 0.002c-0.434-0.126-0.746-0.52-0.746-0.986 0-0.097 0.013-0.191 0.039-0.279l-0.002 0.007 0.948-3.395 0.949 0.212c0.579 0.137 1.244 0.216 1.927 0.216s1.348-0.079 1.986-0.227l-0.059 0.012 0.949-0.221 0.949 3.4c0.024 0.083 0.038 0.178 0.038 0.276 0 0.565-0.458 1.022-1.022 1.022-0.466 0-0.859-0.312-0.983-0.739l-0.002-0.007-0.437-1.565c-0.426 0.059-0.919 0.092-1.419 0.092s-0.993-0.033-1.476-0.098l0.056 0.006-0.437 1.565c-0.123 0.434-0.516 0.747-0.982 0.747-0 0-0 0-0.001 0v0z"></path>
<path fill="#fff" d="M38.722 48.798c-0.004 0-0.008 0-0.012 0-0.24 0-0.46-0.083-0.633-0.223l0.002 0.002c-0.233-0.189-0.38-0.475-0.38-0.795 0-0.244 0.086-0.469 0.229-0.645l-0.001 0.002c0.234-0.289 0.441-0.616 0.607-0.966l0.013-0.029-0.735-2.633c-0.024-0.083-0.038-0.178-0.038-0.276 0-0.563 0.457-1.020 1.020-1.020 0.465 0 0.857 0.311 0.98 0.737l0.002 0.007 0.908 3.242-0.082 0.276c-0.027 0.097-0.292 0.949-1.084 1.934-0.186 0.233-0.47 0.382-0.788 0.382-0.002 0-0.005 0-0.007 0h0zM37.474 39.539c-0.466-0.001-0.858-0.313-0.98-0.739l-0.002-0.007-1.318-4.721c-0.024-0.083-0.038-0.178-0.038-0.276 0-0.565 0.458-1.022 1.022-1.022 0.466 0 0.859 0.312 0.983 0.739l0.002 0.007 1.318 4.721c0.024 0.082 0.037 0.177 0.037 0.274 0 0.468-0.313 0.862-0.74 0.986l-0.007 0.002c-0.082 0.024-0.176 0.038-0.273 0.038-0.001 0-0.003 0-0.004 0h0z"></path>
</svg>
