<!-- Generated by IcoMoon.io -->
<svg version="1.1" xmlns="http://www.w3.org/2000/svg" width="66" height="64" viewBox="0 0 66 64">
<path fill="#fff" d="M63.821 31.286l-13.454-6.745 4.725-14.428c0.032-0.085 0.051-0.184 0.051-0.287 0-0.374-0.247-0.69-0.587-0.793l-0.006-0.002c-0.080-0.035-0.173-0.056-0.271-0.056s-0.191 0.021-0.275 0.057l0.004-0.002-14.428 4.725-6.601-13.273c-0.144-0.289-0.438-0.484-0.777-0.484-0.138 0-0.267 0.032-0.383 0.089l0.005-0.002c-0.181 0.075-0.322 0.216-0.395 0.392l-0.002 0.005-6.745 13.418-14.427-4.725c-0.079-0.026-0.17-0.041-0.264-0.041-0.377 0-0.697 0.241-0.816 0.576l-0.002 0.006c-0.035 0.080-0.056 0.173-0.056 0.271s0.021 0.191 0.057 0.275l-0.002-0.004 4.725 14.427-13.418 6.745c-0.289 0.144-0.483 0.438-0.483 0.777 0 0.137 0.032 0.267 0.089 0.383l-0.002-0.005c0.075 0.181 0.216 0.322 0.392 0.395l0.005 0.002 13.418 6.745-4.725 14.428c-0.026 0.079-0.041 0.17-0.041 0.264 0 0.377 0.241 0.697 0.576 0.816l0.006 0.002c0.080 0.035 0.173 0.056 0.271 0.056s0.191-0.020 0.275-0.057l-0.004 0.002 14.427-4.725 6.745 13.021c0.137 0.279 0.42 0.468 0.747 0.468 0.15 0 0.291-0.040 0.412-0.109l-0.004 0.002c0.172-0.073 0.309-0.199 0.395-0.357l0.002-0.004 6.745-13.454 14.427 4.725h0.252c0.022 0.002 0.047 0.003 0.073 0.003 0.438 0 0.794-0.355 0.794-0.794 0-0.014-0-0.028-0.001-0.041l0 0.002c0.010-0.043 0.015-0.093 0.015-0.144s-0.006-0.101-0.016-0.149l0.001 0.005-4.725-14.428 13.454-6.745c0.273-0.149 0.455-0.434 0.455-0.762 0-0.143-0.035-0.278-0.096-0.397l0.002 0.005c-0.083-0.165-0.206-0.3-0.357-0.394l-0.004-0.002zM51.016 13.108l-2.741 10.388-3.607-1.84 1.443-3.39-3.354 1.443-1.876-3.607zM36.192 22.485l-1.948-4.797 4.4-1.046 2.272 3.895zM28.221 22.485l-4.545-2.020 2.128-3.823 4.364 1.118zM22.63 28.112l-4.797 1.912-1.118-4.364 3.859-2.308zM22.63 36.047l-2.056 4.725-3.859-2.272 1.118-4.364zM28.221 41.638l1.948 4.797-4.364 1.118-2.128-3.859zM36.192 41.638l4.725 2.056-2.272 3.859-4.4-1.118zM41.71 36.047l4.797-1.912 1.118 4.364-3.859 2.272zM41.71 28.112l2.056-4.761 3.859 2.308-1.118 4.364zM32.224 5.822l5.266 8.945-3.931 1.299-1.335-3.39-1.335 3.282-3.968-1.299zM13.577 13.432l10.099 2.597-1.875 3.607-3.354-1.443 1.443 3.354-3.607 1.876zM5.858 32.080l8.945-5.302 1.299 3.931-3.39 1.371 3.39 1.335-1.299 3.931zM13.577 50.691l2.597-10.063 3.607 1.876-1.443 3.354 3.354-1.443 1.875 3.607zM32.224 58.41l-5.302-8.945 3.968-1.298 1.371 3.39 1.335-3.39 3.932 1.298zM50.836 50.691l-10.063-2.561 1.876-3.607 3.354 1.443-1.443-3.354 3.607-1.876zM49.609 37.346l-1.298-3.931 3.391-1.335-3.391-1.371 1.298-3.931 8.945 5.302z"></path>
</svg>
