<!-- Generated by IcoMoon.io -->
<svg version="1.1" xmlns="http://www.w3.org/2000/svg" width="65" height="64" viewBox="0 0 65 64">
<path fill="#fff" d="M45.236 51.442s0 0-4.849-5.527c-7.321 8.048-9.115 9.697-9.697 10.473-1.53 1.354-3.553 2.181-5.77 2.182h-0c-3.744-0.294-6.934-2.421-8.699-5.474l-0.028-0.053-1.988-3.151 2.57-2.667 7.709-8.533 5.285-5.77-9.697-11.491-2.667-3.297 2.909-2.909c3.71-3.478 8.515-5.829 13.844-6.485l0.12-0.012c0.086-0.004 0.187-0.006 0.288-0.006 2.028 0 3.855 0.859 5.138 2.232l0.004 0.004 4.849 5.576q0.63-0.776 1.309-1.455v-11.927c0-0 0-0.001 0-0.002 0-1.741-1.411-3.151-3.151-3.151-0.034 0-0.068 0.001-0.102 0.002l0.005-0h-39.467c-1.741 0-3.151 1.411-3.151 3.151v0 57.745c0.027 1.72 1.428 3.103 3.151 3.103 0 0 0 0 0 0h39.467c1.714 0 3.103-1.389 3.103-3.103v0-8.97l-0.485-0.485z"></path>
<path fill="#e26969" d="M64.824 11.927c-1.115-1.552-4.218-5.139-7.515-2.327-1.164 0.97-6.594 6.933-13.042 14.061l-8-9.697c-2.23-2.424-10.279 2.036-12.606 4.364 0 0.291 6.158 7.321 12.17 14.545l-15.758 17.648c1.018 1.551 4.218 5.139 7.515 2.279 1.164-0.97 6.642-6.933 13.042-14.012l8 9.697c2.279 2.473 10.279-1.988 12.606-4.364l-12.073-14.739c7.855-8.727 14.982-16.727 15.709-17.455z"></path>
</svg>
