<!-- Generated by IcoMoon.io -->
<svg version="1.1" xmlns="http://www.w3.org/2000/svg" width="64" height="64" viewBox="0 0 64 64">
<path fill="#fff" d="M59.002 15.348c0-1.455-1.18-2.636-2.636-2.636h-48.733c-1.455 0-2.635 1.18-2.635 2.636v33.304c0 1.456 1.18 2.636 2.636 2.636h48.733c1.456 0 2.636-1.18 2.636-2.636z"></path>
<path fill="#231f20" d="M32 14.987c-9.381 0-17.013 7.632-17.013 17.013s7.632 17.013 17.013 17.013c9.381 0 17.013-7.632 17.013-17.013s-7.632-17.013-17.013-17.013zM32 17.12c8.218 0 14.88 6.662 14.88 14.88s-6.662 14.88-14.88 14.88c-8.218 0-14.88-6.662-14.88-14.88s6.662-14.88 14.88-14.88z"></path>
<path fill="#e26869" d="M30.771 31.98v0.755l-1.889 1.731h-8.215v-0.693l1.888-1.794z"></path>
<path fill="#e26869" d="M37.381 22.235v16.84c0 0.567 0.094 0.971 0.283 1.212s0.514 0.362 0.976 0.362v0.882c-4.26 1.868-6.4 2.801-6.421 2.801l-0.504-1.007c0.168 0 0.372-0.073 0.614-0.22s0.446-0.315 0.614-0.503c0.441-0.503 0.661-1.269 0.661-2.298v-15.549c0-0.441-0.147-0.803-0.441-1.086s-0.567-0.461-0.819-0.535c-0.252-0.073-0.577-0.152-0.976-0.236v-0.692l4.123-2.109c0.462 0.189 0.892 0.499 1.291 0.928s0.598 0.834 0.598 1.212z"></path>
</svg>
