<!-- Generated by IcoMoon.io -->
<svg version="1.1" xmlns="http://www.w3.org/2000/svg" width="64" height="64" viewBox="0 0 64 64">
<path fill="#fff" d="M32.011 0c-0.007 0-0.015 0-0.023 0-17.679 0-32.011 14.332-32.011 32.011s14.332 32.011 32.011 32.011c17.679 0 32.011-14.332 32.011-32.011v0c0-17.671-14.319-31.998-31.988-32.011h-0.001zM32.011 59.385c-15.118 0-27.374-12.256-27.374-27.374s12.256-27.374 27.374-27.374c15.118 0 27.374 12.256 27.374 27.374v0c0 15.118-12.256 27.374-27.374 27.374v0z"></path>
</svg>
