<!-- Generated by IcoMoon.io -->
<svg version="1.1" xmlns="http://www.w3.org/2000/svg" width="64" height="64" viewBox="0 0 64 64">
<path fill="#c88c4e" d="M32 63.654c-0.002 0-0.003 0-0.005 0-0.45 0-0.857-0.183-1.15-0.479l-30.019-30.019c-0.296-0.296-0.479-0.704-0.479-1.156s0.183-0.86 0.479-1.156l30.019-30.019c0.296-0.296 0.704-0.479 1.156-0.479s0.86 0.183 1.156 0.479v0l30.019 30.019c0.296 0.296 0.479 0.704 0.479 1.156s-0.183 0.86-0.479 1.156l-30.019 30.019c-0.294 0.296-0.701 0.479-1.15 0.479-0.002 0-0.004 0-0.006 0h0z"></path>
<path fill="#fff" d="M32 1.107c0.001 0 0.001 0 0.002 0 0.294 0 0.561 0.119 0.754 0.312v0l29.821 29.822c0.196 0.193 0.318 0.462 0.318 0.759s-0.121 0.565-0.317 0.759l-29.821 29.823c-0.194 0.193-0.461 0.312-0.756 0.312s-0.562-0.119-0.756-0.312l-29.821-29.822c-0.195-0.194-0.315-0.462-0.315-0.759s0.121-0.565 0.315-0.759l29.821-29.822c0.193-0.193 0.46-0.312 0.754-0.312 0.001 0 0.001 0 0.002 0h-0zM32 0.001c-0.602 0-1.147 0.245-1.541 0.64l-29.822 29.82c-0.394 0.394-0.637 0.938-0.637 1.538s0.243 1.145 0.637 1.538l29.822 29.822c0.394 0.395 0.939 0.639 1.541 0.639s1.147-0.244 1.541-0.639l29.822-29.822c0.394-0.394 0.637-0.938 0.637-1.538s-0.243-1.145-0.637-1.538v0l-29.822-29.821c-0.394-0.395-0.939-0.64-1.541-0.64h-0z"></path>
<path fill="#fff" d="M47.887 29.014l-1.672 1.685h-38.411l-0.797 1.301 0.798 1.307h38.41l1.672 1.685c0.128 0.129 0.306 0.209 0.502 0.209 0.089 0 0.175-0.017 0.254-0.047l-0.005 0.002 8.030-3.035c0.049-0.020 0.084-0.068 0.084-0.123s-0.034-0.103-0.083-0.123l-0.001-0-8.030-3.030c-0.074-0.029-0.159-0.045-0.249-0.045-0.196 0-0.374 0.080-0.502 0.209l-0 0z"></path>
<path fill="#fff" d="M28.159 26.705l-2.157-4.159 3.043 0.553 0.553-6.093 2.498 3.884 5.681-9.859-0.784 10.084 4.607-2.446-2.488 5.401 3.343 0.275-4.767 3.318c-0.060 0.043-0.134 0.068-0.215 0.068-0.13 0-0.245-0.067-0.312-0.169l-0.001-0.001c-0.874-1.393-2.387-2.315-4.117-2.353l-0.006-0c-1.829-0.046-3.599 1.093-4.328 1.625-0.061 0.046-0.138 0.073-0.221 0.073-0.144 0-0.269-0.082-0.331-0.202l-0.001-0.002z"></path>
<path fill="#fff" d="M35.934 37.419l2.212 4.261-3.118-0.568-0.564 6.241-2.559-3.981-5.822 10.106 0.803-10.329-4.72 2.506 2.544-5.53-3.428-0.282 4.883-3.4c0.061-0.043 0.137-0.069 0.22-0.069 0.134 0 0.252 0.069 0.32 0.173l0.001 0.001c0.895 1.427 2.444 2.371 4.217 2.41l0.006 0c1.875 0.048 3.687-1.119 4.433-1.664 0.062-0.046 0.14-0.074 0.225-0.074 0.147 0 0.275 0.083 0.338 0.205l0.001 0.002z"></path>
</svg>
