<!-- Generated by IcoMoon.io -->
<svg version="1.1" xmlns="http://www.w3.org/2000/svg" width="64" height="64" viewBox="0 0 64 64">
<path fill="#7c7f67" d="M32 63.447c-0.001 0-0.001 0-0.002 0-0.449 0-0.855-0.184-1.146-0.481l-29.818-29.818c-0.294-0.294-0.476-0.7-0.476-1.148s0.182-0.854 0.476-1.148v0l29.818-29.818c0.293-0.295 0.699-0.477 1.148-0.477s0.855 0.182 1.148 0.477l29.818 29.818c0.294 0.294 0.476 0.7 0.476 1.148s-0.182 0.854-0.476 1.148v0l-29.818 29.818c-0.292 0.297-0.697 0.481-1.146 0.481-0.001 0-0.001 0-0.002 0h0z"></path>
<path fill="#fff" d="M32 1.107c0 0 0.001 0 0.001 0 0.295 0 0.562 0.119 0.755 0.312l29.821 29.822c0.195 0.194 0.315 0.462 0.315 0.759s-0.12 0.565-0.315 0.759l-29.821 29.822c-0.194 0.193-0.461 0.312-0.756 0.312s-0.562-0.119-0.756-0.312l-29.821-29.822c-0.195-0.194-0.315-0.462-0.315-0.759s0.121-0.565 0.315-0.759l29.821-29.822c0.194-0.193 0.46-0.312 0.755-0.312 0 0 0.001 0 0.001 0h-0zM32 0.001c-0.602 0-1.147 0.245-1.541 0.64l-29.822 29.82c-0.394 0.394-0.637 0.938-0.637 1.538s0.243 1.145 0.637 1.538l29.822 29.822c0.394 0.395 0.939 0.639 1.541 0.639s1.147-0.244 1.541-0.639l29.822-29.822c0.394-0.394 0.637-0.938 0.637-1.538s-0.243-1.145-0.637-1.538v0l-29.822-29.821c-0.394-0.395-0.939-0.64-1.541-0.64h-0z"></path>
<path fill="#fff" d="M50.712 28.914c-0.826-3.637-2.759-10.517-18.712-10.517s-17.884 6.88-18.715 10.517c-1.475 6.47 1.405 9.556 3.058 10.714 2.035 1.423 6.881 1.667 6.881 1.667s-0.654 4.509 0 5.261c1.438 1.652 15.643 1.77 17.553 0 0.733-0.672 0-5.261 0-5.261s4.846-0.243 6.877-1.667c1.652-1.158 4.534-4.245 3.058-10.714zM27.968 33.67c0.192 0.199 0.31 0.47 0.31 0.768s-0.118 0.569-0.311 0.768l0-0c-0.193 0.199-0.462 0.322-0.761 0.322s-0.568-0.123-0.761-0.322l-0.010-0.010-2.717-3.048-2.668 3.073c-0.209 0.199-0.493 0.322-0.805 0.322-0.003 0-0.005 0-0.008 0h0c-0.004 0-0.009 0-0.014 0-0.31 0-0.591-0.123-0.798-0.322l0 0c-0.213-0.197-0.346-0.479-0.346-0.791s0.133-0.594 0.346-0.791l0.001-0.001 0.009-0.010 3.081-2.684-3.050-2.705c-0.189-0.204-0.305-0.478-0.305-0.78s0.116-0.576 0.306-0.78l-0.001 0.001c0.188-0.204 0.457-0.332 0.756-0.332s0.568 0.127 0.755 0.331l0.001 0.001 2.736 3.067 2.684-3.077c0.207-0.199 0.488-0.322 0.799-0.322s0.592 0.123 0.799 0.322l-0-0c0.207 0.2 0.336 0.481 0.336 0.791s-0.129 0.591-0.336 0.791l-0 0-0.009 0.010-3.072 2.684zM34.126 40.527c-0.584 0.322-0.977-0.448-1.948-0.639-1.461-0.281-2.087 0.732-2.46 0-0.42-0.817 1.186-4.701 2.165-4.888s1.597 0.284 1.91 1.77c0.416 1.97 0.919 3.428 0.332 3.76zM44.554 33.672c0.192 0.199 0.31 0.47 0.31 0.768s-0.118 0.569-0.31 0.768l0-0c-0.193 0.199-0.462 0.322-0.761 0.322s-0.568-0.123-0.761-0.322l-0.010-0.010-2.716-3.048-2.666 3.071c-0.212 0.199-0.498 0.322-0.812 0.322s-0.601-0.123-0.813-0.323l0.001 0.001c-0.21-0.199-0.341-0.48-0.341-0.791s0.131-0.592 0.34-0.791l0.001-0 0.009-0.010 3.081-2.684-3.052-2.705c-0.189-0.204-0.305-0.478-0.305-0.78s0.116-0.575 0.305-0.78l-0.001 0.001c0.187-0.204 0.456-0.332 0.754-0.332 0.001 0 0.002 0 0.003 0h-0c0.299 0.001 0.568 0.128 0.756 0.331l0.001 0.001 2.735 3.067 2.685-3.077c0.206-0.199 0.488-0.322 0.798-0.322s0.591 0.123 0.798 0.322l-0-0c0.207 0.2 0.336 0.481 0.336 0.791s-0.129 0.591-0.336 0.791l-0 0-0.009 0.010-3.072 2.684z"></path>
</svg>
