<!-- Generated by IcoMoon.io -->
<svg version="1.1" xmlns="http://www.w3.org/2000/svg" width="44" height="64" viewBox="0 0 44 64">
<path fill="#000" d="M42.059 51.167c-1.822 1.076-14.572 9.439-19.622 12.667-0.104 0.072-0.233 0.115-0.373 0.115s-0.268-0.043-0.375-0.116l0.002 0.001c-4.802-3.229-17.884-11.591-19.705-12.668v0c0-2.567-0.828-26.66-1.739-50.256-0.013-0.055-0.020-0.118-0.020-0.182 0-0.313 0.174-0.586 0.43-0.726l0.004-0.002c7.369 0 10.846 1.987 21.195 1.987s12.999-1.821 21.195-1.987c0.026-0.003 0.057-0.005 0.088-0.005 0.412 0 0.745 0.334 0.745 0.745 0 0.031-0.002 0.062-0.006 0.092l0-0.004c-1.242 23.679-1.822 47.772-1.822 50.339v0z"></path>
<path fill="#fff" d="M30.799 26.246s-3.395-1.076-9.025-8.279c-5.63 7.617-9.025 8.279-9.025 8.279s-1.739 0-5.216-3.395c1.076 5.216 1.822 9.604 2.070 11.343 0.005 0.533 0.345 0.985 0.819 1.156l0.009 0.003c3.27 1.337 7.064 2.114 11.040 2.114 4.206 0 8.209-0.869 11.839-2.437l-0.194 0.075c0.348-0.18 0.597-0.511 0.661-0.904l0.001-0.007c0.539-4.396 1.265-8.246 2.212-12.008l-0.142 0.666c-3.477 3.56-5.216 3.395-5.216 3.395z"></path>
</svg>
