<!-- Generated by IcoMoon.io -->
<svg version="1.1" xmlns="http://www.w3.org/2000/svg" width="64" height="64" viewBox="0 0 64 64">
<path fill="#b62025" d="M32 63.447c-0.001 0-0.003 0-0.004 0-0.447 0-0.852-0.182-1.144-0.475l-29.818-29.824c-0.294-0.294-0.476-0.7-0.476-1.148s0.182-0.854 0.476-1.148l29.818-29.818c0.294-0.294 0.7-0.476 1.148-0.476s0.854 0.182 1.148 0.476l29.824 29.818c0.294 0.294 0.475 0.7 0.475 1.148s-0.182 0.854-0.475 1.148l-29.824 29.824c-0.292 0.294-0.697 0.476-1.144 0.476-0.001 0-0.003 0-0.004 0h0z"></path>
<path fill="#fff" d="M32 1.106c0.001 0 0.002 0 0.003 0 0.295 0 0.562 0.12 0.755 0.314l29.822 29.822c0.194 0.194 0.314 0.462 0.314 0.758s-0.12 0.564-0.314 0.758l-29.822 29.822c-0.194 0.194-0.462 0.314-0.758 0.314s-0.564-0.12-0.758-0.314v0l-29.822-29.822c-0.194-0.194-0.314-0.462-0.314-0.758s0.12-0.564 0.314-0.758l29.822-29.822c0.193-0.194 0.46-0.314 0.755-0.314 0.001 0 0.002 0 0.003 0h-0zM32 0c-0.001 0-0.002 0-0.003 0-0.6 0-1.144 0.244-1.536 0.638l-29.822 29.822c-0.394 0.394-0.638 0.938-0.638 1.539s0.244 1.146 0.638 1.539l29.822 29.822c0.394 0.394 0.938 0.638 1.539 0.638s1.146-0.244 1.539-0.638l29.822-29.822c0.394-0.394 0.638-0.938 0.638-1.539s-0.244-1.146-0.638-1.539l-29.822-29.822c-0.393-0.394-0.936-0.638-1.536-0.638-0.001 0-0.002 0-0.003 0h0z"></path>
<path fill="#fff" d="M25.878 15.719l3.088-1.611c0.814 1.412 1.534 2.803 2.384 4.111 2.382 3.66 4.796 4.163 8.47 1.762 1.18-0.774 2.262-1.692 3.539-2.654 0.746 0.863 1.508 1.743 2.265 2.619-8.144 8.048-15.172 6.747-19.746-4.226z"></path>
<path fill="#fff" d="M48.269 25.878l1.621 3.056c-1.512 0.885-2.986 1.659-4.366 2.577-3.343 2.246-3.832 4.569-1.677 7.997 0.828 1.318 1.836 2.524 2.833 3.877l-2.609 2.195c-8.225-8.185-6.582-15.296 4.197-19.702z"></path>
<path fill="#fff" d="M20.675 46.723l-2.222-2.621c8.5-8.784 15.316-6.205 19.729 4.125l-3.133 1.666c-0.525-0.946-1.022-1.839-1.521-2.732-3.047-5.452-5.84-6.006-10.784-2.133-0.658 0.515-1.293 1.058-2.069 1.695z"></path>
<path fill="#fff" d="M15.763 38.159c-0.545-1.041-1.052-2.008-1.659-3.154 0.618-0.34 1.197-0.653 1.77-0.974 0.685-0.385 1.382-0.751 2.046-1.17 4.055-2.559 4.579-5.039 1.862-9.013-0.734-1.075-1.585-2.071-2.462-3.207l2.608-2.228c7.589 7.484 7.42 14.796-4.165 19.747z"></path>
</svg>
