<!-- Generated by IcoMoon.io -->
<svg version="1.1" xmlns="http://www.w3.org/2000/svg" width="64" height="64" viewBox="0 0 64 64">
<path fill="#c73c96" d="M32 63.447c-0 0-0 0-0.001 0-0.447 0-0.852-0.182-1.144-0.475l-29.827-29.824c-0.292-0.294-0.473-0.699-0.473-1.146s0.181-0.852 0.473-1.146l29.827-29.827c0.294-0.294 0.7-0.476 1.148-0.476s0.854 0.182 1.148 0.476l29.82 29.827c0.293 0.294 0.475 0.7 0.475 1.148s-0.181 0.854-0.475 1.148l-29.824 29.82c-0.292 0.294-0.697 0.476-1.144 0.476-0.001 0-0.003 0-0.004 0h0z"></path>
<path fill="#fff" d="M32 1.106c0.001 0 0.001 0 0.002 0 0.295 0 0.562 0.12 0.755 0.314l29.824 29.823c0.193 0.194 0.313 0.462 0.313 0.757s-0.119 0.563-0.313 0.757l-29.824 29.824c-0.194 0.194-0.461 0.314-0.757 0.314s-0.563-0.12-0.757-0.314v0l-29.822-29.824c-0.194-0.194-0.314-0.461-0.314-0.757s0.12-0.563 0.314-0.757v0l29.822-29.822c0.193-0.194 0.46-0.314 0.755-0.314 0.001 0 0.002 0 0.003 0h-0zM32 0c-0.001 0-0.002 0-0.004 0-0.6 0-1.143 0.243-1.536 0.637l-29.824 29.824c-0.394 0.394-0.637 0.938-0.637 1.539s0.243 1.145 0.637 1.539v0l29.824 29.824c0.394 0.394 0.938 0.638 1.539 0.638s1.145-0.244 1.539-0.638l29.824-29.824c0.394-0.394 0.638-0.938 0.638-1.539s-0.244-1.145-0.638-1.539v0l-29.824-29.824c-0.393-0.394-0.936-0.637-1.536-0.637-0.001 0-0.002 0-0.003 0h0z"></path>
<path fill="#fff" d="M18.983 23.344h-2.931c0.173-0.324 0.416-0.59 0.71-0.785l0.008-0.005h1.357c0.32 0.238 0.6 0.497 0.851 0.783l0.005 0.006z"></path>
<path fill="#fff" d="M21.021 26.16h-4.606c-0.13-0.259-0.259-0.571-0.365-0.894l-0.014-0.051h4.372c0.237 0.347 0.445 0.674 0.614 0.944z"></path>
<path fill="#fff" d="M23.003 28.975h-4.882q-0.289-0.442-0.634-0.968c-0.029-0.043-0.058-0.086-0.084-0.128h4.733c0.285 0.41 0.57 0.767 0.875 1.106l-0.009-0.010z"></path>
<path fill="#fff" d="M24.441 17.715h-3.437c0.034-0.183 0.096-0.346 0.182-0.493l-0.004 0.007h3.055c0.062 0.134 0.133 0.301 0.205 0.485z"></path>
<path fill="#fff" d="M25.524 20.529h-4.054c-0.075-0.209-0.146-0.425-0.209-0.638h4.026z"></path>
<path fill="#fff" d="M26.612 23.343h-4.001c-0.085-0.221-0.155-0.394-0.201-0.511-0.031-0.078-0.070-0.172-0.111-0.279h3.997c0.111 0.291 0.218 0.561 0.316 0.79z"></path>
<path fill="#fff" d="M27.793 26.16h-4.162c-0.102-0.317-0.21-0.635-0.319-0.943h4.059c0.142 0.343 0.276 0.662 0.421 0.943z"></path>
<path fill="#fff" d="M30.891 12.084h-1.851c0.585-0.272 1.323-0.209 1.851 0z"></path>
<path fill="#fff" d="M32.086 14.899h-4.006c-0.007-0.111-0.012-0.221-0.014-0.332h3.968c0.019 0.11 0.038 0.221 0.052 0.332z"></path>
<path fill="#fff" d="M32.404 17.715h-3.981c-0.024-0.161-0.050-0.323-0.074-0.485h4.012c0.009 0.092 0.016 0.166 0.020 0.221s0.017 0.147 0.023 0.264z"></path>
<path fill="#fff" d="M32.65 20.529h-3.855c-0.013-0.2-0.033-0.414-0.060-0.638h3.861c0.018 0.208 0.035 0.421 0.054 0.638z"></path>
<path fill="#fff" d="M32.866 23.344h-3.749c-0.035-0.264-0.071-0.529-0.111-0.79h3.8c0.024 0.273 0.040 0.539 0.060 0.79z"></path>
<path fill="#fff" d="M29.325 26.16c0.007-0.12 0.011-0.261 0.011-0.403 0-0.19-0.007-0.379-0.021-0.565l0.002 0.025h3.684c0.087 0.664 0.231 0.872 0.404 0.943z"></path>
<path fill="#fff" d="M38.81 27.878c-0.105 0.536-0.165 0.916-0.153 1.052v0.044h-14.451c0.001-0.030 0.001-0.066 0.001-0.102 0-0.353-0.041-0.696-0.118-1.025l0.006 0.030z"></path>
<path fill="#fff" d="M34.963 25.215h4.433c-0.074 0.324-0.147 0.641-0.221 0.943h-4.68c0.129-0.088 0.227-0.212 0.281-0.358l0.002-0.005c0.039-0.093 0.104-0.3 0.186-0.581z"></path>
<path fill="#fff" d="M35.696 22.554h4.323c-0.061 0.26-0.123 0.524-0.186 0.79h-4.349c0.071-0.264 0.142-0.531 0.211-0.79z"></path>
<path fill="#fff" d="M36.351 19.891h4.278c-0.041 0.195-0.089 0.409-0.14 0.638h-4.27c0.034-0.154 0.077-0.373 0.133-0.638z"></path>
<path fill="#fff" d="M40.91 14.899h-2.708c0.098-0.121 0.2-0.23 0.311-0.33l0.002-0.002h2.086c0.119 0.095 0.221 0.204 0.306 0.327l0.003 0.005z"></path>
<path fill="#fff" d="M41.148 17.229c-0.029 0.166-0.061 0.332-0.093 0.485h-4.158c0.050-0.161 0.101-0.324 0.156-0.485z"></path>
<path fill="#fff" d="M39.772 31.79h-20c-0.171-0.347-0.393-0.754-0.685-1.25h19.713c0.108 0.602 0.348 1.048 0.971 1.25z"></path>
<path fill="#fff" d="M26.622 48.68c-0.015-0.822-0.076-1.629-0.221-2.165h11.159c0 0.546 0.025 1.356 0.053 2.165z"></path>
<path fill="#fff" d="M37.704 51.074c0 0.008 0.001 0.017 0.001 0.027 0 0.266-0.171 0.493-0.409 0.576l-0.004 0.001c-0.918 0.312-3.147 0.995-5.274 1.075-2.101 0.075-4.166-0.534-5.044-0.834-0.242-0.084-0.412-0.31-0.412-0.576 0-0.013 0-0.025 0.001-0.037l-0 0.002c0.028-0.48 0.065-1.285 0.065-2.131h11.003c0.027 0.754 0.056 1.462 0.074 1.898z"></path>
<path fill="#fff" d="M37.579 45.865h-11.723c-0.609-0.442-1.242-1.175-1.852-2.013h15.394c-0.904 1.011-1.75 1.847-1.817 1.991-0.001 0.007-0.002 0.014-0.002 0.022v0z"></path>
<path fill="#fff" d="M41.362 41.189c-0.182 0.364-0.366 0.672-0.57 0.964l0.017-0.025c-0.221 0.302-0.461 0.613-0.716 0.921h-16.648c-0.317-0.473-0.627-0.958-0.918-1.426q-0.133-0.212-0.252-0.435z"></path>
<path fill="#fff" d="M42.515 38.527c-0.221 0.547-0.455 1.141-0.702 1.708h-19.985c-0.192-0.46-0.381-1.029-0.532-1.613l-0.021-0.094z"></path>
<path fill="#fff" d="M44.155 35.865c-0.28 0.24-0.486 0.414-0.58 0.492-0.172 0.143-0.376 0.535-0.605 1.063h-21.936c-0.104-0.545-0.184-1.071-0.247-1.555z"></path>
<path fill="#fff" d="M47.223 33.203c-0.53 0.466-1.087 0.952-1.604 1.401h-24.987c-0.039-0.416-0.103-0.792-0.195-1.159l0.011 0.053c-0.031-0.098-0.061-0.197-0.093-0.297z"></path>
<path fill="#fff" d="M48.228 28.975h-2.368c0.502-0.197 1.012-0.305 1.491-0.249 0.325 0.037 0.622 0.125 0.893 0.256l-0.016-0.007z"></path>
<path fill="#fff" d="M49.585 31.022c-0.044 0.076-0.341 0.364-0.781 0.767h-7.561c0.502-0.154 0.928-0.442 1.35-0.701 0.165-0.101 0.419-0.303 0.739-0.553h6.239c0.061 0.223 0.062 0.399 0.014 0.487z"></path>
</svg>
