<!-- Generated by IcoMoon.io -->
<svg version="1.1" xmlns="http://www.w3.org/2000/svg" width="53" height="64" viewBox="0 0 53 64">
<path fill="#fff" d="M7.341 43.603s-7.341-13.303-7.341-13.894c3.796-5.641 8.157-10.503 13.102-14.696l0.102-0.085c3.129-0.818 6.962-1.528 10.873-1.981l0.409-0.039c3.597-0.887 6.306-2.020 7.44-0.443 0.088 0.546 0.137 1.175 0.137 1.816 0 3.455-1.451 6.571-3.778 8.771l-0.006 0.005c-2.346 1.273-5.136 2.021-8.101 2.021-0.079 0-0.158-0.001-0.237-0.002l0.012 0-1.133 1.38s6.947 6.848 5.666 12.219c-1.201 6.776-6.293 12.1-12.843 13.625l-0.114 0.022c-1.143-3.331-2.559-6.213-4.283-8.878l0.095 0.157z"></path>
<path fill="#fff" d="M26.063 26.556c-0.558 0.325-0.938 0.901-0.985 1.57l-0 0.006c4.089 4.582 4.927 11.233-0.591 19.707-2.749 4.028-7.184 6.731-12.265 7.092l-0.052 0.003 1.774 8.868h15.569l1.38-7.932c0.075-0.246 0.3-0.422 0.567-0.422s0.491 0.176 0.565 0.418l0.001 0.004c1.005 2.369 1.615 5.121 1.675 8.008l0 0.023h10.494c-0.766-4.018-1.204-8.64-1.204-13.364 0-0.637 0.008-1.272 0.024-1.905l-0.002 0.094c1.258-2.957 2.812-5.506 4.677-7.793l-0.046 0.058c0.728-1.341 1.156-2.936 1.156-4.631s-0.428-3.29-1.182-4.683l0.026 0.052c-7.968-0.81-15.278-2.638-22.131-5.367l0.552 0.194z"></path>
<path fill="#fff" d="M5.124 18.427c-1.193-2.972-1.886-6.418-1.886-10.025 0-0.304 0.005-0.606 0.015-0.907l-0.001 0.044c2.565-2.588 5.461-4.841 8.621-6.692l0.198-0.107c0.227-0.031 0.489-0.049 0.756-0.049 1.332 0 2.56 0.444 3.545 1.193l-0.014-0.011 0.443 8.721c-1.847 0.239-3.512 0.636-5.105 1.187l0.178-0.054c-2.502 2.022-4.715 4.219-6.686 6.621l-0.063 0.080z"></path>
<path fill="#fff" d="M20.841 10.149v-7.637c2.095-1.046 4.53-1.911 7.079-2.473l0.212-0.039c2.069 0 4.927 3.646 4.927 3.646-0.252 1.754-0.631 3.317-1.139 4.82l0.055-0.189c-1.035 0.246-11.282 1.872-11.282 1.872z"></path>
<path fill="#fff" d="M36.853 6.011c-1.849 4.961-3.551 10.991-4.794 17.187l-0.133 0.796c0 1.724 7.243 3.153 7.686 2.020 1.745-4.78 3.444-10.737 4.756-16.838l0.171-0.948c-0.246-1.823-5.567-3.252-7.784-2.217z"></path>
<path fill="#fff" d="M46.657 13.549c-1.619 3.952-3.048 8.653-4.047 13.511l-0.091 0.531c1.33 1.527 6.208 2.365 7.587 0 1.417-2.727 2.557-5.89 3.258-9.214l0.043-0.245c-0.078-1.695-0.819-3.204-1.967-4.283l-0.003-0.003c-0.732-0.277-1.579-0.438-2.463-0.438s-1.731 0.161-2.513 0.454l0.049-0.016z"></path>
</svg>
