<!-- Generated by IcoMoon.io -->
<svg version="1.1" xmlns="http://www.w3.org/2000/svg" width="68" height="64" viewBox="0 0 68 64">
<path fill="#fff" d="M30.611 25.493c-1.893 2.127-4.638 3.461-7.695 3.461-0.019 0-0.039-0-0.058-0h0.003c-0.214 0.015-0.463 0.024-0.714 0.024-5.788 0-10.48-4.692-10.48-10.48s4.692-10.48 10.48-10.48c0.251 0 0.501 0.009 0.747 0.026l-0.033-0.002c0.036-0 0.078-0.001 0.12-0.001 3.027 0 5.748 1.314 7.622 3.403l0.008 0.010h15.11v-8.335c0-1.723-1.397-3.12-3.12-3.12v0h-39.482c-1.723 0-3.12 1.397-3.12 3.12v0 57.761c-0 0.014-0 0.032-0 0.049 0 1.723 1.397 3.12 3.12 3.12 0 0 0 0 0 0h39.482c1.723 0 3.12-1.397 3.12-3.12v0-35.436z"></path>
<path fill="#e26969" d="M68.436 18.474c0 0.026 0.001 0.057 0.001 0.088 0 4.038-3.273 7.311-7.312 7.311-2.629 0-4.933-1.387-6.222-3.469l-0.018-0.031h-25.834c-1.277 2.088-3.545 3.461-6.134 3.461-0.020 0-0.040-0-0.060-0h0.003c-0.001 0-0.002 0-0.003 0-4.065 0-7.36-3.295-7.36-7.36s3.295-7.36 7.36-7.36c2.62 0 4.92 1.369 6.225 3.431l0.018 0.030h25.785c1.33-2.046 3.605-3.38 6.191-3.38 4.036 0 7.314 3.249 7.36 7.275l0 0.004z"></path>
<path fill="#231f20" d="M33.438 52.545l5.8-9.992h-3.51c-1.701-5.706-6.901-9.796-13.057-9.796-7.511 0-13.599 6.089-13.599 13.599s6.089 13.599 13.599 13.599c2.691 0 5.2-0.782 7.311-2.13l-0.055 0.033c0.724-0.368 1.211-1.108 1.211-1.961 0-1.211-0.982-2.193-2.193-2.193-0.582 0-1.112 0.227-1.505 0.597l0.001-0.001c-1.392 0.873-3.083 1.391-4.895 1.391-5.142 0-9.31-4.168-9.31-9.31s4.168-9.31 9.31-9.31c3.811 0 7.087 2.29 8.528 5.568l0.023 0.060h-3.412z"></path>
</svg>
