<!-- Generated by IcoMoon.io -->
<svg version="1.1" xmlns="http://www.w3.org/2000/svg" width="62" height="64" viewBox="0 0 62 64">
<path d="M32.277 37.42c-0.071-0.009-0.152-0.014-0.235-0.014-1.021 0-1.863 0.769-1.977 1.759l-0.001 0.009c-0.612 5.312 1.496 10.571 5.602 13.995l0.060 0.040 0.040 0.040c3.926 2.906 8.984 3.811 13.676 2.452 0.836-0.248 1.436-1.010 1.436-1.912 0-0.2-0.029-0.393-0.084-0.575l0.004 0.014c-0.25-0.834-1.010-1.431-1.91-1.431-0.193 0-0.38 0.027-0.556 0.079l0.014-0.004c-3.483 1.009-7.224 0.306-10.148-1.834-3.036-2.569-4.622-6.452-4.167-10.407 0.009-0.071 0.014-0.152 0.014-0.235 0-1.021-0.769-1.862-1.759-1.977l-0.009-0.001z"></path>
<path d="M60.325 12.249c0.257-0.853 0.405-1.833 0.405-2.847 0-2.592-0.966-4.958-2.558-6.759l0.009 0.011c-1.819-1.704-4.273-2.751-6.971-2.751-2.12 0-4.090 0.647-5.722 1.753l0.036-0.023c-5.41-1.633-8.064 0.102-11.432 4.797-2.561 4.913-4.425 10.625-5.275 16.663l-0.032 0.281c3.63 4.17 7.574 7.887 11.854 11.189l0.19 0.141c7.827-0.998 14.638-4.724 19.574-10.18l0.024-0.027c1.161-1.634 1.856-3.671 1.856-5.869s-0.695-4.235-1.877-5.901l0.021 0.032zM53.691 20.415c-4.193 5.358-10.258 9.082-17.197 10.187l-0.155 0.020s7.247-15.821 16.434-17.965c3.062-0.817 2.96 5.206 0.919 7.962z"></path>
<path d="M21.333 29.295c-7.827 0.998-14.638 4.724-19.574 10.18l-0.024 0.027c-1.161 1.635-1.856 3.671-1.856 5.869s0.695 4.235 1.877 5.901l-0.021-0.032c-0.268 0.87-0.422 1.869-0.422 2.905 0 2.76 1.095 5.264 2.875 7.101l-0.003-0.003c1.814 1.681 4.251 2.712 6.928 2.712 2.095 0 4.043-0.631 5.664-1.714l-0.037 0.023c5.41 2.144 8.166 0 11.534-4.797 2.528-4.821 4.388-10.424 5.272-16.346l0.036-0.291c-3.684-4.17-7.694-7.889-12.044-11.182l-0.204-0.148zM9.391 51.547c-3.164 0.715-3.062-5.206-1.021-7.962 4.23-5.312 10.278-9.020 17.189-10.185l0.164-0.023s-7.145 15.923-16.332 18.169z"></path>
<path d="M20.833 25.060c-0.004 0-0.008-0-0.013-0-0.547 0-1.043 0.221-1.403 0.578l0-0c-0.359 0.36-0.581 0.857-0.581 1.405s0.222 1.046 0.581 1.406l-0-0 14.892 15.012c0.36 0.359 0.857 0.581 1.405 0.581s1.045-0.222 1.406-0.581l-0 0c0.365-0.361 0.591-0.862 0.591-1.416 0-0.544-0.218-1.037-0.571-1.396l0 0-14.912-15.012c-0.358-0.356-0.851-0.576-1.395-0.578h-0z"></path>
<path d="M27.053 19.039c-0.004 0-0.008-0-0.013-0-0.547 0-1.043 0.221-1.403 0.578l0-0c-0.359 0.36-0.581 0.857-0.581 1.405s0.222 1.046 0.581 1.406l-0-0 14.892 15.012c0.361 0.365 0.862 0.591 1.416 0.591s1.054-0.226 1.415-0.591l0-0c0.359-0.36 0.581-0.857 0.581-1.405s-0.222-1.045-0.581-1.406l0 0-14.892-15.012c-0.36-0.357-0.855-0.578-1.403-0.578-0.005 0-0.009 0-0.014 0h0.001z"></path>
</svg>
