<!-- Generated by IcoMoon.io -->
<svg version="1.1" xmlns="http://www.w3.org/2000/svg" width="77" height="64" viewBox="0 0 77 64">
<path fill="#fff" d="M34.395 20.554c-0.918 0-1.874 0.041-2.864 0.125-1.932 2.448-4.9 4.006-8.231 4.006-5.777 0-10.46-4.683-10.46-10.46 0-2.011 0.568-3.89 1.551-5.484l-0.026 0.045c1.878-2.983 5.149-4.938 8.878-4.947h0.001c2.773 0.006 5.291 1.087 7.164 2.847l-0.005-0.005c1.362-0.112 2.702-0.169 4.001-0.169 0.115-0.001 0.25-0.002 0.385-0.002 3.899 0 7.657 0.606 11.184 1.729l-0.261-0.072v-5.044c0-1.725-1.398-3.123-3.123-3.123v0h-39.468c-1.725 0-3.123 1.398-3.123 3.123v0 57.754c0 1.725 1.398 3.123 3.123 3.123v0h39.468c1.725 0 3.123-1.398 3.123-3.123v0-37.103c-2.761-2.136-6.559-3.22-11.318-3.22z"></path>
<path fill="#fff" d="M72.22 15.163h-15.107c1.35 1.386 2.561 2.919 3.602 4.57l0.068 0.115h11.437v39.468h-62.435c0 2.587 2.097 4.685 4.685 4.685v0h57.751c2.587 0 4.685-2.097 4.685-4.685v0-39.468c0-2.587-2.097-4.685-4.685-4.685v0z"></path>
<path fill="#e26969" d="M62.876 37.79c-0.562-9.86-4.060-17.599-10.25-22.487-6.908-5.484-15.772-6.231-23.483-5.363-1.352-1.816-3.492-2.98-5.905-2.98-4.053 0-7.339 3.286-7.339 7.339s3.286 7.339 7.339 7.339c2.801 0 5.236-1.569 6.473-3.876l0.019-0.039c7.63-0.937 13.801 0.312 18.046 3.692 5.188 4.113 6.88 10.734 7.274 16.375h-5.731l9.735 16.865 9.732-16.865z"></path>
<path fill="#000" d="M11.421 19.645c0 0.904-0.733 1.637-1.637 1.637s-1.637-0.733-1.637-1.637v0c0.518 0 1.031-0.378 1.637-0.378 0.497 0 1.068 0.378 1.637 0.378z"></path>
<path fill="#000" d="M8.604 29.089h2.358l-0.381-8.226h-1.596l-0.381 8.226z"></path>
<path fill="#000" d="M15.029 30.082v-0.725l-5.244-0.437-5.244 0.437v0.725l5.244 0.434 5.244-0.434z"></path>
<path fill="#000" d="M14.716 29.72c0-0.001 0-0.002 0-0.003 0-0.464 0.376-0.84 0.84-0.84s0.84 0.376 0.84 0.84c0 0.464-0.376 0.84-0.84 0.84v0c-0.001 0-0.002 0-0.003 0-0.462 0-0.837-0.375-0.837-0.837 0 0 0 0 0 0v0z"></path>
<path fill="#000" d="M3.173 29.72c0-0.001 0-0.002 0-0.003 0-0.464 0.376-0.84 0.84-0.84s0.84 0.376 0.84 0.84c0 0.464-0.376 0.84-0.84 0.84v0c-0.001 0-0.002 0-0.003 0-0.462 0-0.837-0.375-0.837-0.837 0 0 0 0 0 0v0z"></path>
<path fill="#000" d="M7.664 57.966l2.121 2.014 2.117-2.014v-28.037l-2.117 0.253-2.121-0.253v28.037z"></path>
</svg>
