<!-- Generated by IcoMoon.io -->
<svg version="1.1" xmlns="http://www.w3.org/2000/svg" width="64" height="64" viewBox="0 0 64 64">
<path fill="#4b97d2" d="M32 63.447c-0.002 0-0.003 0-0.005 0-0.446 0-0.85-0.181-1.141-0.474l-29.826-29.826c-0.293-0.294-0.474-0.699-0.474-1.146s0.181-0.853 0.474-1.146l29.826-29.827c0.294-0.293 0.699-0.474 1.147-0.474s0.853 0.181 1.147 0.474v0l29.826 29.827c0.293 0.294 0.474 0.699 0.474 1.146s-0.181 0.853-0.474 1.146l-29.826 29.826c-0.292 0.293-0.695 0.474-1.141 0.474-0.002 0-0.004 0-0.006 0h0z"></path>
<path fill="#fff" d="M32 1.106c0.001 0 0.002 0 0.003 0 0.295 0 0.562 0.12 0.755 0.313l29.822 29.822c0.193 0.195 0.313 0.463 0.313 0.759s-0.12 0.564-0.313 0.759l-29.822 29.822c-0.194 0.193-0.463 0.313-0.759 0.313s-0.564-0.12-0.759-0.313l-29.822-29.822c-0.193-0.194-0.313-0.463-0.313-0.759s0.12-0.564 0.313-0.759l29.822-29.822c0.193-0.193 0.46-0.313 0.756-0.313 0.001 0 0.002 0 0.003 0h-0zM32 0c-0 0-0 0-0.001 0-0.601 0-1.145 0.244-1.537 0.639l-29.822 29.822c-0.395 0.393-0.639 0.937-0.639 1.538s0.244 1.145 0.639 1.538l29.822 29.822c0.393 0.395 0.937 0.639 1.538 0.639s1.145-0.244 1.538-0.639l29.822-29.822c0.395-0.393 0.639-0.937 0.639-1.538s-0.244-1.145-0.639-1.538l-29.822-29.822c-0.393-0.395-0.937-0.639-1.538-0.639-0 0-0.001 0-0.001 0h0z"></path>
<path fill="#fff" d="M46.493 28.692c-4.769-0.195-7.589 1.867-8.175 2.345-1.763-1.763-2.693-2.244-5.125-2.27-2.786-0.025-4.888 1.216-5.631 1.857-0.116-2.201-1.722-5.028-1.367-6.883 0.175-0.919 0.324-2.218 0.589-3.037-0.649-0.097-1.573-0.627-1.229-2.178 0.485 1.659 1.909 1.345 1.909 1.345s0.284 0.818 0.933 0.915c0.561 0.086 1.216-0.515 1.216-0.515 0.213 0.398 0.625 0.664 1.1 0.664 0.016 0 0.033-0 0.049-0.001l-0.002 0c0.844-0.007 1.188-0.597 1.188-0.597s0.432 0.774 1.216 0.848 1.259-0.774 1.259-0.774 0.489 0.497 1.15 0.471 1.050-0.374 1.057-1.263-0.822-3.223-1.106-5.113c-0.171-1.191-0.553-1.259-1.557-1.259-1.266 0-3.189 0.542-6.588 1.393-5.592 1.4-6.043 3.716-6.154 4.203-0.699 3.032-2.193 5.886-3.601 9.265-2.42 5.807-1.020 10.558-0.433 11.458 0.355 0.542 3.243 1.172 6.405 2.043 2.088 0.575 4.134 1.229 6.267 1.595 3.084 0.526 5.826 0 8.836-1.367 4.553 2.178 7.402 1.438 7.402 1.438s1.076-0.38 1.076-5.684c0-3.421-0.664-5.777-0.691-8.888zM33.193 38.843c-3.201-0.195-5.061-2.174-5.542-3.254 0 0 3.287 2.596 7.111 2.248 0.981-0.077 1.88-0.368 2.67-0.827l-0.030 0.016c-0.157 0.68-1.49 1.98-4.209 1.816z"></path>
<path fill="#fff" d="M34.838 22.808c-0.953 0.299-1.88-0.374-2.335-0.968 0.17 0.072 0.368 0.122 0.575 0.142l0.008 0.001c0.054 0.007 0.118 0.011 0.182 0.011h0.001c0.508-0.008 0.968-0.207 1.313-0.528l-0.001 0.001c0.249 0.12 0.539 0.197 0.846 0.212l0.005 0c0.036 0.013 0.067 0.035 0.089 0.064l0 0c0.030 0.041 0.332 0.747-0.683 1.064z"></path>
</svg>
