<!-- Generated by IcoMoon.io -->
<svg version="1.1" xmlns="http://www.w3.org/2000/svg" width="64" height="64" viewBox="0 0 64 64">
<path fill="#4f504f" d="M32.002 63.449c-0.002 0-0.003 0-0.005 0-0.447 0-0.851-0.182-1.143-0.475l-29.82-29.823c-0.294-0.294-0.476-0.7-0.476-1.149s0.182-0.855 0.476-1.149v0l29.82-29.821c0.294-0.294 0.7-0.476 1.148-0.476s0.854 0.182 1.148 0.476l29.82 29.821c0.294 0.294 0.476 0.7 0.476 1.149s-0.182 0.855-0.476 1.149v0l-29.82 29.823c-0.292 0.294-0.696 0.476-1.143 0.476-0.002 0-0.004 0-0.005 0h0z"></path>
<path fill="#fff" d="M32.002 1.106c0.001 0 0.002 0 0.004 0 0.294 0 0.56 0.119 0.753 0.312l29.823 29.827c0.195 0.193 0.315 0.461 0.315 0.757s-0.12 0.564-0.315 0.757l-29.823 29.823c-0.193 0.195-0.461 0.315-0.757 0.315s-0.563-0.121-0.756-0.315l-29.823-29.823c-0.195-0.193-0.315-0.461-0.315-0.757s0.12-0.564 0.315-0.757l29.823-29.827c0.193-0.193 0.459-0.312 0.753-0.312 0.001 0 0.003 0 0.004 0h-0zM32.002 0c-0 0-0.001 0-0.001 0-0.602 0-1.146 0.244-1.539 0.639l-29.822 29.822c-0.395 0.393-0.639 0.937-0.639 1.538s0.244 1.145 0.639 1.538l29.822 29.827c0.395 0.392 0.94 0.635 1.541 0.635s1.145-0.243 1.541-0.635l29.822-29.827c0.395-0.393 0.639-0.937 0.639-1.538s-0.244-1.145-0.639-1.538l-29.822-29.822c-0.394-0.395-0.938-0.639-1.539-0.639-0 0-0.001 0-0.001 0h0z"></path>
<path fill="#fff" d="M24.924 22.297l5.481-5.355c0.033-0.038 0.082-0.061 0.136-0.061 0.1 0 0.18 0.081 0.18 0.18 0 0.009-0.001 0.017-0.002 0.026l0-0.001v10.809c0.001 0.007 0.002 0.015 0.002 0.024 0 0.1-0.081 0.18-0.18 0.18-0.054 0-0.102-0.024-0.135-0.061l-0-0-5.481-5.354c-0.046-0.051-0.074-0.119-0.074-0.193s0.028-0.142 0.074-0.193l-0 0z"></path>
<path fill="#fff" d="M32.786 18.029v1.265q-0.392-0.009-0.784-0.008-0.332 0-0.664 0v-2.328l1.136 0.566c0.186 0.095 0.311 0.285 0.312 0.504v0z"></path>
<path fill="#fff" d="M32.786 25.72v1.287c-0 0.222-0.128 0.414-0.313 0.508l-0.003 0.002-1.131 0.565v-2.364q0.332 0 0.664 0c0.262-0.004 0.524-0.003 0.784 0.001z"></path>
<path fill="#fff" d="M32.002 19.723c1.557 0 3.42 0.101 4.895 0.244 0.17 0.015 0.303 0.157 0.303 0.331 0 0 0 0.001 0 0.001v-0l-0.184 0.795c-0.118 0.492-0.186 1.057-0.186 1.637s0.068 1.145 0.196 1.687l-0.010-0.049 0.186 0.814c0 0.001 0 0.001 0 0.002 0 0.183-0.149 0.332-0.332 0.332-0.013 0-0.025-0.001-0.037-0.002l0.002 0c-1.449-0.135-3.288-0.233-4.831-0.233q-0.647 0-1.283 0.018h-0.221v-5.559h0.221c0.424-0.018 0.851-0.018 1.281-0.018z"></path>
<path fill="#fff" d="M39.995 20.404c1.852 0.335 3.458 0.763 5.011 1.303l-0.231-0.070c0.134 0.044 0.23 0.169 0.23 0.316 0 0.026-0.003 0.052-0.009 0.076l0-0.002-0.189 0.894c-0.101 0.454-0.158 0.976-0.158 1.512 0 0.505 0.051 0.997 0.149 1.473l-0.008-0.047 0.159 0.801c0.005 0.022 0.008 0.046 0.008 0.072 0 0.183-0.149 0.332-0.332 0.332-0.037 0-0.072-0.006-0.105-0.017l0.002 0.001c-1.261-0.417-2.815-0.803-4.406-1.082l-0.21-0.030c-0.139-0.023-0.249-0.129-0.277-0.264l-0-0.002-0.228-1.149c-0.088-0.427-0.139-0.917-0.139-1.42 0-0.524 0.055-1.035 0.159-1.528l-0.008 0.048 0.197-0.948c0.030-0.155 0.164-0.271 0.326-0.271 0.021 0 0.042 0.002 0.062 0.006l-0.002-0z"></path>
<path fill="#fff" d="M50.989 26.086c0 0.523-0.679 1.548-2.376 2.644-0.482-0.287-1.048-0.566-1.636-0.8l-0.083-0.029c-0.107-0.042-0.186-0.134-0.208-0.247l-0-0.002-0.221-1.125c-0.090-0.43-0.141-0.924-0.141-1.43 0-0.552 0.061-1.089 0.177-1.605l-0.009 0.049c0.057-0.264 0.111-0.52 0.155-0.72 0.030-0.155 0.165-0.27 0.326-0.27 0.052 0 0.1 0.012 0.144 0.033l-0.002-0.001c3.137 1.416 3.874 2.811 3.874 3.503z"></path>
<path fill="#fff" d="M53.065 26.087v8.149c0 2.465-2.345 4.698-6.138 6.316v-8.149q0.899-0.384 1.687-0.812c0.817-0.44 1.52-0.914 2.173-1.449l-0.024 0.019c1.473-1.222 2.303-2.607 2.303-4.075z"></path>
<path fill="#fff" d="M30.966 35.611v-4.103c0-0.268 0.303-0.466 0.522-0.342l9.747 7.569c0.116 0.090 0.19 0.23 0.19 0.387s-0.074 0.297-0.189 0.386l-0.001 0.001-9.747 7.569c-0.221 0.124-0.522-0.076-0.522-0.341v-11.127z"></path>
<path fill="#fff" d="M32.815 31.128l2.167 0.407c0.26 0.049 0.489 0.156 0.682 0.308l-0.003-0.003 8.939 6.895c0.115 0.091 0.188 0.23 0.188 0.387s-0.073 0.296-0.187 0.386l-0.001 0.001-8.939 6.895c-0.19 0.149-0.419 0.256-0.669 0.304l-0.010 0.002-2.167 0.407 9.669-7.609c0.115-0.091 0.189-0.23 0.189-0.387s-0.073-0.296-0.188-0.386l-0.001-0.001z"></path>
<path fill="#fff" d="M31.3 35.034v8.149c-2.884-0.068-5.65-0.357-8.344-0.852l0.323 0.049c-0.16-0.029-0.279-0.167-0.279-0.333 0-0.017 0.001-0.033 0.004-0.049l-0 0.002 0.188-1.327c0.107-0.713 0.168-1.536 0.168-2.374 0-0.789-0.054-1.566-0.16-2.326l0.010 0.088-0.191-1.427c-0.003-0.016-0.004-0.033-0.004-0.052 0-0.183 0.149-0.332 0.332-0.332 0.023 0 0.045 0.002 0.067 0.007l-0.002-0c2.332 0.431 5.053 0.711 7.827 0.776l0.062 0.001z"></path>
<path fill="#fff" d="M22.423 20.732v5.53c-2.748 0.597-5.147 1.446-7.032 2.472v0c-1.695-1.092-2.375-2.123-2.375-2.646 0-0.72 1.293-2.411 4.764-3.887 1.303-0.563 2.854-1.068 4.457-1.434l0.186-0.036z"></path>
<path fill="#fff" d="M15.39 31.592c0.271 0.147 0.199 0.118 0.346 0.187 0.103 0.049 0.176 0.146 0.191 0.26l0 0.002 0.24 1.859c0.088 0.646 0.138 1.393 0.138 2.151 0 0.872-0.066 1.728-0.194 2.564l0.012-0.094-0.153 1.031c-0.026 0.164-0.166 0.288-0.335 0.288-0.054 0-0.105-0.013-0.151-0.035l0.002 0.001c-3.139-1.548-4.548-3.336-4.548-5.57v-8.15c0 1.469 0.831 2.854 2.303 4.076 0.628 0.515 1.331 0.989 2.077 1.395l0.071 0.035z"></path>
<path fill="#fff" d="M18.204 32.839c0.836 0.303 1.725 0.612 2.661 0.849 0.133 0.035 0.233 0.144 0.252 0.28l0 0.002 0.221 1.692c0.094 0.667 0.147 1.437 0.147 2.22 0 0.842-0.062 1.67-0.181 2.48l0.011-0.092-0.179 1.252c-0.025 0.165-0.165 0.29-0.335 0.29-0.030 0-0.060-0.004-0.088-0.011l0.002 0.001c-0.98-0.259-1.91-0.591-2.779-0.909-0.132-0.046-0.225-0.169-0.225-0.314 0-0.018 0.001-0.035 0.004-0.053l-0 0.002 0.186-1.27c0.113-0.733 0.177-1.578 0.177-2.439 0-0.77-0.052-1.527-0.151-2.27l0.009 0.087-0.188-1.438c-0.003-0.016-0.004-0.034-0.004-0.052 0-0.183 0.149-0.332 0.332-0.332 0.046 0 0.090 0.009 0.13 0.026l-0.002-0.001z"></path>
</svg>
