<!-- Generated by IcoMoon.io -->
<svg version="1.1" xmlns="http://www.w3.org/2000/svg" width="83" height="64" viewBox="0 0 83 64">
<path fill="#fff" d="M30.608 25.504c-1.922 2.114-4.682 3.436-7.752 3.436-5.779 0-10.463-4.684-10.463-10.463s4.684-10.463 10.463-10.463c3.069 0 5.83 1.322 7.744 3.427l0.008 0.009h15.104v-8.327c0-1.725-1.398-3.123-3.123-3.123v0h-39.465c-1.725 0-3.123 1.398-3.123 3.123v0 57.754c0 1.725 1.398 3.123 3.123 3.123v0h39.468c1.725 0 3.123-1.398 3.123-3.123v0-35.372z"></path>
<path fill="#e26969" d="M66.394 28.209v-5.828h-37.323c-1.32 2.077-3.609 3.436-6.215 3.436-4.054 0-7.34-3.286-7.34-7.34s3.286-7.34 7.34-7.34c2.606 0 4.895 1.358 6.197 3.406l0.018 0.030h37.323v-5.828l16.856 9.732z"></path>
<path fill="#000" d="M28.568 43.532c1.512-2.406 2.683-5.052 2.683-7.733h0.976v-2.875h-18.739v2.875h0.976c0 2.681 1.17 5.327 2.683 7.733l1.045 1.66c0.238 0.361 0.38 0.803 0.38 1.278s-0.142 0.918-0.385 1.287l0.005-0.009-1.045 1.66c-1.513 2.406-2.683 5.052-2.683 7.733h-0.976v2.875h18.739v-2.875h-0.976c0-2.681-1.171-5.327-2.683-7.733l-1.045-1.66c-0.238-0.361-0.38-0.803-0.38-1.278s0.142-0.918 0.385-1.287l-0.005 0.009z"></path>
<path fill="#fff" d="M29.491 56.606c-0.068-0.953-0.255-1.839-0.547-2.675l0.022 0.072c-0.523-1.411-1.144-2.627-1.884-3.757l0.043 0.070-1.046-1.662c-0.396-0.62-0.631-1.376-0.631-2.186s0.235-1.566 0.64-2.203l-0.010 0.017 1.046-1.649c0.697-1.060 1.318-2.276 1.799-3.559l0.042-0.127c0.27-0.765 0.457-1.651 0.523-2.57l0.002-0.033c0.016-0.197 0.027-0.386 0.027-0.534h-13.322c0 0.148 0.011 0.34 0.027 0.539 0.070 0.949 0.256 1.831 0.545 2.665l-0.022-0.073c0.523 1.414 1.143 2.632 1.882 3.765l-0.044-0.072 1.045 1.662c0.396 0.62 0.631 1.376 0.631 2.186s-0.235 1.566-0.641 2.203l0.010-0.017-1.045 1.649c-0.697 1.061-1.318 2.279-1.8 3.565l-0.042 0.128c-0.267 0.761-0.453 1.643-0.521 2.558l-0.002 0.034c-0.016 0.2-0.027 0.39-0.027 0.54h13.324c0-0.142 0-0.337-0.023-0.536z"></path>
<path fill="#000" d="M21.135 44.194l-0.974-1.54c-0.604-0.913-1.142-1.96-1.562-3.066l-0.037-0.111c-0.081-0.218-0.161-0.493-0.224-0.775l-0.009-0.047h9.057c-0.073 0.33-0.153 0.607-0.25 0.876l0.015-0.049c-0.456 1.214-0.994 2.26-1.635 3.232l0.037-0.060-0.974 1.54c-0.948 1.496-2.497 1.496-3.445 0z"></path>
<path fill="#000" d="M24.663 54.298l1.021 1.473c0.634 0.876 1.196 1.875 1.639 2.936l0.037 0.099c0.095 0.248 0.178 0.937 0.244 1.212h-9.488c0.067-0.276 0.156-0.967 0.245-1.215 0.479-1.159 1.041-2.157 1.706-3.076l-0.030 0.043 1.021-1.471c0.987-1.43 2.613-1.43 3.606 0z"></path>
</svg>
