<!-- Generated by IcoMoon.io -->
<svg version="1.1" xmlns="http://www.w3.org/2000/svg" width="62" height="64" viewBox="0 0 62 64">
<path d="M10.176 34.624l5.824 5.824-3.136 3.2-9.024-9.024 9.024-9.024 3.136 3.136zM46.72 22.4l-12.224 12.224 12.224 12.16-15.36 15.36-3.2-3.2 12.224-12.096-24.384-24.384 9.024-9.024 3.2 3.136-5.888 5.824 9.024 9.088 9.024-9.088-12.16-12.16 3.136-3.136zM22.336 46.784l5.824 5.824-3.136 3.2-9.024-9.024 9.024-8.96 3.136 3.136zM58.88 34.624l-9.088 9.088-9.088-9.088 9.088-9.088z"></path>
</svg>
