<!-- Generated by IcoMoon.io -->
<svg version="1.1" xmlns="http://www.w3.org/2000/svg" width="64" height="64" viewBox="0 0 64 64">
<path fill="#cf8ab5" d="M32.002 63.448c-0.002 0-0.004 0-0.006 0-0.446 0-0.85-0.181-1.141-0.474l-29.82-29.823c-0.294-0.294-0.476-0.7-0.476-1.149s0.182-0.855 0.476-1.149l29.82-29.821c0.294-0.294 0.7-0.476 1.148-0.476s0.854 0.182 1.148 0.476l29.82 29.821c0.294 0.294 0.476 0.7 0.476 1.149s-0.182 0.855-0.476 1.149l-29.82 29.823c-0.292 0.293-0.695 0.474-1.142 0.474-0.002 0-0.005 0-0.007 0h0z"></path>
<path fill="#fff" d="M32.002 1.106c0.001 0 0.002 0 0.004 0 0.294 0 0.56 0.119 0.753 0.312l29.823 29.827c0.194 0.194 0.314 0.461 0.314 0.757s-0.12 0.563-0.314 0.757l-29.823 29.823c-0.193 0.195-0.461 0.315-0.757 0.315s-0.563-0.121-0.756-0.315l-29.823-29.823c-0.194-0.194-0.314-0.461-0.314-0.757s0.12-0.563 0.314-0.757l29.823-29.827c0.193-0.193 0.459-0.312 0.753-0.312 0.001 0 0.003 0 0.004 0h-0zM32.002 0c-0 0-0.001 0-0.001 0-0.602 0-1.146 0.244-1.539 0.639l-29.822 29.822c-0.395 0.393-0.639 0.937-0.639 1.538s0.244 1.145 0.639 1.538l29.822 29.827c0.395 0.392 0.94 0.635 1.541 0.635s1.145-0.243 1.541-0.635l29.822-29.827c0.395-0.393 0.639-0.937 0.639-1.538s-0.244-1.145-0.639-1.538l-29.822-29.822c-0.394-0.395-0.938-0.639-1.539-0.639-0 0-0.001 0-0.001 0h0z"></path>
<path fill="#fff" d="M32.296 56.318s-1.497-3.704-6.354-6.826-14.498-14.417-10.881-25.455c2.582 3.252 5.959-0.505 6.712-3.604s1.38-6.628 4.477-7.913c-0.229 2.266 2.779 2.522 3.989 1.77 1.497-0.939 2.898-3.453 1.681-7.21 6.583 3.821 3.506 9.595 6.423 10.66 2.433 0.885 2.495-2.347 2.419-3.027 5.15 3.068 7.556 9.069 7.115 16.6-0.471 8.016-3.94 12.83-9.651 17.497-4.56 3.731-5.934 7.511-5.934 7.511z"></path>
<path fill="#cf8ab5" d="M40.432 26.158c-1.308-1.308-1.415-2.765-1.415-2.765s-2.3 0.072-4.073-0.597c-1.123-0.422-2.094-0.949-2.979-1.588l0.037 0.025c-0.847 0.615-1.817 1.143-2.854 1.538l-0.086 0.029c-1.77 0.669-4.073 0.597-4.073 0.597s-0.111 1.452-1.415 2.765c-0.741 0.747-1.552 1.423-2.423 2.017l-0.057 0.037s0.499 9.8 3.682 13.554 7.226 5.419 7.226 5.419 4.042-1.666 7.23-5.419 3.677-13.554 3.677-13.554c-0.926-0.631-1.736-1.306-2.475-2.053l-0.001-0.001z"></path>
</svg>
