<!-- Generated by IcoMoon.io -->
<svg version="1.1" xmlns="http://www.w3.org/2000/svg" width="64" height="64" viewBox="0 0 64 64">
<path fill="#fff" d="M32 63.086c-17.168-0-31.085-13.918-31.085-31.086 0-8.584 3.479-16.355 9.104-21.981v0c5.637-5.699 13.459-9.229 22.104-9.229 17.168 0 31.086 13.918 31.086 31.086 0 8.646-3.529 16.467-9.226 22.102l-0.003 0.003c-5.594 5.624-13.338 9.105-21.895 9.105-0.030 0-0.060-0-0.090-0h0.005z"></path>
<path fill="#fff" d="M32 1.829c16.663 0 30.171 13.509 30.171 30.171s-13.509 30.171-30.171 30.171-30.171-13.509-30.171-30.171 13.509-30.171 30.171-30.171zM32 0c-17.671 0.009-31.992 14.336-31.992 32.008 0 13.173 7.957 24.487 19.327 29.398l0.208 0.080c3.676 1.595 7.958 2.523 12.457 2.523 17.678 0 32.009-14.331 32.009-32.009 0-13.179-7.965-24.499-19.344-29.406l-0.208-0.080c-3.658-1.59-7.919-2.514-12.395-2.514-0.022 0-0.044 0-0.065 0h0.003z"></path>
<path fill="#1f2c35" d="M32 32s-18.302 10.671-26.134 15.086c-2.542-4.327-4.044-9.531-4.044-15.086s1.502-10.758 4.121-15.228l-0.077 0.142 26.134 15.086z"></path>
<path fill="#eeac1f" d="M32 32s0.090 21.185 0 30.171c-0.003 0-0.006 0-0.009 0-11.106 0-20.81-6.004-26.044-14.943l-0.077-0.142 26.129-15.086z"></path>
<path fill="#89a53d" d="M32 32s18.392 10.514 26.134 15.086c-5.311 9.082-15.015 15.086-26.122 15.086-0.004 0-0.008 0-0.012 0h0.001z"></path>
<path fill="#e15426" d="M32 32s18.302-10.671 26.134-15.086c2.542 4.327 4.044 9.531 4.044 15.086s-1.502 10.758-4.121 15.228l0.077-0.142-26.134-15.086z"></path>
<path fill="#1ac2ec" d="M32 32s-0.090-21.185 0-30.171c0.003 0 0.005 0 0.008 0 11.106 0 20.81 6.004 26.044 14.943l0.077 0.142-26.129 15.086z"></path>
<path fill="#9ab0b7" d="M32 32s-18.392-10.514-26.134-15.086c5.311-9.082 15.015-15.086 26.122-15.086 0.004 0 0.008 0 0.012 0h-0.001z"></path>
</svg>
