<!-- Generated by IcoMoon.io -->
<svg version="1.1" xmlns="http://www.w3.org/2000/svg" width="66" height="64" viewBox="0 0 66 64">
<path fill="#fff" d="M34.385 11.074c-0.119-0.005-0.259-0.007-0.399-0.007-2.448 0-4.705 0.813-6.518 2.183l0.027-0.020c-3.823 3.607-2.96 6.998-7.432 11.976-3.643 4.076-10.53 4.072-13.019 4.072v0.218c1.545 0.418 3.318 0.657 5.148 0.657 0.97 0 1.923-0.067 2.857-0.198l-0.108 0.012c6.817-0.397 9.055-5.157 11.039-8.764 2.525-4.653 5.408-8.155 10.024-6.46 2.671 0.746 4.598 3.158 4.598 6.020 0 1.755-0.725 3.341-1.891 4.475l-0.002 0.001c-3.030 3.571-7.213 2.528-8.186 0.183-0.15-0.34-0.238-0.737-0.238-1.155 0-1.392 0.973-2.556 2.275-2.85l0.020-0.004c1.19-0.18 2.057 1.338 2.057 1.338 0.029-0.142 0.045-0.305 0.045-0.471 0-1.375-1.114-2.489-2.489-2.489-0.030 0-0.060 0.001-0.090 0.002l0.004-0c-2.713 0.12-4.868 2.349-4.868 5.081 0 0.747 0.161 1.456 0.45 2.094l-0.013-0.032c1.371 3.39 6.637 4.073 10.821 1.909 4.941-2.561 7.57-10.855 2.592-15.111-1.791-1.57-4.124-2.562-6.686-2.662l-0.021-0.001zM55.209 22.811c-1.49 0.141-2.853 0.57-4.071 1.232l0.056-0.028c-8.584 4.292-10.14 9.268-18.76 11.504-1.786 0.307-3.843 0.483-5.941 0.483-4.038 0-7.923-0.651-11.557-1.854l0.26 0.074c2.906 1.598 6.276 2.847 9.837 3.568l0.23 0.039c1.52 0.343 3.266 0.54 5.057 0.54 4.202 0 8.152-1.082 11.585-2.984l-0.123 0.062c4.363-2.757 8.129-5.537 11.683-8.559l-0.144 0.119c0.901-0.512 1.98-0.814 3.128-0.814 1.743 0 3.324 0.695 4.481 1.823l-0.001-0.001c0.645 0.688 1.041 1.616 1.041 2.637 0 2.104-1.684 3.815-3.777 3.858l-0.004 0c-2.13-0.078-3.827-1.823-3.827-3.965 0-0.467 0.081-0.916 0.229-1.332l-0.009 0.028c-1.387 0.524-2.355 1.84-2.355 3.383 0 0.416 0.070 0.815 0.2 1.187l-0.008-0.025c1.066 2.155 3.249 3.611 5.773 3.611 0.076 0 0.151-0.001 0.226-0.004l-0.011 0c0.226 0.027 0.488 0.042 0.753 0.042 3.745 0 6.781-3.036 6.781-6.781 0-0.736-0.117-1.444-0.334-2.108l0.014 0.048c-1.776-3.484-5.337-5.828-9.445-5.828-0.34 0-0.677 0.016-1.009 0.048l0.042-0.003zM4.706 35.005c-0.136-0.003-0.297-0.005-0.458-0.005-0.692 0-1.376 0.032-2.051 0.096l0.086-0.007v0.211l-0.035 0.148c3.857 0.686 7.305 1.877 10.482 3.52l-0.204-0.096c4.905 2.344 14.142 10.171 22.726 12.335 1.506 0.546 3.245 0.862 5.057 0.862 3.643 0 6.987-1.276 9.61-3.407l-0.028 0.022c1.442-1.219 2.352-3.029 2.352-5.051s-0.91-3.832-2.342-5.043l-0.010-0.008c-0.932-0.814-2.16-1.31-3.503-1.31-1.882 0-3.536 0.974-4.487 2.445l-0.013 0.021c-0.331 0.514-0.528 1.142-0.528 1.816 0 0.957 0.396 1.821 1.034 2.438l0.001 0.001c-0.011-0.109-0.017-0.235-0.017-0.362 0-1.671 1.062-3.094 2.547-3.631l0.027-0.008c0.303-0.092 0.652-0.145 1.013-0.145 1.802 0 3.295 1.322 3.564 3.048l0.003 0.020c0.325 2.813-2.634 5.085-8.693 5.446-7.178 0.433-19.296-7.397-26.798-11.004-2.714-1.412-5.915-2.273-9.309-2.352l-0.025-0.001z"></path>
</svg>
