<!-- Generated by IcoMoon.io -->
<svg version="1.1" xmlns="http://www.w3.org/2000/svg" width="64" height="64" viewBox="0 0 64 64">
<path fill="#9ab0b7" d="M32 63.086c-17.168-0-31.085-13.918-31.085-31.086 0-8.584 3.479-16.355 9.104-21.981v0c5.637-5.699 13.459-9.229 22.104-9.229 17.168 0 31.086 13.918 31.086 31.086 0 8.646-3.529 16.467-9.226 22.102l-0.003 0.003c-5.594 5.624-13.338 9.105-21.895 9.105-0.030 0-0.060-0-0.090-0h0.005z"></path>
<path fill="#fff" d="M32 1.829c16.663 0 30.171 13.509 30.171 30.171s-13.509 30.171-30.171 30.171-30.171-13.509-30.171-30.171 13.509-30.171 30.171-30.171zM32 0c-17.671 0.009-31.992 14.336-31.992 32.008 0 13.173 7.957 24.487 19.327 29.398l0.208 0.080c3.676 1.595 7.958 2.523 12.457 2.523 17.678 0 32.009-14.331 32.009-32.009 0-13.179-7.965-24.499-19.344-29.406l-0.208-0.080c-3.658-1.59-7.919-2.514-12.395-2.514-0.022 0-0.044 0-0.065 0h0.003z"></path>
<path fill="#fff" d="M6.702 35.111c-0.066-0.014-0.114-0.072-0.114-0.141 0-0.072 0.053-0.132 0.123-0.142l0.001-0c1.43-0.191 4.864-0.315 9.333 1.791 5.943 2.8 15.543 9.055 21.223 8.715 4.806-0.287 7.146-2.094 6.891-4.315-0.2-1.743-2.143-2.886-3.629-2.314s-2.143 1.914-2.029 3.171c-1.257-0.971-0.8-2.857-0.4-3.371s2.593-3.505 6.343-0.914c3.143 2.171 1.815 6.4 0 8-1.2 1.057-4.8 3.714-11.6 2s-14.131-7.925-18-9.771c-3.56-1.704-5.095-2.067-8.142-2.707z"></path>
<path fill="#fff" d="M16.92 34.358c-0.033-0.018-0.055-0.053-0.055-0.092 0-0.058 0.047-0.105 0.105-0.105 0.011 0 0.021 0.002 0.030 0.004l-0.001-0c2.542 0.776 9.003 2.238 13.672 1.029 6.819-1.771 8.057-5.829 14.857-9.125 4.337-2.102 10-0.59 11.543 3.639s-2.477 7.143-5.657 6.971c-2.629-0.142-4.399-1.641-4.743-2.857-0.381-1.351 0.152-3.103 1.714-3.598-0.457 2.057 0.662 4.306 2.971 4.171 2.286-0.134 4.305-2.997 2.171-5.143s-4.8-1.734-6.4-0.743c-1.706 1.056-5.714 5.029-9.143 6.686-3.29 1.59-8.114 3.325-13.094 2-4.246-1.129-5.549-1.506-7.973-2.832z"></path>
<path fill="#fff" d="M10.478 30.495c-0.052-0.020-0.088-0.070-0.088-0.128 0-0.076 0.061-0.137 0.137-0.137 0.002 0 0.004 0 0.006 0h-0c1.958 0.080 7.434-0.010 10.311-3.211 3.543-3.943 2.736-6.629 5.886-9.486 2.2-1.993 7.231-2.629 10.771 0.4 3.943 3.371 1.848 9.952-2.066 11.981-3.314 1.714-7.477 1.162-8.419-1.523-1.050-2.991 1.114-5.629 3.314-5.6 2.32 0.030 2 2.343 2 2.343s-0.686-1.2-1.629-1.057c-1.194 0.179-2.249 1.677-1.629 3.171 0.771 1.857 4.089 2.679 6.477-0.153 2.457-2.914 1.923-6.875-2.134-8.304-3.75-1.321-5.943 1.445-7.943 5.143-1.571 2.914-3.343 6.629-8.743 6.939-3.958 0.229-5.486-0.086-6.251-0.377z"></path>
</svg>
